<mxfile host="app.diagrams.net" modified="2023-10-06T11:39:13.152Z" agent="Mozilla/5.0 (Windows NT 10.0; Win64; x64) AppleWebKit/537.36 (KHTML, like Gecko) Chrome/117.0.0.0 Safari/537.36 Edg/117.0.2045.41" etag="sGS6QyxVBMN93vMyTIGx" version="21.8.2" type="github" pages="2">
  <diagram name="第 1 页" id="3CutMRVUTmBbY05UaNdL">
    <mxGraphModel dx="2381" dy="857" grid="1" gridSize="10" guides="1" tooltips="1" connect="1" arrows="1" fold="1" page="1" pageScale="1" pageWidth="827" pageHeight="1169" math="0" shadow="0">
      <root>
        <mxCell id="0" />
        <mxCell id="1" parent="0" />
        <mxCell id="5NvXKNL1tGP3UFRVVoHb-23" value="3-4" style="rounded=0;whiteSpace=wrap;html=1;fillColor=#fff2cc;strokeColor=#d6b656;shadow=0;" parent="1" vertex="1">
          <mxGeometry x="110" y="260.32" width="19.685" height="779.526" as="geometry" />
        </mxCell>
        <mxCell id="5NvXKNL1tGP3UFRVVoHb-24" value="3-6" style="rounded=0;whiteSpace=wrap;html=1;fillColor=#fff2cc;strokeColor=#d6b656;shadow=0;" parent="1" vertex="1">
          <mxGeometry x="260" y="980.7899999999998" width="19.685" height="59.055" as="geometry" />
        </mxCell>
        <mxCell id="5NvXKNL1tGP3UFRVVoHb-2" value="" style="whiteSpace=wrap;html=1;shadow=0;" parent="1" vertex="1">
          <mxGeometry x="89.68849999999998" y="1000.47" width="137.795" height="59.055" as="geometry" />
        </mxCell>
        <mxCell id="5NvXKNL1tGP3UFRVVoHb-4" value="3-1" style="rounded=0;whiteSpace=wrap;html=1;fillColor=#fff2cc;strokeColor=#d6b656;shadow=0;" parent="1" vertex="1">
          <mxGeometry x="70" y="280" width="19.685" height="779.526" as="geometry" />
        </mxCell>
        <mxCell id="5NvXKNL1tGP3UFRVVoHb-5" value="2-1" style="rounded=0;whiteSpace=wrap;html=1;fillColor=#fff2cc;strokeColor=#d6b656;shadow=0;" parent="1" vertex="1">
          <mxGeometry x="70" y="1059.53" width="472.44" height="19.685" as="geometry" />
        </mxCell>
        <mxCell id="5NvXKNL1tGP3UFRVVoHb-6" value="3-2" style="rounded=0;whiteSpace=wrap;html=1;fillColor=#fff2cc;strokeColor=#d6b656;shadow=0;" parent="1" vertex="1">
          <mxGeometry x="522.76" y="280.01" width="19.685" height="779.526" as="geometry" />
        </mxCell>
        <mxCell id="5NvXKNL1tGP3UFRVVoHb-7" value="" style="rounded=0;whiteSpace=wrap;html=1;fillColor=#fff2cc;strokeColor=#d6b656;shadow=0;" parent="1" vertex="1">
          <mxGeometry x="70" y="260.31999999999994" width="472.44" height="19.685" as="geometry" />
        </mxCell>
        <mxCell id="5NvXKNL1tGP3UFRVVoHb-8" value="" style="rounded=0;whiteSpace=wrap;html=1;fillColor=#fff2cc;strokeColor=#d6b656;shadow=0;" parent="1" vertex="1">
          <mxGeometry x="89.69" y="980.79" width="433.07" height="19.685" as="geometry" />
        </mxCell>
        <mxCell id="5NvXKNL1tGP3UFRVVoHb-10" value="1-3" style="rounded=0;whiteSpace=wrap;html=1;fillColor=#fff2cc;strokeColor=#d6b656;shadow=0;" parent="1" vertex="1">
          <mxGeometry x="522.76" y="1079.21" width="19.685" height="59.055" as="geometry" />
        </mxCell>
        <mxCell id="5NvXKNL1tGP3UFRVVoHb-11" value="1-1" style="rounded=0;whiteSpace=wrap;html=1;fillColor=#fff2cc;strokeColor=#d6b656;shadow=0;" parent="1" vertex="1">
          <mxGeometry x="70" y="1079.21" width="19.685" height="59.055" as="geometry" />
        </mxCell>
        <mxCell id="5NvXKNL1tGP3UFRVVoHb-12" value="3-5" style="rounded=0;whiteSpace=wrap;html=1;fillColor=#fff2cc;strokeColor=#d6b656;shadow=0;" parent="1" vertex="1">
          <mxGeometry x="227.48" y="1000.48" width="19.685" height="59.055" as="geometry" />
        </mxCell>
        <mxCell id="5NvXKNL1tGP3UFRVVoHb-13" value="" style="rounded=0;whiteSpace=wrap;html=1;fillColor=#fff2cc;strokeColor=#d6b656;shadow=0;" parent="1" vertex="1">
          <mxGeometry x="227.48" y="921.73" width="19.685" height="59.055" as="geometry" />
        </mxCell>
        <mxCell id="5NvXKNL1tGP3UFRVVoHb-14" value="" style="rounded=0;whiteSpace=wrap;html=1;fillColor=#fff2cc;strokeColor=#d6b656;shadow=0;" parent="1" vertex="1">
          <mxGeometry x="89.69" y="902.05" width="433.07" height="19.685" as="geometry" />
        </mxCell>
        <mxCell id="5NvXKNL1tGP3UFRVVoHb-15" value="1-2" style="rounded=0;whiteSpace=wrap;html=1;fillColor=#fff2cc;strokeColor=#d6b656;shadow=0;" parent="1" vertex="1">
          <mxGeometry x="110" y="1090" width="19.685" height="59.055" as="geometry" />
        </mxCell>
        <mxCell id="5NvXKNL1tGP3UFRVVoHb-16" value="1-4" style="rounded=0;whiteSpace=wrap;html=1;fillColor=#fff2cc;strokeColor=#d6b656;shadow=0;" parent="1" vertex="1">
          <mxGeometry x="560" y="1090" width="19.685" height="59.055" as="geometry" />
        </mxCell>
        <mxCell id="5NvXKNL1tGP3UFRVVoHb-18" value="2-2" style="rounded=0;whiteSpace=wrap;html=1;fillColor=#fff2cc;strokeColor=#d6b656;shadow=0;" parent="1" vertex="1">
          <mxGeometry x="590" y="1059.53" width="472.44" height="19.685" as="geometry" />
        </mxCell>
        <mxCell id="5NvXKNL1tGP3UFRVVoHb-19" value="2-3" style="rounded=0;whiteSpace=wrap;html=1;fillColor=#fff2cc;strokeColor=#d6b656;shadow=0;" parent="1" vertex="1">
          <mxGeometry x="720" y="1098.8999999999999" width="236.22" height="19.685" as="geometry" />
        </mxCell>
        <mxCell id="5NvXKNL1tGP3UFRVVoHb-20" value="2-4" style="rounded=0;whiteSpace=wrap;html=1;fillColor=#fff2cc;strokeColor=#d6b656;shadow=0;" parent="1" vertex="1">
          <mxGeometry x="980" y="1098.8999999999999" width="236.22" height="19.685" as="geometry" />
        </mxCell>
        <mxCell id="5NvXKNL1tGP3UFRVVoHb-21" value="80X60" style="verticalLabelPosition=bottom;verticalAlign=top;html=1;shape=mxgraph.basic.patternFillRect;fillStyle=diagGrid;step=5;fillStrokeWidth=0.2;fillStrokeColor=#dddddd;" parent="1" vertex="1">
          <mxGeometry x="-440" y="809.9999999999999" width="314.96" height="236.22" as="geometry" />
        </mxCell>
        <mxCell id="5NvXKNL1tGP3UFRVVoHb-22" value="3-3" style="rounded=0;whiteSpace=wrap;html=1;fillColor=#fff2cc;strokeColor=#d6b656;shadow=0;" parent="1" vertex="1">
          <mxGeometry x="559.99" y="260.32" width="19.69" height="779.53" as="geometry" />
        </mxCell>
      </root>
    </mxGraphModel>
  </diagram>
  <diagram id="V7Ip8X5JRjzL0S__2o9u" name="第 2 页">
    <mxGraphModel dx="5180" dy="1688" grid="1" gridSize="10" guides="1" tooltips="1" connect="1" arrows="1" fold="1" page="1" pageScale="1" pageWidth="827" pageHeight="1169" math="0" shadow="0">
      <root>
        <mxCell id="0" />
        <mxCell id="1" parent="0" />
        <mxCell id="QaqN5k4PvZ0HnCuxRosK-653" value="8-2" style="rounded=0;whiteSpace=wrap;html=1;fillColor=#fff2cc;strokeColor=#d6b656;shadow=0;" parent="1" vertex="1">
          <mxGeometry x="6233.610000000001" y="1306.5" width="19.69" height="551.18" as="geometry" />
        </mxCell>
        <mxCell id="QaqN5k4PvZ0HnCuxRosK-2" value="4-2" style="rounded=0;whiteSpace=wrap;html=1;fillColor=#fff2cc;strokeColor=#d6b656;shadow=0;" parent="1" vertex="1">
          <mxGeometry x="2709.0299999999997" y="2010.41" width="222.36" height="19.69" as="geometry" />
        </mxCell>
        <mxCell id="QB4_z4hpAEto-_9BOCrR-14" value="1-2" style="rounded=0;whiteSpace=wrap;html=1;fillColor=#fff2cc;strokeColor=#d6b656;shadow=0;" parent="1" vertex="1">
          <mxGeometry x="268.74" y="2100.6400000000003" width="19.685" height="78.74" as="geometry" />
        </mxCell>
        <mxCell id="QB4_z4hpAEto-_9BOCrR-9" value="1-3" style="rounded=0;whiteSpace=wrap;html=1;fillColor=#fff2cc;strokeColor=#d6b656;shadow=0;" parent="1" vertex="1">
          <mxGeometry x="620" y="2203.93" width="19.685" height="78.74" as="geometry" />
        </mxCell>
        <mxCell id="QB4_z4hpAEto-_9BOCrR-10" value="1-1" style="rounded=0;whiteSpace=wrap;html=1;fillColor=#fff2cc;strokeColor=#d6b656;shadow=0;" parent="1" vertex="1">
          <mxGeometry x="200.31" y="2206.48" width="19.685" height="78.74" as="geometry" />
        </mxCell>
        <mxCell id="QB4_z4hpAEto-_9BOCrR-15" value="1-4" style="rounded=0;whiteSpace=wrap;html=1;fillColor=#fff2cc;strokeColor=#d6b656;shadow=0;" parent="1" vertex="1">
          <mxGeometry x="721.5" y="2100.64" width="19.685" height="78.74" as="geometry" />
        </mxCell>
        <mxCell id="QB4_z4hpAEto-_9BOCrR-19" value="80X60" style="verticalLabelPosition=bottom;verticalAlign=top;html=1;shape=mxgraph.basic.patternFillRect;fillStyle=diagGrid;step=5;fillStrokeWidth=0.2;fillStrokeColor=#dddddd;" parent="1" vertex="1">
          <mxGeometry x="1077.32" y="2483.4700000000003" width="314.96" height="236.22" as="geometry" />
        </mxCell>
        <mxCell id="u_s6DZkueMLssmhYsSW8-9" value="1-2" style="rounded=0;whiteSpace=wrap;html=1;fillColor=#eeeeee;shadow=0;strokeColor=#36393d;" parent="1" vertex="1">
          <mxGeometry x="1047.79" y="2100.3300000000004" width="19.685" height="78.74" as="geometry" />
        </mxCell>
        <mxCell id="u_s6DZkueMLssmhYsSW8-10" value="2-1" style="rounded=0;whiteSpace=wrap;html=1;fillColor=#fff2cc;strokeColor=#d6b656;shadow=0;" parent="1" vertex="1">
          <mxGeometry x="919.84" y="2210.01" width="472.44" height="19.685" as="geometry" />
        </mxCell>
        <mxCell id="u_s6DZkueMLssmhYsSW8-11" value="1-3" style="rounded=0;whiteSpace=wrap;html=1;fillColor=#eeeeee;shadow=0;strokeColor=#36393d;" parent="1" vertex="1">
          <mxGeometry x="1372.6" y="2229.7" width="19.685" height="78.74" as="geometry" />
        </mxCell>
        <mxCell id="u_s6DZkueMLssmhYsSW8-12" value="1-1" style="rounded=0;whiteSpace=wrap;html=1;fillColor=#eeeeee;shadow=0;strokeColor=#36393d;" parent="1" vertex="1">
          <mxGeometry x="919.84" y="2229.7" width="19.685" height="78.74" as="geometry" />
        </mxCell>
        <mxCell id="u_s6DZkueMLssmhYsSW8-13" value="1-4" style="rounded=0;whiteSpace=wrap;html=1;fillColor=#eeeeee;shadow=0;strokeColor=#36393d;" parent="1" vertex="1">
          <mxGeometry x="1500.54" y="2100.33" width="19.685" height="78.74" as="geometry" />
        </mxCell>
        <mxCell id="u_s6DZkueMLssmhYsSW8-14" value="2-2" style="rounded=0;whiteSpace=wrap;html=1;fillColor=#fff2cc;strokeColor=#d6b656;shadow=0;" parent="1" vertex="1">
          <mxGeometry x="1047.79" y="2080.95" width="472.44" height="19.685" as="geometry" />
        </mxCell>
        <mxCell id="u_s6DZkueMLssmhYsSW8-18" value="2-1" style="rounded=0;whiteSpace=wrap;html=1;fillColor=#fff2cc;strokeColor=#d6b656;shadow=0;" parent="1" vertex="1">
          <mxGeometry x="919.84" y="2700" width="472.44" height="19.685" as="geometry" />
        </mxCell>
        <mxCell id="u_s6DZkueMLssmhYsSW8-19" value="2-2" style="rounded=0;whiteSpace=wrap;html=1;fillColor=#fff2cc;strokeColor=#d6b656;shadow=0;" parent="1" vertex="1">
          <mxGeometry x="919.84" y="2483" width="472.44" height="19.685" as="geometry" />
        </mxCell>
        <mxCell id="u_s6DZkueMLssmhYsSW8-20" value="2-3" style="rounded=0;whiteSpace=wrap;html=1;fillColor=#fff2cc;strokeColor=#d6b656;shadow=0;rotation=90;" parent="1" vertex="1">
          <mxGeometry x="811.57" y="2591.4829999999997" width="236.22" height="19.685" as="geometry" />
        </mxCell>
        <mxCell id="u_s6DZkueMLssmhYsSW8-21" value="2-4" style="rounded=0;whiteSpace=wrap;html=1;fillColor=#fff2cc;strokeColor=#d6b656;shadow=0;rotation=90;" parent="1" vertex="1">
          <mxGeometry x="1264.33" y="2591.48" width="236.22" height="19.685" as="geometry" />
        </mxCell>
        <mxCell id="u_s6DZkueMLssmhYsSW8-22" value="2-5" style="rounded=0;whiteSpace=wrap;html=1;fillColor=#fff2cc;strokeColor=#d6b656;shadow=0;rotation=90;" parent="1" vertex="1">
          <mxGeometry x="969" y="2591.48" width="236.22" height="19.685" as="geometry" />
        </mxCell>
        <mxCell id="u_s6DZkueMLssmhYsSW8-24" value="" style="shape=parallelogram;perimeter=parallelogramPerimeter;whiteSpace=wrap;html=1;fixedSize=1;size=123.77999999999975;fillStyle=cross-hatch;fillColor=#FF9933;strokeColor=#d6b656;" parent="1" vertex="1">
          <mxGeometry x="1142.22" y="2090" width="373.78" height="119.7" as="geometry" />
        </mxCell>
        <mxCell id="PbCDE0VkGKf1Zp6z_jMK-3" value="3-4" style="rounded=0;whiteSpace=wrap;html=1;fillColor=#fff2cc;strokeColor=#d6b656;shadow=0;" parent="1" vertex="1">
          <mxGeometry x="2369.53" y="1320" width="19.685" height="779.526" as="geometry" />
        </mxCell>
        <mxCell id="_C2MhGFYFcjA31wV2jwm-1" value="3-6" style="rounded=0;whiteSpace=wrap;html=1;fillColor=#fff2cc;strokeColor=#d6b656;shadow=0;" parent="1" vertex="1">
          <mxGeometry x="2142.76" y="2024.04" width="19.685" height="78.74" as="geometry" />
        </mxCell>
        <mxCell id="_C2MhGFYFcjA31wV2jwm-3" value="80X60" style="verticalLabelPosition=bottom;verticalAlign=top;html=1;shape=mxgraph.basic.patternFillRect;fillStyle=diagGrid;step=5;fillStrokeWidth=0.2;fillStrokeColor=#dddddd;fillColor=#eeeeee;strokeColor=#36393d;" parent="1" vertex="1">
          <mxGeometry x="1955.7499999999998" y="2507.42" width="314.96" height="236.22" as="geometry" />
        </mxCell>
        <mxCell id="_C2MhGFYFcjA31wV2jwm-4" value="2-1" style="rounded=0;whiteSpace=wrap;html=1;fillColor=#eeeeee;strokeColor=#36393d;shadow=0;" parent="1" vertex="1">
          <mxGeometry x="1798.27" y="2723.95" width="472.44" height="19.685" as="geometry" />
        </mxCell>
        <mxCell id="_C2MhGFYFcjA31wV2jwm-5" value="2-2" style="rounded=0;whiteSpace=wrap;html=1;fillColor=#eeeeee;strokeColor=#36393d;shadow=0;" parent="1" vertex="1">
          <mxGeometry x="1798.27" y="2506.95" width="472.44" height="19.685" as="geometry" />
        </mxCell>
        <mxCell id="_C2MhGFYFcjA31wV2jwm-6" value="2-3" style="rounded=0;whiteSpace=wrap;html=1;fillColor=#eeeeee;strokeColor=#36393d;shadow=0;rotation=90;" parent="1" vertex="1">
          <mxGeometry x="1690" y="2615.4329999999995" width="236.22" height="19.685" as="geometry" />
        </mxCell>
        <mxCell id="_C2MhGFYFcjA31wV2jwm-7" value="2-4" style="rounded=0;whiteSpace=wrap;html=1;fillColor=#eeeeee;strokeColor=#36393d;shadow=0;rotation=90;" parent="1" vertex="1">
          <mxGeometry x="2142.76" y="2615.43" width="236.22" height="19.685" as="geometry" />
        </mxCell>
        <mxCell id="_C2MhGFYFcjA31wV2jwm-8" value="2-5" style="rounded=0;whiteSpace=wrap;html=1;fillColor=#eeeeee;strokeColor=#36393d;shadow=0;rotation=90;" parent="1" vertex="1">
          <mxGeometry x="1847.43" y="2615.43" width="236.22" height="19.685" as="geometry" />
        </mxCell>
        <mxCell id="_C2MhGFYFcjA31wV2jwm-9" value="3-1" style="rounded=0;whiteSpace=wrap;html=1;fillColor=#fff2cc;strokeColor=#d6b656;shadow=0;" parent="1" vertex="1">
          <mxGeometry x="1798.97" y="2723.95" width="19.685" height="19.685" as="geometry" />
        </mxCell>
        <mxCell id="_C2MhGFYFcjA31wV2jwm-10" value="3-2" style="rounded=0;whiteSpace=wrap;html=1;fillColor=#fff2cc;strokeColor=#d6b656;shadow=0;" parent="1" vertex="1">
          <mxGeometry x="1798.97" y="2507.4199999999996" width="19.685" height="19.685" as="geometry" />
        </mxCell>
        <mxCell id="_C2MhGFYFcjA31wV2jwm-11" value="3-3" style="rounded=0;whiteSpace=wrap;html=1;fillColor=#fff2cc;strokeColor=#d6b656;shadow=0;" parent="1" vertex="1">
          <mxGeometry x="2251.73" y="2723.95" width="19.685" height="19.685" as="geometry" />
        </mxCell>
        <mxCell id="_C2MhGFYFcjA31wV2jwm-13" value="3-4" style="rounded=0;whiteSpace=wrap;html=1;fillColor=#fff2cc;strokeColor=#d6b656;shadow=0;" parent="1" vertex="1">
          <mxGeometry x="2251.73" y="2507.4199999999996" width="19.685" height="19.685" as="geometry" />
        </mxCell>
        <mxCell id="_C2MhGFYFcjA31wV2jwm-14" value="3-5" style="rounded=0;whiteSpace=wrap;html=1;fillColor=#fff2cc;strokeColor=#d6b656;shadow=0;" parent="1" vertex="1">
          <mxGeometry x="1955.7" y="2723.96" width="19.685" height="19.685" as="geometry" />
        </mxCell>
        <mxCell id="_C2MhGFYFcjA31wV2jwm-15" value="3-6" style="rounded=0;whiteSpace=wrap;html=1;fillColor=#fff2cc;strokeColor=#d6b656;shadow=0;" parent="1" vertex="1">
          <mxGeometry x="1955.75" y="2507.42" width="19.685" height="19.685" as="geometry" />
        </mxCell>
        <mxCell id="_C2MhGFYFcjA31wV2jwm-16" value="" style="shape=cube;whiteSpace=wrap;html=1;boundedLbl=1;backgroundOutline=1;darkOpacity=0.05;darkOpacity2=0.1;size=128;rotation=90;fillColor=#fff2cc;strokeColor=#d6b656;" parent="1" vertex="1">
          <mxGeometry x="919.84" y="2062.58" width="146.32" height="147.11" as="geometry" />
        </mxCell>
        <mxCell id="_C2MhGFYFcjA31wV2jwm-17" value="" style="shape=cube;whiteSpace=wrap;html=1;boundedLbl=1;backgroundOutline=1;darkOpacity=0.05;darkOpacity2=0.1;size=128;rotation=90;fillColor=#fff2cc;strokeColor=#d6b656;" parent="1" vertex="1">
          <mxGeometry x="1146.22" y="2066.1400000000003" width="146.32" height="147.11" as="geometry" />
        </mxCell>
        <mxCell id="_C2MhGFYFcjA31wV2jwm-18" value="" style="shape=cube;whiteSpace=wrap;html=1;boundedLbl=1;backgroundOutline=1;darkOpacity=0.05;darkOpacity2=0.1;size=128;rotation=90;fillColor=#fff2cc;strokeColor=#d6b656;" parent="1" vertex="1">
          <mxGeometry x="1373.91" y="2062.9000000000005" width="146.32" height="147.11" as="geometry" />
        </mxCell>
        <mxCell id="_C2MhGFYFcjA31wV2jwm-21" value="1-2" style="rounded=0;whiteSpace=wrap;html=1;fillColor=#f5f5f5;shadow=0;strokeColor=#666666;fontColor=#333333;" parent="1" vertex="1">
          <mxGeometry x="1916.7699999999998" y="2137.28" width="19.685" height="78.74" as="geometry" />
        </mxCell>
        <mxCell id="_C2MhGFYFcjA31wV2jwm-22" value="2-1" style="rounded=0;whiteSpace=wrap;html=1;fillColor=#f5f5f5;strokeColor=#666666;shadow=0;fontColor=#333333;" parent="1" vertex="1">
          <mxGeometry x="1788.82" y="2246.96" width="472.44" height="19.685" as="geometry" />
        </mxCell>
        <mxCell id="_C2MhGFYFcjA31wV2jwm-23" value="1-3" style="rounded=0;whiteSpace=wrap;html=1;fillColor=#f5f5f5;shadow=0;strokeColor=#666666;fontColor=#333333;" parent="1" vertex="1">
          <mxGeometry x="2241.58" y="2266.6499999999996" width="19.685" height="78.74" as="geometry" />
        </mxCell>
        <mxCell id="_C2MhGFYFcjA31wV2jwm-24" value="1-1" style="rounded=0;whiteSpace=wrap;html=1;fillColor=#f5f5f5;shadow=0;strokeColor=#666666;fontColor=#333333;" parent="1" vertex="1">
          <mxGeometry x="1788.82" y="2266.6499999999996" width="19.685" height="78.74" as="geometry" />
        </mxCell>
        <mxCell id="_C2MhGFYFcjA31wV2jwm-25" value="1-4" style="rounded=0;whiteSpace=wrap;html=1;fillColor=#f5f5f5;shadow=0;strokeColor=#666666;fontColor=#333333;" parent="1" vertex="1">
          <mxGeometry x="2369.52" y="2137.2799999999997" width="19.685" height="78.74" as="geometry" />
        </mxCell>
        <mxCell id="_C2MhGFYFcjA31wV2jwm-26" value="2-2" style="rounded=0;whiteSpace=wrap;html=1;fillColor=#f5f5f5;strokeColor=#666666;shadow=0;fontColor=#333333;" parent="1" vertex="1">
          <mxGeometry x="1916.7699999999998" y="2117.8999999999996" width="472.44" height="19.685" as="geometry" />
        </mxCell>
        <mxCell id="_C2MhGFYFcjA31wV2jwm-27" value="" style="shape=parallelogram;perimeter=parallelogramPerimeter;whiteSpace=wrap;html=1;fixedSize=1;size=123.77999999999975;fillStyle=cross-hatch;fillColor=#000000;" parent="1" vertex="1">
          <mxGeometry x="2011.2" y="2126.95" width="373.78" height="119.7" as="geometry" />
        </mxCell>
        <mxCell id="_C2MhGFYFcjA31wV2jwm-28" value="" style="shape=cube;whiteSpace=wrap;html=1;boundedLbl=1;backgroundOutline=1;darkOpacity=0.05;darkOpacity2=0.1;size=128;rotation=90;fillColor=#f5f5f5;strokeColor=#666666;fontColor=#333333;" parent="1" vertex="1">
          <mxGeometry x="1788.82" y="2099.5299999999997" width="146.32" height="147.11" as="geometry" />
        </mxCell>
        <mxCell id="_C2MhGFYFcjA31wV2jwm-29" value="" style="shape=cube;whiteSpace=wrap;html=1;boundedLbl=1;backgroundOutline=1;darkOpacity=0.05;darkOpacity2=0.1;size=128;rotation=90;fillColor=#f5f5f5;strokeColor=#666666;fontColor=#333333;" parent="1" vertex="1">
          <mxGeometry x="2015.2" y="2103.09" width="146.32" height="147.11" as="geometry" />
        </mxCell>
        <mxCell id="_C2MhGFYFcjA31wV2jwm-30" value="" style="shape=cube;whiteSpace=wrap;html=1;boundedLbl=1;backgroundOutline=1;darkOpacity=0.05;darkOpacity2=0.1;size=128;rotation=90;fillColor=#f5f5f5;strokeColor=#666666;fontColor=#333333;" parent="1" vertex="1">
          <mxGeometry x="2242.8900000000003" y="2099.8500000000004" width="146.32" height="147.11" as="geometry" />
        </mxCell>
        <mxCell id="-2eTmUtUgcUSaI13VlLo-1" value="3-5" style="rounded=0;whiteSpace=wrap;html=1;fillColor=#fff2cc;strokeColor=#d6b656;shadow=0;" parent="1" vertex="1">
          <mxGeometry x="2015.2" y="2152.95" width="19.685" height="78.74" as="geometry" />
        </mxCell>
        <mxCell id="PbCDE0VkGKf1Zp6z_jMK-4" value="3-3" style="rounded=0;whiteSpace=wrap;html=1;fillColor=#fff2cc;strokeColor=#d6b656;shadow=0;" parent="1" vertex="1">
          <mxGeometry x="2242.8900000000003" y="1446.95" width="19.685" height="779.526" as="geometry" />
        </mxCell>
        <mxCell id="PbCDE0VkGKf1Zp6z_jMK-2" value="3-2" style="rounded=0;whiteSpace=wrap;html=1;fillColor=#fff2cc;strokeColor=#d6b656;shadow=0;" parent="1" vertex="1">
          <mxGeometry x="1915.45" y="1323.57" width="19.685" height="779.526" as="geometry" />
        </mxCell>
        <mxCell id="_C2MhGFYFcjA31wV2jwm-33" value="3-4" style="rounded=0;whiteSpace=wrap;html=1;fillColor=#f5f5f5;strokeColor=#666666;shadow=0;fontColor=#333333;" parent="1" vertex="1">
          <mxGeometry x="3140.71" y="1323.57" width="19.685" height="779.526" as="geometry" />
        </mxCell>
        <mxCell id="_C2MhGFYFcjA31wV2jwm-34" value="3-6" style="rounded=0;whiteSpace=wrap;html=1;fillColor=#f5f5f5;strokeColor=#666666;shadow=0;fontColor=#333333;" parent="1" vertex="1">
          <mxGeometry x="2914.33" y="2031.01" width="19.685" height="78.74" as="geometry" />
        </mxCell>
        <mxCell id="_C2MhGFYFcjA31wV2jwm-35" value="1-2" style="rounded=0;whiteSpace=wrap;html=1;fillColor=#f5f5f5;shadow=0;strokeColor=#666666;fontColor=#333333;" parent="1" vertex="1">
          <mxGeometry x="2687.95" y="2140.8500000000004" width="19.685" height="78.74" as="geometry" />
        </mxCell>
        <mxCell id="_C2MhGFYFcjA31wV2jwm-36" value="2-1" style="rounded=0;whiteSpace=wrap;html=1;fillColor=#f5f5f5;strokeColor=#666666;shadow=0;fontColor=#333333;" parent="1" vertex="1">
          <mxGeometry x="2560" y="2250.53" width="472.44" height="19.685" as="geometry" />
        </mxCell>
        <mxCell id="_C2MhGFYFcjA31wV2jwm-37" value="1-3" style="rounded=0;whiteSpace=wrap;html=1;fillColor=#f5f5f5;shadow=0;strokeColor=#666666;fontColor=#333333;" parent="1" vertex="1">
          <mxGeometry x="3012.7599999999998" y="2270.22" width="19.685" height="78.74" as="geometry" />
        </mxCell>
        <mxCell id="_C2MhGFYFcjA31wV2jwm-38" value="1-1" style="rounded=0;whiteSpace=wrap;html=1;fillColor=#f5f5f5;shadow=0;strokeColor=#666666;fontColor=#333333;" parent="1" vertex="1">
          <mxGeometry x="2560" y="2270.22" width="19.685" height="78.74" as="geometry" />
        </mxCell>
        <mxCell id="_C2MhGFYFcjA31wV2jwm-39" value="1-4" style="rounded=0;whiteSpace=wrap;html=1;fillColor=#f5f5f5;shadow=0;strokeColor=#666666;fontColor=#333333;" parent="1" vertex="1">
          <mxGeometry x="3140.7" y="2140.85" width="19.685" height="78.74" as="geometry" />
        </mxCell>
        <mxCell id="_C2MhGFYFcjA31wV2jwm-40" value="2-2" style="rounded=0;whiteSpace=wrap;html=1;fillColor=#f5f5f5;strokeColor=#666666;shadow=0;fontColor=#333333;" parent="1" vertex="1">
          <mxGeometry x="2687.95" y="2121.47" width="472.44" height="19.685" as="geometry" />
        </mxCell>
        <mxCell id="_C2MhGFYFcjA31wV2jwm-41" value="" style="shape=parallelogram;perimeter=parallelogramPerimeter;whiteSpace=wrap;html=1;fixedSize=1;size=123.77999999999975;fillStyle=cross-hatch;fillColor=#1A1A1A;fontColor=#333333;strokeColor=#000000;" parent="1" vertex="1">
          <mxGeometry x="2782.38" y="2130.52" width="373.78" height="119.7" as="geometry" />
        </mxCell>
        <mxCell id="_C2MhGFYFcjA31wV2jwm-42" value="" style="shape=cube;whiteSpace=wrap;html=1;boundedLbl=1;backgroundOutline=1;darkOpacity=0.05;darkOpacity2=0.1;size=128;rotation=90;fillColor=#f5f5f5;strokeColor=#666666;fontColor=#333333;" parent="1" vertex="1">
          <mxGeometry x="2560" y="2103.1" width="146.32" height="147.11" as="geometry" />
        </mxCell>
        <mxCell id="_C2MhGFYFcjA31wV2jwm-43" value="" style="shape=cube;whiteSpace=wrap;html=1;boundedLbl=1;backgroundOutline=1;darkOpacity=0.05;darkOpacity2=0.1;size=128;rotation=90;fillColor=#f5f5f5;strokeColor=#666666;fontColor=#333333;" parent="1" vertex="1">
          <mxGeometry x="2786.38" y="2106.6600000000003" width="146.32" height="147.11" as="geometry" />
        </mxCell>
        <mxCell id="_C2MhGFYFcjA31wV2jwm-44" value="" style="shape=cube;whiteSpace=wrap;html=1;boundedLbl=1;backgroundOutline=1;darkOpacity=0.05;darkOpacity2=0.1;size=128;rotation=90;fillColor=#f5f5f5;strokeColor=#666666;fontColor=#333333;" parent="1" vertex="1">
          <mxGeometry x="3014.07" y="2103.4200000000005" width="146.32" height="147.11" as="geometry" />
        </mxCell>
        <mxCell id="_C2MhGFYFcjA31wV2jwm-45" value="3-5" style="rounded=0;whiteSpace=wrap;html=1;fillColor=#f5f5f5;strokeColor=#666666;shadow=0;fontColor=#333333;" parent="1" vertex="1">
          <mxGeometry x="2786.38" y="2156.52" width="19.685" height="78.74" as="geometry" />
        </mxCell>
        <mxCell id="_C2MhGFYFcjA31wV2jwm-47" value="3-2" style="rounded=0;whiteSpace=wrap;html=1;fillColor=#f5f5f5;strokeColor=#666666;shadow=0;fontColor=#333333;" parent="1" vertex="1">
          <mxGeometry x="2686.63" y="1327.1399999999999" width="19.685" height="779.526" as="geometry" />
        </mxCell>
        <mxCell id="_C2MhGFYFcjA31wV2jwm-48" value="" style="shape=cube;whiteSpace=wrap;html=1;boundedLbl=1;backgroundOutline=1;darkOpacity=0.05;darkOpacity2=0.1;size=128;rotation=90;fillColor=#fff2cc;strokeColor=#d6b656;" parent="1" vertex="1">
          <mxGeometry x="2788.7" y="2010.4099999999999" width="146.32" height="147.11" as="geometry" />
        </mxCell>
        <mxCell id="PbCDE0VkGKf1Zp6z_jMK-1" value="3-1" style="rounded=0;whiteSpace=wrap;html=1;fillColor=#fff2cc;strokeColor=#d6b656;shadow=0;" parent="1" vertex="1">
          <mxGeometry x="1788.8199999999997" y="1446.95" width="19.685" height="779.526" as="geometry" />
        </mxCell>
        <mxCell id="_C2MhGFYFcjA31wV2jwm-49" value="" style="shape=cube;whiteSpace=wrap;html=1;boundedLbl=1;backgroundOutline=1;darkOpacity=0.05;darkOpacity2=0.1;size=128;rotation=90;fillColor=#fff2cc;strokeColor=#d6b656;" parent="1" vertex="1">
          <mxGeometry x="2561.39" y="2010.4099999999999" width="146.32" height="147.11" as="geometry" />
        </mxCell>
        <mxCell id="_C2MhGFYFcjA31wV2jwm-32" value="3-1" style="rounded=0;whiteSpace=wrap;html=1;fillColor=#f5f5f5;strokeColor=#666666;shadow=0;fontColor=#333333;" parent="1" vertex="1">
          <mxGeometry x="2559.9999999999995" y="1450.52" width="19.685" height="779.526" as="geometry" />
        </mxCell>
        <mxCell id="QaqN5k4PvZ0HnCuxRosK-1" value="4-1" style="rounded=0;whiteSpace=wrap;html=1;fillColor=#fff2cc;strokeColor=#d6b656;shadow=0;" parent="1" vertex="1">
          <mxGeometry x="2582.39" y="2136.38" width="229" height="19.68" as="geometry" />
        </mxCell>
        <mxCell id="_C2MhGFYFcjA31wV2jwm-46" value="3-3" style="rounded=0;whiteSpace=wrap;html=1;fillColor=#f5f5f5;strokeColor=#666666;shadow=0;fontColor=#333333;" parent="1" vertex="1">
          <mxGeometry x="3014.07" y="1450.52" width="19.685" height="779.526" as="geometry" />
        </mxCell>
        <mxCell id="QaqN5k4PvZ0HnCuxRosK-4" value="80X60" style="verticalLabelPosition=bottom;verticalAlign=top;html=1;shape=mxgraph.basic.patternFillRect;fillStyle=diagGrid;step=5;fillStrokeWidth=0.2;fillStrokeColor=#dddddd;fillColor=#f5f5f5;strokeColor=#666666;fontColor=#333333;" parent="1" vertex="1">
          <mxGeometry x="2765.75" y="2527.58" width="314.96" height="236.22" as="geometry" />
        </mxCell>
        <mxCell id="QaqN5k4PvZ0HnCuxRosK-5" value="2-1" style="rounded=0;whiteSpace=wrap;html=1;fillColor=#f5f5f5;strokeColor=#666666;shadow=0;fontColor=#333333;" parent="1" vertex="1">
          <mxGeometry x="2608.27" y="2744.1099999999997" width="472.44" height="19.685" as="geometry" />
        </mxCell>
        <mxCell id="QaqN5k4PvZ0HnCuxRosK-6" value="2-2" style="rounded=0;whiteSpace=wrap;html=1;fillColor=#f5f5f5;strokeColor=#666666;shadow=0;fontColor=#333333;" parent="1" vertex="1">
          <mxGeometry x="2608.27" y="2527.1099999999997" width="472.44" height="19.685" as="geometry" />
        </mxCell>
        <mxCell id="QaqN5k4PvZ0HnCuxRosK-7" value="2-3" style="rounded=0;whiteSpace=wrap;html=1;fillColor=#f5f5f5;strokeColor=#666666;shadow=0;rotation=90;fontColor=#333333;" parent="1" vertex="1">
          <mxGeometry x="2500" y="2635.5929999999994" width="236.22" height="19.685" as="geometry" />
        </mxCell>
        <mxCell id="QaqN5k4PvZ0HnCuxRosK-8" value="2-4" style="rounded=0;whiteSpace=wrap;html=1;fillColor=#f5f5f5;strokeColor=#666666;shadow=0;rotation=90;fontColor=#333333;" parent="1" vertex="1">
          <mxGeometry x="2952.76" y="2635.5899999999997" width="236.22" height="19.685" as="geometry" />
        </mxCell>
        <mxCell id="QaqN5k4PvZ0HnCuxRosK-9" value="2-5" style="rounded=0;whiteSpace=wrap;html=1;fillColor=#f5f5f5;strokeColor=#666666;shadow=0;rotation=90;fontColor=#333333;" parent="1" vertex="1">
          <mxGeometry x="2657.4300000000003" y="2635.5899999999997" width="236.22" height="19.685" as="geometry" />
        </mxCell>
        <mxCell id="QaqN5k4PvZ0HnCuxRosK-10" value="3-1" style="rounded=0;whiteSpace=wrap;html=1;fillColor=#f5f5f5;strokeColor=#666666;shadow=0;fontColor=#333333;" parent="1" vertex="1">
          <mxGeometry x="2608.9700000000003" y="2744.1099999999997" width="19.685" height="19.685" as="geometry" />
        </mxCell>
        <mxCell id="QaqN5k4PvZ0HnCuxRosK-11" value="3-2" style="rounded=0;whiteSpace=wrap;html=1;fillColor=#f5f5f5;strokeColor=#666666;shadow=0;fontColor=#333333;" parent="1" vertex="1">
          <mxGeometry x="2608.9700000000003" y="2527.5799999999995" width="19.685" height="19.685" as="geometry" />
        </mxCell>
        <mxCell id="QaqN5k4PvZ0HnCuxRosK-12" value="3-3" style="rounded=0;whiteSpace=wrap;html=1;fillColor=#f5f5f5;strokeColor=#666666;shadow=0;fontColor=#333333;" parent="1" vertex="1">
          <mxGeometry x="3061.73" y="2744.1099999999997" width="19.685" height="19.685" as="geometry" />
        </mxCell>
        <mxCell id="QaqN5k4PvZ0HnCuxRosK-13" value="3-4" style="rounded=0;whiteSpace=wrap;html=1;fillColor=#f5f5f5;strokeColor=#666666;shadow=0;fontColor=#333333;" parent="1" vertex="1">
          <mxGeometry x="3061.73" y="2527.5799999999995" width="19.685" height="19.685" as="geometry" />
        </mxCell>
        <mxCell id="QaqN5k4PvZ0HnCuxRosK-14" value="3-5" style="rounded=0;whiteSpace=wrap;html=1;fillColor=#f5f5f5;strokeColor=#666666;shadow=0;fontColor=#333333;" parent="1" vertex="1">
          <mxGeometry x="2765.7" y="2744.12" width="19.685" height="19.685" as="geometry" />
        </mxCell>
        <mxCell id="QaqN5k4PvZ0HnCuxRosK-15" value="3-6" style="rounded=0;whiteSpace=wrap;html=1;fillColor=#f5f5f5;strokeColor=#666666;shadow=0;fontColor=#333333;" parent="1" vertex="1">
          <mxGeometry x="2765.75" y="2527.58" width="19.685" height="19.685" as="geometry" />
        </mxCell>
        <mxCell id="QaqN5k4PvZ0HnCuxRosK-17" value="4-2" style="rounded=0;whiteSpace=wrap;html=1;fillColor=#fff2cc;strokeColor=#d6b656;shadow=0;" parent="1" vertex="1">
          <mxGeometry x="2628.66" y="2527.58" width="157.48" height="19.68" as="geometry" />
        </mxCell>
        <mxCell id="QaqN5k4PvZ0HnCuxRosK-18" value="4-1" style="rounded=0;whiteSpace=wrap;html=1;fillColor=#fff2cc;strokeColor=#d6b656;shadow=0;" parent="1" vertex="1">
          <mxGeometry x="2629.83" y="2743.65" width="157.48" height="19.68" as="geometry" />
        </mxCell>
        <mxCell id="QaqN5k4PvZ0HnCuxRosK-19" value="4-3" style="rounded=0;whiteSpace=wrap;html=1;fillColor=#fff2cc;strokeColor=#d6b656;shadow=0;rotation=90;" parent="1" vertex="1">
          <mxGeometry x="2520.39" y="2634.63" width="196.85" height="19.685" as="geometry" />
        </mxCell>
        <mxCell id="QaqN5k4PvZ0HnCuxRosK-21" value="4-2&amp;nbsp; &amp;nbsp; &amp;nbsp; &amp;nbsp; &amp;nbsp; &amp;nbsp; &amp;nbsp; &amp;nbsp; &amp;nbsp; &amp;nbsp; &amp;nbsp; &amp;nbsp; &amp;nbsp; &amp;nbsp; &amp;nbsp;" style="rounded=0;whiteSpace=wrap;html=1;fillColor=#f5f5f5;strokeColor=#666666;shadow=0;fontColor=#333333;" parent="1" vertex="1">
          <mxGeometry x="3622.91" y="1985.84" width="222.36" height="19.69" as="geometry" />
        </mxCell>
        <mxCell id="QaqN5k4PvZ0HnCuxRosK-22" value="3-4" style="rounded=0;whiteSpace=wrap;html=1;fillColor=#f5f5f5;strokeColor=#666666;shadow=0;fontColor=#333333;" parent="1" vertex="1">
          <mxGeometry x="4055.98" y="1299.9999999999998" width="19.685" height="779.526" as="geometry" />
        </mxCell>
        <mxCell id="QaqN5k4PvZ0HnCuxRosK-23" value="3-6" style="rounded=0;whiteSpace=wrap;html=1;fillColor=#f5f5f5;strokeColor=#666666;shadow=0;fontColor=#333333;" parent="1" vertex="1">
          <mxGeometry x="3829.21" y="2005.0399999999997" width="19.685" height="78.74" as="geometry" />
        </mxCell>
        <mxCell id="QaqN5k4PvZ0HnCuxRosK-24" value="1-2" style="rounded=0;whiteSpace=wrap;html=1;fillColor=#f5f5f5;shadow=0;strokeColor=#666666;fontColor=#333333;" parent="1" vertex="1">
          <mxGeometry x="3603.22" y="2117.2800000000007" width="19.685" height="78.74" as="geometry" />
        </mxCell>
        <mxCell id="QaqN5k4PvZ0HnCuxRosK-25" value="2-1" style="rounded=0;whiteSpace=wrap;html=1;fillColor=#f5f5f5;strokeColor=#666666;shadow=0;fontColor=#333333;" parent="1" vertex="1">
          <mxGeometry x="3475.27" y="2226.9600000000005" width="472.44" height="19.685" as="geometry" />
        </mxCell>
        <mxCell id="QaqN5k4PvZ0HnCuxRosK-26" value="1-3" style="rounded=0;whiteSpace=wrap;html=1;fillColor=#f5f5f5;shadow=0;strokeColor=#666666;fontColor=#333333;" parent="1" vertex="1">
          <mxGeometry x="3928.0299999999997" y="2246.65" width="19.685" height="78.74" as="geometry" />
        </mxCell>
        <mxCell id="QaqN5k4PvZ0HnCuxRosK-27" value="1-1" style="rounded=0;whiteSpace=wrap;html=1;fillColor=#f5f5f5;shadow=0;strokeColor=#666666;fontColor=#333333;" parent="1" vertex="1">
          <mxGeometry x="3475.27" y="2246.65" width="19.685" height="78.74" as="geometry" />
        </mxCell>
        <mxCell id="QaqN5k4PvZ0HnCuxRosK-28" value="1-4" style="rounded=0;whiteSpace=wrap;html=1;fillColor=#f5f5f5;shadow=0;strokeColor=#666666;fontColor=#333333;" parent="1" vertex="1">
          <mxGeometry x="4055.97" y="2117.28" width="19.685" height="78.74" as="geometry" />
        </mxCell>
        <mxCell id="QaqN5k4PvZ0HnCuxRosK-29" value="2-2" style="rounded=0;whiteSpace=wrap;html=1;fillColor=#f5f5f5;strokeColor=#666666;shadow=0;fontColor=#333333;" parent="1" vertex="1">
          <mxGeometry x="3603.22" y="2097.9" width="472.44" height="19.685" as="geometry" />
        </mxCell>
        <mxCell id="QaqN5k4PvZ0HnCuxRosK-30" value="" style="shape=parallelogram;perimeter=parallelogramPerimeter;whiteSpace=wrap;html=1;fixedSize=1;size=123.77999999999975;fillStyle=cross-hatch;fillColor=#f5f5f5;fontColor=#333333;strokeColor=#666666;" parent="1" vertex="1">
          <mxGeometry x="3697.65" y="2106.9500000000003" width="373.78" height="119.7" as="geometry" />
        </mxCell>
        <mxCell id="QaqN5k4PvZ0HnCuxRosK-31" value="" style="shape=cube;whiteSpace=wrap;html=1;boundedLbl=1;backgroundOutline=1;darkOpacity=0.05;darkOpacity2=0.1;size=128;rotation=90;fillColor=#f5f5f5;strokeColor=#666666;fontColor=#333333;" parent="1" vertex="1">
          <mxGeometry x="3475.27" y="2079.53" width="146.32" height="147.11" as="geometry" />
        </mxCell>
        <mxCell id="QaqN5k4PvZ0HnCuxRosK-32" value="" style="shape=cube;whiteSpace=wrap;html=1;boundedLbl=1;backgroundOutline=1;darkOpacity=0.05;darkOpacity2=0.1;size=128;rotation=90;fillColor=#f5f5f5;strokeColor=#666666;fontColor=#333333;" parent="1" vertex="1">
          <mxGeometry x="3701.65" y="2083.0900000000006" width="146.32" height="147.11" as="geometry" />
        </mxCell>
        <mxCell id="QaqN5k4PvZ0HnCuxRosK-33" value="" style="shape=cube;whiteSpace=wrap;html=1;boundedLbl=1;backgroundOutline=1;darkOpacity=0.05;darkOpacity2=0.1;size=128;rotation=90;fillColor=#f5f5f5;strokeColor=#666666;fontColor=#333333;" parent="1" vertex="1">
          <mxGeometry x="3929.34" y="2079.850000000001" width="146.32" height="147.11" as="geometry" />
        </mxCell>
        <mxCell id="QaqN5k4PvZ0HnCuxRosK-34" value="3-5" style="rounded=0;whiteSpace=wrap;html=1;fillColor=#f5f5f5;strokeColor=#666666;shadow=0;fontColor=#333333;" parent="1" vertex="1">
          <mxGeometry x="3701.65" y="2131.9500000000003" width="19.685" height="78.74" as="geometry" />
        </mxCell>
        <mxCell id="QaqN5k4PvZ0HnCuxRosK-35" value="3-2" style="rounded=0;whiteSpace=wrap;html=1;fillColor=#f5f5f5;strokeColor=#666666;shadow=0;fontColor=#333333;" parent="1" vertex="1">
          <mxGeometry x="3601.9" y="1303.5699999999997" width="19.685" height="779.526" as="geometry" />
        </mxCell>
        <mxCell id="QaqN5k4PvZ0HnCuxRosK-36" value="" style="shape=cube;whiteSpace=wrap;html=1;boundedLbl=1;backgroundOutline=1;darkOpacity=0.05;darkOpacity2=0.1;size=128;rotation=90;fillColor=#f5f5f5;strokeColor=#666666;fontColor=#333333;" parent="1" vertex="1">
          <mxGeometry x="3702.58" y="1985.8399999999997" width="146.32" height="147.11" as="geometry" />
        </mxCell>
        <mxCell id="QaqN5k4PvZ0HnCuxRosK-37" value="" style="shape=cube;whiteSpace=wrap;html=1;boundedLbl=1;backgroundOutline=1;darkOpacity=0.05;darkOpacity2=0.1;size=128;rotation=90;fillColor=#f5f5f5;strokeColor=#666666;fontColor=#333333;" parent="1" vertex="1">
          <mxGeometry x="3475.27" y="1985.8399999999997" width="146.32" height="147.11" as="geometry" />
        </mxCell>
        <mxCell id="QaqN5k4PvZ0HnCuxRosK-38" value="3-1" style="rounded=0;whiteSpace=wrap;html=1;fillColor=#f5f5f5;strokeColor=#666666;shadow=0;fontColor=#333333;" parent="1" vertex="1">
          <mxGeometry x="3475.2699999999995" y="1426.9499999999998" width="19.685" height="779.526" as="geometry" />
        </mxCell>
        <mxCell id="QaqN5k4PvZ0HnCuxRosK-39" value="4-1" style="rounded=0;whiteSpace=wrap;html=1;fillColor=#f5f5f5;strokeColor=#666666;shadow=0;fontColor=#333333;" parent="1" vertex="1">
          <mxGeometry x="3496.27" y="2111.8100000000004" width="229" height="19.68" as="geometry" />
        </mxCell>
        <mxCell id="QaqN5k4PvZ0HnCuxRosK-40" value="3-3" style="rounded=0;whiteSpace=wrap;html=1;fillColor=#f5f5f5;strokeColor=#666666;shadow=0;fontColor=#333333;" parent="1" vertex="1">
          <mxGeometry x="3929.34" y="1426.9499999999998" width="19.685" height="779.526" as="geometry" />
        </mxCell>
        <mxCell id="QaqN5k4PvZ0HnCuxRosK-41" value="80X60" style="verticalLabelPosition=bottom;verticalAlign=top;html=1;shape=mxgraph.basic.patternFillRect;fillStyle=diagGrid;step=5;fillStrokeWidth=0.2;fillStrokeColor=#dddddd;fillColor=#f5f5f5;strokeColor=#666666;fontColor=#333333;" parent="1" vertex="1">
          <mxGeometry x="3632.75" y="2500.91" width="314.96" height="236.22" as="geometry" />
        </mxCell>
        <mxCell id="QaqN5k4PvZ0HnCuxRosK-42" value="2-1" style="rounded=0;whiteSpace=wrap;html=1;fillColor=#f5f5f5;strokeColor=#666666;shadow=0;fontColor=#333333;" parent="1" vertex="1">
          <mxGeometry x="3475.27" y="2717.4399999999996" width="472.44" height="19.685" as="geometry" />
        </mxCell>
        <mxCell id="QaqN5k4PvZ0HnCuxRosK-43" value="2-2" style="rounded=0;whiteSpace=wrap;html=1;fillColor=#f5f5f5;strokeColor=#666666;shadow=0;fontColor=#333333;" parent="1" vertex="1">
          <mxGeometry x="3475.27" y="2500.4399999999996" width="472.44" height="19.685" as="geometry" />
        </mxCell>
        <mxCell id="QaqN5k4PvZ0HnCuxRosK-44" value="2-3" style="rounded=0;whiteSpace=wrap;html=1;fillColor=#f5f5f5;strokeColor=#666666;shadow=0;rotation=90;fontColor=#333333;" parent="1" vertex="1">
          <mxGeometry x="3367" y="2608.9229999999993" width="236.22" height="19.685" as="geometry" />
        </mxCell>
        <mxCell id="QaqN5k4PvZ0HnCuxRosK-45" value="2-4" style="rounded=0;whiteSpace=wrap;html=1;fillColor=#f5f5f5;strokeColor=#666666;shadow=0;rotation=90;fontColor=#333333;" parent="1" vertex="1">
          <mxGeometry x="3819.76" y="2608.9199999999996" width="236.22" height="19.685" as="geometry" />
        </mxCell>
        <mxCell id="QaqN5k4PvZ0HnCuxRosK-46" value="2-5" style="rounded=0;whiteSpace=wrap;html=1;fillColor=#f5f5f5;strokeColor=#666666;shadow=0;rotation=90;fontColor=#333333;" parent="1" vertex="1">
          <mxGeometry x="3524.4300000000003" y="2608.9199999999996" width="236.22" height="19.685" as="geometry" />
        </mxCell>
        <mxCell id="QaqN5k4PvZ0HnCuxRosK-47" value="3-1" style="rounded=0;whiteSpace=wrap;html=1;fillColor=#f5f5f5;strokeColor=#666666;shadow=0;fontColor=#333333;" parent="1" vertex="1">
          <mxGeometry x="3475.9700000000003" y="2717.4399999999996" width="19.685" height="19.685" as="geometry" />
        </mxCell>
        <mxCell id="QaqN5k4PvZ0HnCuxRosK-48" value="3-2" style="rounded=0;whiteSpace=wrap;html=1;fillColor=#f5f5f5;strokeColor=#666666;shadow=0;fontColor=#333333;" parent="1" vertex="1">
          <mxGeometry x="3475.9700000000003" y="2500.9099999999994" width="19.685" height="19.685" as="geometry" />
        </mxCell>
        <mxCell id="QaqN5k4PvZ0HnCuxRosK-49" value="3-3" style="rounded=0;whiteSpace=wrap;html=1;fillColor=#f5f5f5;strokeColor=#666666;shadow=0;fontColor=#333333;" parent="1" vertex="1">
          <mxGeometry x="3928.73" y="2717.4399999999996" width="19.685" height="19.685" as="geometry" />
        </mxCell>
        <mxCell id="QaqN5k4PvZ0HnCuxRosK-50" value="3-4" style="rounded=0;whiteSpace=wrap;html=1;fillColor=#f5f5f5;strokeColor=#666666;shadow=0;fontColor=#333333;" parent="1" vertex="1">
          <mxGeometry x="3928.73" y="2500.9099999999994" width="19.685" height="19.685" as="geometry" />
        </mxCell>
        <mxCell id="QaqN5k4PvZ0HnCuxRosK-51" value="3-5" style="rounded=0;whiteSpace=wrap;html=1;fillColor=#f5f5f5;strokeColor=#666666;shadow=0;fontColor=#333333;" parent="1" vertex="1">
          <mxGeometry x="3632.7" y="2717.45" width="19.685" height="19.685" as="geometry" />
        </mxCell>
        <mxCell id="QaqN5k4PvZ0HnCuxRosK-52" value="3-6" style="rounded=0;whiteSpace=wrap;html=1;fillColor=#f5f5f5;strokeColor=#666666;shadow=0;fontColor=#333333;" parent="1" vertex="1">
          <mxGeometry x="3632.75" y="2500.91" width="19.685" height="19.685" as="geometry" />
        </mxCell>
        <mxCell id="QaqN5k4PvZ0HnCuxRosK-53" value="4-2" style="rounded=0;whiteSpace=wrap;html=1;fillColor=#f5f5f5;strokeColor=#666666;shadow=0;fontColor=#333333;" parent="1" vertex="1">
          <mxGeometry x="3495.66" y="2500.91" width="157.48" height="19.68" as="geometry" />
        </mxCell>
        <mxCell id="QaqN5k4PvZ0HnCuxRosK-54" value="4-1" style="rounded=0;whiteSpace=wrap;html=1;fillColor=#f5f5f5;strokeColor=#666666;shadow=0;fontColor=#333333;" parent="1" vertex="1">
          <mxGeometry x="3495.66" y="2717.45" width="157.48" height="19.68" as="geometry" />
        </mxCell>
        <mxCell id="QaqN5k4PvZ0HnCuxRosK-55" value="4-3" style="rounded=0;whiteSpace=wrap;html=1;fillColor=#f5f5f5;strokeColor=#666666;shadow=0;rotation=90;fontColor=#333333;" parent="1" vertex="1">
          <mxGeometry x="3387.39" y="2608.44" width="196.85" height="19.685" as="geometry" />
        </mxCell>
        <mxCell id="QaqN5k4PvZ0HnCuxRosK-56" value="5-1" style="rounded=0;whiteSpace=wrap;html=1;fillColor=#fff2cc;strokeColor=#d6b656;shadow=0;" parent="1" vertex="1">
          <mxGeometry x="3705.58" y="2033.0699999999997" width="19.685" height="78.74" as="geometry" />
        </mxCell>
        <mxCell id="QaqN5k4PvZ0HnCuxRosK-57" value="5-2" style="rounded=0;whiteSpace=wrap;html=1;fillColor=#fff2cc;strokeColor=#d6b656;shadow=0;" parent="1" vertex="1">
          <mxGeometry x="3829.6" y="1906.7599999999998" width="19.685" height="78.74" as="geometry" />
        </mxCell>
        <mxCell id="QaqN5k4PvZ0HnCuxRosK-58" value="5-2" style="rounded=0;whiteSpace=wrap;html=1;fillColor=#fff2cc;strokeColor=#d6b656;shadow=0;" parent="1" vertex="1">
          <mxGeometry x="3632.7500000000005" y="2500.9099999999994" width="19.685" height="19.685" as="geometry" />
        </mxCell>
        <mxCell id="QaqN5k4PvZ0HnCuxRosK-59" value="5-1" style="rounded=0;whiteSpace=wrap;html=1;fillColor=#fff2cc;strokeColor=#d6b656;shadow=0;" parent="1" vertex="1">
          <mxGeometry x="3632.7000000000003" y="2716.9699999999993" width="19.685" height="19.685" as="geometry" />
        </mxCell>
        <mxCell id="QaqN5k4PvZ0HnCuxRosK-60" value="4-2&amp;nbsp; &amp;nbsp; &amp;nbsp; &amp;nbsp; &amp;nbsp; &amp;nbsp; &amp;nbsp; &amp;nbsp; &amp;nbsp; &amp;nbsp; &amp;nbsp; &amp;nbsp; &amp;nbsp; &amp;nbsp; &amp;nbsp;" style="rounded=0;whiteSpace=wrap;html=1;fillColor=#f5f5f5;strokeColor=#666666;shadow=0;fontColor=#333333;" parent="1" vertex="1">
          <mxGeometry x="4449.91" y="1994.3400000000001" width="222.36" height="19.69" as="geometry" />
        </mxCell>
        <mxCell id="QaqN5k4PvZ0HnCuxRosK-61" value="3-4" style="rounded=0;whiteSpace=wrap;html=1;fillColor=#f5f5f5;strokeColor=#666666;shadow=0;fontColor=#333333;" parent="1" vertex="1">
          <mxGeometry x="4882.98" y="1306.4999999999998" width="19.685" height="779.526" as="geometry" />
        </mxCell>
        <mxCell id="QaqN5k4PvZ0HnCuxRosK-62" value="3-6" style="rounded=0;whiteSpace=wrap;html=1;fillColor=#f5f5f5;strokeColor=#666666;shadow=0;fontColor=#333333;" parent="1" vertex="1">
          <mxGeometry x="4656.21" y="2005.54" width="19.685" height="78.74" as="geometry" />
        </mxCell>
        <mxCell id="QaqN5k4PvZ0HnCuxRosK-63" value="1-2" style="rounded=0;whiteSpace=wrap;html=1;fillColor=#f5f5f5;shadow=0;strokeColor=#666666;fontColor=#333333;" parent="1" vertex="1">
          <mxGeometry x="4430.219999999999" y="2123.7800000000007" width="19.685" height="78.74" as="geometry" />
        </mxCell>
        <mxCell id="QaqN5k4PvZ0HnCuxRosK-64" value="2-1" style="rounded=0;whiteSpace=wrap;html=1;fillColor=#f5f5f5;strokeColor=#666666;shadow=0;fontColor=#333333;" parent="1" vertex="1">
          <mxGeometry x="4302.27" y="2233.4600000000005" width="472.44" height="19.685" as="geometry" />
        </mxCell>
        <mxCell id="QaqN5k4PvZ0HnCuxRosK-65" value="1-3" style="rounded=0;whiteSpace=wrap;html=1;fillColor=#f5f5f5;shadow=0;strokeColor=#666666;fontColor=#333333;" parent="1" vertex="1">
          <mxGeometry x="4755.03" y="2253.15" width="19.685" height="78.74" as="geometry" />
        </mxCell>
        <mxCell id="QaqN5k4PvZ0HnCuxRosK-66" value="1-1" style="rounded=0;whiteSpace=wrap;html=1;fillColor=#f5f5f5;shadow=0;strokeColor=#666666;fontColor=#333333;" parent="1" vertex="1">
          <mxGeometry x="4302.27" y="2253.15" width="19.685" height="78.74" as="geometry" />
        </mxCell>
        <mxCell id="QaqN5k4PvZ0HnCuxRosK-67" value="1-4" style="rounded=0;whiteSpace=wrap;html=1;fillColor=#f5f5f5;shadow=0;strokeColor=#666666;fontColor=#333333;" parent="1" vertex="1">
          <mxGeometry x="4882.969999999999" y="2123.78" width="19.685" height="78.74" as="geometry" />
        </mxCell>
        <mxCell id="QaqN5k4PvZ0HnCuxRosK-68" value="2-2" style="rounded=0;whiteSpace=wrap;html=1;fillColor=#f5f5f5;strokeColor=#666666;shadow=0;fontColor=#333333;" parent="1" vertex="1">
          <mxGeometry x="4430.219999999999" y="2104.4" width="472.44" height="19.685" as="geometry" />
        </mxCell>
        <mxCell id="QaqN5k4PvZ0HnCuxRosK-69" value="" style="shape=parallelogram;perimeter=parallelogramPerimeter;whiteSpace=wrap;html=1;fixedSize=1;size=123.77999999999975;fillStyle=cross-hatch;fillColor=#f5f5f5;fontColor=#333333;strokeColor=#666666;" parent="1" vertex="1">
          <mxGeometry x="4524.65" y="2113.4500000000003" width="373.78" height="119.7" as="geometry" />
        </mxCell>
        <mxCell id="QaqN5k4PvZ0HnCuxRosK-70" value="" style="shape=cube;whiteSpace=wrap;html=1;boundedLbl=1;backgroundOutline=1;darkOpacity=0.05;darkOpacity2=0.1;size=128;rotation=90;fillColor=#f5f5f5;strokeColor=#666666;fontColor=#333333;" parent="1" vertex="1">
          <mxGeometry x="4302.27" y="2086.03" width="146.32" height="147.11" as="geometry" />
        </mxCell>
        <mxCell id="QaqN5k4PvZ0HnCuxRosK-71" value="" style="shape=cube;whiteSpace=wrap;html=1;boundedLbl=1;backgroundOutline=1;darkOpacity=0.05;darkOpacity2=0.1;size=128;rotation=90;fillColor=#f5f5f5;strokeColor=#666666;fontColor=#333333;" parent="1" vertex="1">
          <mxGeometry x="4528.65" y="2089.5900000000006" width="146.32" height="147.11" as="geometry" />
        </mxCell>
        <mxCell id="QaqN5k4PvZ0HnCuxRosK-72" value="" style="shape=cube;whiteSpace=wrap;html=1;boundedLbl=1;backgroundOutline=1;darkOpacity=0.05;darkOpacity2=0.1;size=128;rotation=90;fillColor=#f5f5f5;strokeColor=#666666;fontColor=#333333;" parent="1" vertex="1">
          <mxGeometry x="4756.34" y="2086.350000000001" width="146.32" height="147.11" as="geometry" />
        </mxCell>
        <mxCell id="QaqN5k4PvZ0HnCuxRosK-73" value="3-5" style="rounded=0;whiteSpace=wrap;html=1;fillColor=#f5f5f5;strokeColor=#666666;shadow=0;fontColor=#333333;" parent="1" vertex="1">
          <mxGeometry x="4528.65" y="2138.4500000000003" width="19.685" height="78.74" as="geometry" />
        </mxCell>
        <mxCell id="QaqN5k4PvZ0HnCuxRosK-74" value="3-2" style="rounded=0;whiteSpace=wrap;html=1;fillColor=#f5f5f5;strokeColor=#666666;shadow=0;fontColor=#333333;" parent="1" vertex="1">
          <mxGeometry x="4428.9" y="1310.0699999999997" width="19.685" height="779.526" as="geometry" />
        </mxCell>
        <mxCell id="QaqN5k4PvZ0HnCuxRosK-75" value="" style="shape=cube;whiteSpace=wrap;html=1;boundedLbl=1;backgroundOutline=1;darkOpacity=0.05;darkOpacity2=0.1;size=128;rotation=90;fillColor=#f5f5f5;strokeColor=#666666;fontColor=#333333;" parent="1" vertex="1">
          <mxGeometry x="4529.58" y="1994.3399999999997" width="146.32" height="147.11" as="geometry" />
        </mxCell>
        <mxCell id="QaqN5k4PvZ0HnCuxRosK-76" value="" style="shape=cube;whiteSpace=wrap;html=1;boundedLbl=1;backgroundOutline=1;darkOpacity=0.05;darkOpacity2=0.1;size=128;rotation=90;fillColor=#f5f5f5;strokeColor=#666666;fontColor=#333333;" parent="1" vertex="1">
          <mxGeometry x="4302.27" y="1994.3399999999997" width="146.32" height="147.11" as="geometry" />
        </mxCell>
        <mxCell id="QaqN5k4PvZ0HnCuxRosK-78" value="4-1" style="rounded=0;whiteSpace=wrap;html=1;fillColor=#f5f5f5;strokeColor=#666666;shadow=0;fontColor=#333333;" parent="1" vertex="1">
          <mxGeometry x="4323.27" y="2120.3100000000004" width="229" height="19.68" as="geometry" />
        </mxCell>
        <mxCell id="QaqN5k4PvZ0HnCuxRosK-79" value="3-3" style="rounded=0;whiteSpace=wrap;html=1;fillColor=#f5f5f5;strokeColor=#666666;shadow=0;fontColor=#333333;" parent="1" vertex="1">
          <mxGeometry x="4756.34" y="1433.4499999999998" width="19.685" height="779.526" as="geometry" />
        </mxCell>
        <mxCell id="QaqN5k4PvZ0HnCuxRosK-80" value="80X60" style="verticalLabelPosition=bottom;verticalAlign=top;html=1;shape=mxgraph.basic.patternFillRect;fillStyle=diagGrid;step=5;fillStrokeWidth=0.2;fillStrokeColor=#dddddd;fillColor=#f5f5f5;strokeColor=#666666;fontColor=#333333;" parent="1" vertex="1">
          <mxGeometry x="4459.75" y="2507.41" width="314.96" height="236.22" as="geometry" />
        </mxCell>
        <mxCell id="QaqN5k4PvZ0HnCuxRosK-81" value="2-1" style="rounded=0;whiteSpace=wrap;html=1;fillColor=#f5f5f5;strokeColor=#666666;shadow=0;fontColor=#333333;" parent="1" vertex="1">
          <mxGeometry x="4302.27" y="2723.9399999999996" width="472.44" height="19.685" as="geometry" />
        </mxCell>
        <mxCell id="QaqN5k4PvZ0HnCuxRosK-82" value="2-2" style="rounded=0;whiteSpace=wrap;html=1;fillColor=#f5f5f5;strokeColor=#666666;shadow=0;fontColor=#333333;" parent="1" vertex="1">
          <mxGeometry x="4302.27" y="2506.9399999999996" width="472.44" height="19.685" as="geometry" />
        </mxCell>
        <mxCell id="QaqN5k4PvZ0HnCuxRosK-83" value="2-3" style="rounded=0;whiteSpace=wrap;html=1;fillColor=#f5f5f5;strokeColor=#666666;shadow=0;rotation=90;fontColor=#333333;" parent="1" vertex="1">
          <mxGeometry x="4194" y="2615.4229999999993" width="236.22" height="19.685" as="geometry" />
        </mxCell>
        <mxCell id="QaqN5k4PvZ0HnCuxRosK-84" value="2-4" style="rounded=0;whiteSpace=wrap;html=1;fillColor=#f5f5f5;strokeColor=#666666;shadow=0;rotation=90;fontColor=#333333;" parent="1" vertex="1">
          <mxGeometry x="4646.76" y="2615.4199999999996" width="236.22" height="19.685" as="geometry" />
        </mxCell>
        <mxCell id="QaqN5k4PvZ0HnCuxRosK-85" value="2-5" style="rounded=0;whiteSpace=wrap;html=1;fillColor=#f5f5f5;strokeColor=#666666;shadow=0;rotation=90;fontColor=#333333;" parent="1" vertex="1">
          <mxGeometry x="4351.43" y="2615.4199999999996" width="236.22" height="19.685" as="geometry" />
        </mxCell>
        <mxCell id="QaqN5k4PvZ0HnCuxRosK-86" value="3-1" style="rounded=0;whiteSpace=wrap;html=1;fillColor=#f5f5f5;strokeColor=#666666;shadow=0;fontColor=#333333;" parent="1" vertex="1">
          <mxGeometry x="4302.97" y="2723.9399999999996" width="19.685" height="19.685" as="geometry" />
        </mxCell>
        <mxCell id="QaqN5k4PvZ0HnCuxRosK-87" value="3-2" style="rounded=0;whiteSpace=wrap;html=1;fillColor=#f5f5f5;strokeColor=#666666;shadow=0;fontColor=#333333;" parent="1" vertex="1">
          <mxGeometry x="4302.97" y="2507.4099999999994" width="19.685" height="19.685" as="geometry" />
        </mxCell>
        <mxCell id="QaqN5k4PvZ0HnCuxRosK-88" value="3-3" style="rounded=0;whiteSpace=wrap;html=1;fillColor=#f5f5f5;strokeColor=#666666;shadow=0;fontColor=#333333;" parent="1" vertex="1">
          <mxGeometry x="4755.73" y="2723.9399999999996" width="19.685" height="19.685" as="geometry" />
        </mxCell>
        <mxCell id="QaqN5k4PvZ0HnCuxRosK-89" value="3-4" style="rounded=0;whiteSpace=wrap;html=1;fillColor=#f5f5f5;strokeColor=#666666;shadow=0;fontColor=#333333;" parent="1" vertex="1">
          <mxGeometry x="4755.73" y="2507.4099999999994" width="19.685" height="19.685" as="geometry" />
        </mxCell>
        <mxCell id="QaqN5k4PvZ0HnCuxRosK-90" value="3-5" style="rounded=0;whiteSpace=wrap;html=1;fillColor=#f5f5f5;strokeColor=#666666;shadow=0;fontColor=#333333;" parent="1" vertex="1">
          <mxGeometry x="4459.7" y="2723.95" width="19.685" height="19.685" as="geometry" />
        </mxCell>
        <mxCell id="QaqN5k4PvZ0HnCuxRosK-91" value="3-6" style="rounded=0;whiteSpace=wrap;html=1;fillColor=#f5f5f5;strokeColor=#666666;shadow=0;fontColor=#333333;" parent="1" vertex="1">
          <mxGeometry x="4459.75" y="2507.41" width="19.685" height="19.685" as="geometry" />
        </mxCell>
        <mxCell id="QaqN5k4PvZ0HnCuxRosK-92" value="4-2" style="rounded=0;whiteSpace=wrap;html=1;fillColor=#f5f5f5;strokeColor=#666666;shadow=0;fontColor=#333333;" parent="1" vertex="1">
          <mxGeometry x="4322.66" y="2507.41" width="157.48" height="19.68" as="geometry" />
        </mxCell>
        <mxCell id="QaqN5k4PvZ0HnCuxRosK-93" value="4-1" style="rounded=0;whiteSpace=wrap;html=1;fillColor=#f5f5f5;strokeColor=#666666;shadow=0;fontColor=#333333;" parent="1" vertex="1">
          <mxGeometry x="4322.66" y="2723.95" width="157.48" height="19.68" as="geometry" />
        </mxCell>
        <mxCell id="QaqN5k4PvZ0HnCuxRosK-94" value="4-3" style="rounded=0;whiteSpace=wrap;html=1;fillColor=#f5f5f5;strokeColor=#666666;shadow=0;rotation=90;fontColor=#333333;" parent="1" vertex="1">
          <mxGeometry x="4214.389999999999" y="2614.94" width="196.85" height="19.685" as="geometry" />
        </mxCell>
        <mxCell id="QaqN5k4PvZ0HnCuxRosK-95" value="5-1" style="rounded=0;whiteSpace=wrap;html=1;fillColor=#f5f5f5;strokeColor=#666666;shadow=0;fontColor=#333333;" parent="1" vertex="1">
          <mxGeometry x="4532.58" y="2043.2599999999998" width="19.685" height="78.74" as="geometry" />
        </mxCell>
        <mxCell id="QaqN5k4PvZ0HnCuxRosK-96" value="5-2" style="rounded=0;whiteSpace=wrap;html=1;fillColor=#f5f5f5;strokeColor=#666666;shadow=0;fontColor=#333333;" parent="1" vertex="1">
          <mxGeometry x="4656.6" y="1917.2899999999997" width="19.685" height="78.74" as="geometry" />
        </mxCell>
        <mxCell id="QaqN5k4PvZ0HnCuxRosK-97" value="5-2" style="rounded=0;whiteSpace=wrap;html=1;fillColor=#f5f5f5;strokeColor=#666666;shadow=0;fontColor=#333333;" parent="1" vertex="1">
          <mxGeometry x="4459.75" y="2507.4099999999994" width="19.685" height="19.685" as="geometry" />
        </mxCell>
        <mxCell id="QaqN5k4PvZ0HnCuxRosK-98" value="5-1" style="rounded=0;whiteSpace=wrap;html=1;fillColor=#f5f5f5;strokeColor=#666666;shadow=0;fontColor=#333333;" parent="1" vertex="1">
          <mxGeometry x="4459.700000000001" y="2723.4699999999993" width="19.685" height="19.685" as="geometry" />
        </mxCell>
        <mxCell id="QaqN5k4PvZ0HnCuxRosK-99" value="6-2" style="rounded=0;whiteSpace=wrap;html=1;fillColor=#fff2cc;strokeColor=#d6b656;shadow=0;" parent="1" vertex="1">
          <mxGeometry x="4450.290000000001" y="1896.15" width="222.36" height="19.69" as="geometry" />
        </mxCell>
        <mxCell id="QaqN5k4PvZ0HnCuxRosK-100" value="" style="shape=cube;whiteSpace=wrap;html=1;boundedLbl=1;backgroundOutline=1;darkOpacity=0.05;darkOpacity2=0.1;size=128;rotation=90;fillColor=#fff2cc;strokeColor=#d6b656;" parent="1" vertex="1">
          <mxGeometry x="4529.960000000001" y="1896.1499999999996" width="146.32" height="147.11" as="geometry" />
        </mxCell>
        <mxCell id="QaqN5k4PvZ0HnCuxRosK-102" value="4-4" style="rounded=0;whiteSpace=wrap;html=1;fillColor=#fff2cc;strokeColor=#d6b656;shadow=0;rotation=90;" parent="1" vertex="1">
          <mxGeometry x="2677.12" y="2635.59" width="196.85" height="19.685" as="geometry" />
        </mxCell>
        <mxCell id="QaqN5k4PvZ0HnCuxRosK-103" value="6-2" style="rounded=0;whiteSpace=wrap;html=1;fillColor=#fff2cc;strokeColor=#d6b656;shadow=0;" parent="1" vertex="1">
          <mxGeometry x="4321.95" y="2506.95" width="157.48" height="19.68" as="geometry" />
        </mxCell>
        <mxCell id="QaqN5k4PvZ0HnCuxRosK-104" value="6-1" style="rounded=0;whiteSpace=wrap;html=1;fillColor=#fff2cc;strokeColor=#d6b656;shadow=0;" parent="1" vertex="1">
          <mxGeometry x="4323.12" y="2723.02" width="157.48" height="19.68" as="geometry" />
        </mxCell>
        <mxCell id="QaqN5k4PvZ0HnCuxRosK-105" value="6-3" style="rounded=0;whiteSpace=wrap;html=1;fillColor=#fff2cc;strokeColor=#d6b656;shadow=0;rotation=90;" parent="1" vertex="1">
          <mxGeometry x="4370.41" y="2614.96" width="196.85" height="19.685" as="geometry" />
        </mxCell>
        <mxCell id="QaqN5k4PvZ0HnCuxRosK-126" value="80X60" style="verticalLabelPosition=bottom;verticalAlign=top;html=1;shape=mxgraph.basic.patternFillRect;fillStyle=diagGrid;step=5;fillStrokeWidth=0.2;fillStrokeColor=#dddddd;fillColor=#f5f5f5;strokeColor=#666666;fontColor=#333333;" parent="1" vertex="1">
          <mxGeometry x="5286.75" y="2507.8799999999997" width="314.96" height="236.22" as="geometry" />
        </mxCell>
        <mxCell id="QaqN5k4PvZ0HnCuxRosK-127" value="2-1" style="rounded=0;whiteSpace=wrap;html=1;fillColor=#f5f5f5;strokeColor=#666666;shadow=0;fontColor=#333333;" parent="1" vertex="1">
          <mxGeometry x="5129.27" y="2724.4099999999994" width="472.44" height="19.685" as="geometry" />
        </mxCell>
        <mxCell id="QaqN5k4PvZ0HnCuxRosK-128" value="2-2" style="rounded=0;whiteSpace=wrap;html=1;fillColor=#f5f5f5;strokeColor=#666666;shadow=0;fontColor=#333333;" parent="1" vertex="1">
          <mxGeometry x="5129.27" y="2507.4099999999994" width="472.44" height="19.685" as="geometry" />
        </mxCell>
        <mxCell id="QaqN5k4PvZ0HnCuxRosK-129" value="2-3" style="rounded=0;whiteSpace=wrap;html=1;fillColor=#f5f5f5;strokeColor=#666666;shadow=0;rotation=90;fontColor=#333333;" parent="1" vertex="1">
          <mxGeometry x="5021" y="2615.892999999999" width="236.22" height="19.685" as="geometry" />
        </mxCell>
        <mxCell id="QaqN5k4PvZ0HnCuxRosK-130" value="2-4" style="rounded=0;whiteSpace=wrap;html=1;fillColor=#f5f5f5;strokeColor=#666666;shadow=0;rotation=90;fontColor=#333333;" parent="1" vertex="1">
          <mxGeometry x="5473.76" y="2615.8899999999994" width="236.22" height="19.685" as="geometry" />
        </mxCell>
        <mxCell id="QaqN5k4PvZ0HnCuxRosK-131" value="2-5" style="rounded=0;whiteSpace=wrap;html=1;fillColor=#f5f5f5;strokeColor=#666666;shadow=0;rotation=90;fontColor=#333333;" parent="1" vertex="1">
          <mxGeometry x="5178.43" y="2615.8899999999994" width="236.22" height="19.685" as="geometry" />
        </mxCell>
        <mxCell id="QaqN5k4PvZ0HnCuxRosK-132" value="3-1" style="rounded=0;whiteSpace=wrap;html=1;fillColor=#f5f5f5;strokeColor=#666666;shadow=0;fontColor=#333333;" parent="1" vertex="1">
          <mxGeometry x="5129.97" y="2724.4099999999994" width="19.685" height="19.685" as="geometry" />
        </mxCell>
        <mxCell id="QaqN5k4PvZ0HnCuxRosK-133" value="3-2" style="rounded=0;whiteSpace=wrap;html=1;fillColor=#f5f5f5;strokeColor=#666666;shadow=0;fontColor=#333333;" parent="1" vertex="1">
          <mxGeometry x="5129.97" y="2507.879999999999" width="19.685" height="19.685" as="geometry" />
        </mxCell>
        <mxCell id="QaqN5k4PvZ0HnCuxRosK-134" value="3-3" style="rounded=0;whiteSpace=wrap;html=1;fillColor=#f5f5f5;strokeColor=#666666;shadow=0;fontColor=#333333;" parent="1" vertex="1">
          <mxGeometry x="5582.73" y="2724.4099999999994" width="19.685" height="19.685" as="geometry" />
        </mxCell>
        <mxCell id="QaqN5k4PvZ0HnCuxRosK-135" value="3-4" style="rounded=0;whiteSpace=wrap;html=1;fillColor=#f5f5f5;strokeColor=#666666;shadow=0;fontColor=#333333;" parent="1" vertex="1">
          <mxGeometry x="5582.73" y="2507.879999999999" width="19.685" height="19.685" as="geometry" />
        </mxCell>
        <mxCell id="QaqN5k4PvZ0HnCuxRosK-136" value="3-5" style="rounded=0;whiteSpace=wrap;html=1;fillColor=#f5f5f5;strokeColor=#666666;shadow=0;fontColor=#333333;" parent="1" vertex="1">
          <mxGeometry x="5286.7" y="2724.4199999999996" width="19.685" height="19.685" as="geometry" />
        </mxCell>
        <mxCell id="QaqN5k4PvZ0HnCuxRosK-137" value="3-6" style="rounded=0;whiteSpace=wrap;html=1;fillColor=#f5f5f5;strokeColor=#666666;shadow=0;fontColor=#333333;" parent="1" vertex="1">
          <mxGeometry x="5286.75" y="2507.8799999999997" width="19.685" height="19.685" as="geometry" />
        </mxCell>
        <mxCell id="QaqN5k4PvZ0HnCuxRosK-138" value="4-2" style="rounded=0;whiteSpace=wrap;html=1;fillColor=#f5f5f5;strokeColor=#666666;shadow=0;fontColor=#333333;" parent="1" vertex="1">
          <mxGeometry x="5149.66" y="2507.8799999999997" width="157.48" height="19.68" as="geometry" />
        </mxCell>
        <mxCell id="QaqN5k4PvZ0HnCuxRosK-139" value="4-1" style="rounded=0;whiteSpace=wrap;html=1;fillColor=#f5f5f5;strokeColor=#666666;shadow=0;fontColor=#333333;" parent="1" vertex="1">
          <mxGeometry x="5149.66" y="2724.4199999999996" width="157.48" height="19.68" as="geometry" />
        </mxCell>
        <mxCell id="QaqN5k4PvZ0HnCuxRosK-140" value="4-3" style="rounded=0;whiteSpace=wrap;html=1;fillColor=#f5f5f5;strokeColor=#666666;shadow=0;rotation=90;fontColor=#333333;" parent="1" vertex="1">
          <mxGeometry x="5041.389999999999" y="2615.41" width="196.85" height="19.685" as="geometry" />
        </mxCell>
        <mxCell id="QaqN5k4PvZ0HnCuxRosK-143" value="5-2" style="rounded=0;whiteSpace=wrap;html=1;fillColor=#f5f5f5;strokeColor=#666666;shadow=0;fontColor=#333333;" parent="1" vertex="1">
          <mxGeometry x="5286.75" y="2507.879999999999" width="19.685" height="19.685" as="geometry" />
        </mxCell>
        <mxCell id="QaqN5k4PvZ0HnCuxRosK-144" value="5-1" style="rounded=0;whiteSpace=wrap;html=1;fillColor=#f5f5f5;strokeColor=#666666;shadow=0;fontColor=#333333;" parent="1" vertex="1">
          <mxGeometry x="5286.700000000001" y="2723.939999999999" width="19.685" height="19.685" as="geometry" />
        </mxCell>
        <mxCell id="QaqN5k4PvZ0HnCuxRosK-148" value="6-2" style="rounded=0;whiteSpace=wrap;html=1;fillColor=#f5f5f5;strokeColor=#666666;shadow=0;fontColor=#333333;" parent="1" vertex="1">
          <mxGeometry x="5148.95" y="2507.4199999999996" width="157.48" height="19.68" as="geometry" />
        </mxCell>
        <mxCell id="QaqN5k4PvZ0HnCuxRosK-149" value="6-1" style="rounded=0;whiteSpace=wrap;html=1;fillColor=#f5f5f5;strokeColor=#666666;shadow=0;fontColor=#333333;" parent="1" vertex="1">
          <mxGeometry x="5150.12" y="2723.49" width="157.48" height="19.68" as="geometry" />
        </mxCell>
        <mxCell id="QaqN5k4PvZ0HnCuxRosK-150" value="6-3" style="rounded=0;whiteSpace=wrap;html=1;fillColor=#f5f5f5;strokeColor=#666666;shadow=0;rotation=90;fontColor=#333333;" parent="1" vertex="1">
          <mxGeometry x="5197.41" y="2615.43" width="196.85" height="19.685" as="geometry" />
        </mxCell>
        <mxCell id="QaqN5k4PvZ0HnCuxRosK-152" value="7-2" style="rounded=0;whiteSpace=wrap;html=1;fillColor=#fff2cc;strokeColor=#d6b656;shadow=0;" parent="1" vertex="1">
          <mxGeometry x="5204.9800000000005" y="1262" width="472.44" height="19.685" as="geometry" />
        </mxCell>
        <mxCell id="QaqN5k4PvZ0HnCuxRosK-153" value="" style="shape=cube;whiteSpace=wrap;html=1;boundedLbl=1;backgroundOutline=1;darkOpacity=0.05;darkOpacity2=0.1;size=128;rotation=90;fillColor=#fff2cc;strokeColor=#d6b656;" parent="1" vertex="1">
          <mxGeometry x="5077.72" y="1262.0000000000005" width="146.32" height="147.11" as="geometry" />
        </mxCell>
        <mxCell id="QaqN5k4PvZ0HnCuxRosK-156" value="40X60" style="verticalLabelPosition=bottom;verticalAlign=top;html=1;shape=mxgraph.basic.patternFillRect;fillStyle=cross-hatch;step=5;fillStrokeWidth=0.2;fillStrokeColor=#dddddd;fillColor=#FFD966;strokeColor=#666666;fontColor=#333333;" parent="1" vertex="1">
          <mxGeometry x="4110" y="2507.9" width="157.48" height="236.22" as="geometry" />
        </mxCell>
        <mxCell id="QaqN5k4PvZ0HnCuxRosK-157" value="7-1" style="rounded=0;whiteSpace=wrap;html=1;fillColor=#fff2cc;strokeColor=#d6b656;shadow=0;" parent="1" vertex="1">
          <mxGeometry x="5129.27" y="2724.4300000000003" width="472.44" height="19.685" as="geometry" />
        </mxCell>
        <mxCell id="QaqN5k4PvZ0HnCuxRosK-158" value="7-2" style="rounded=0;whiteSpace=wrap;html=1;fillColor=#fff2cc;strokeColor=#d6b656;shadow=0;" parent="1" vertex="1">
          <mxGeometry x="5129.97" y="2507.9" width="472.44" height="19.685" as="geometry" />
        </mxCell>
        <mxCell id="QaqN5k4PvZ0HnCuxRosK-159" value="7-3" style="rounded=0;whiteSpace=wrap;html=1;fillColor=#fff2cc;strokeColor=#d6b656;shadow=0;rotation=90;" parent="1" vertex="1">
          <mxGeometry x="5041.39" y="2615.69" width="196.85" height="19.685" as="geometry" />
        </mxCell>
        <mxCell id="QaqN5k4PvZ0HnCuxRosK-160" value="7-4" style="rounded=0;whiteSpace=wrap;html=1;fillColor=#fff2cc;strokeColor=#d6b656;shadow=0;rotation=90;" parent="1" vertex="1">
          <mxGeometry x="5493.450000000001" y="2616.15" width="196.85" height="19.685" as="geometry" />
        </mxCell>
        <mxCell id="QaqN5k4PvZ0HnCuxRosK-212" value="" style="shape=table;startSize=0;container=1;collapsible=0;childLayout=tableLayout;fontSize=16;" parent="1" vertex="1">
          <mxGeometry x="220" y="2860" width="180" height="240" as="geometry" />
        </mxCell>
        <mxCell id="QaqN5k4PvZ0HnCuxRosK-213" value="" style="shape=tableRow;horizontal=0;startSize=0;swimlaneHead=0;swimlaneBody=0;strokeColor=inherit;top=0;left=0;bottom=0;right=0;collapsible=0;dropTarget=0;fillColor=none;points=[[0,0.5],[1,0.5]];portConstraint=eastwest;fontSize=16;" parent="QaqN5k4PvZ0HnCuxRosK-212" vertex="1">
          <mxGeometry width="180" height="40" as="geometry" />
        </mxCell>
        <mxCell id="QaqN5k4PvZ0HnCuxRosK-214" value="20" style="shape=partialRectangle;html=1;whiteSpace=wrap;connectable=0;strokeColor=inherit;overflow=hidden;fillColor=none;top=0;left=0;bottom=0;right=0;pointerEvents=1;fontSize=16;" parent="QaqN5k4PvZ0HnCuxRosK-213" vertex="1">
          <mxGeometry width="60" height="40" as="geometry">
            <mxRectangle width="60" height="40" as="alternateBounds" />
          </mxGeometry>
        </mxCell>
        <mxCell id="QaqN5k4PvZ0HnCuxRosK-215" value="4" style="shape=partialRectangle;html=1;whiteSpace=wrap;connectable=0;strokeColor=inherit;overflow=hidden;fillColor=none;top=0;left=0;bottom=0;right=0;pointerEvents=1;fontSize=16;" parent="QaqN5k4PvZ0HnCuxRosK-213" vertex="1">
          <mxGeometry x="60" width="60" height="40" as="geometry">
            <mxRectangle width="60" height="40" as="alternateBounds" />
          </mxGeometry>
        </mxCell>
        <mxCell id="QaqN5k4PvZ0HnCuxRosK-216" value="" style="shape=partialRectangle;html=1;whiteSpace=wrap;connectable=0;strokeColor=inherit;overflow=hidden;fillColor=none;top=0;left=0;bottom=0;right=0;pointerEvents=1;fontSize=16;" parent="QaqN5k4PvZ0HnCuxRosK-213" vertex="1">
          <mxGeometry x="120" width="60" height="40" as="geometry">
            <mxRectangle width="60" height="40" as="alternateBounds" />
          </mxGeometry>
        </mxCell>
        <mxCell id="QaqN5k4PvZ0HnCuxRosK-217" value="" style="shape=tableRow;horizontal=0;startSize=0;swimlaneHead=0;swimlaneBody=0;strokeColor=inherit;top=0;left=0;bottom=0;right=0;collapsible=0;dropTarget=0;fillColor=none;points=[[0,0.5],[1,0.5]];portConstraint=eastwest;fontSize=16;" parent="QaqN5k4PvZ0HnCuxRosK-212" vertex="1">
          <mxGeometry y="40" width="180" height="40" as="geometry" />
        </mxCell>
        <mxCell id="QaqN5k4PvZ0HnCuxRosK-218" value="40" style="shape=partialRectangle;html=1;whiteSpace=wrap;connectable=0;strokeColor=inherit;overflow=hidden;fillColor=none;top=0;left=0;bottom=0;right=0;pointerEvents=1;fontSize=16;" parent="QaqN5k4PvZ0HnCuxRosK-217" vertex="1">
          <mxGeometry width="60" height="40" as="geometry">
            <mxRectangle width="60" height="40" as="alternateBounds" />
          </mxGeometry>
        </mxCell>
        <mxCell id="QaqN5k4PvZ0HnCuxRosK-219" value="" style="shape=partialRectangle;html=1;whiteSpace=wrap;connectable=0;strokeColor=inherit;overflow=hidden;fillColor=none;top=0;left=0;bottom=0;right=0;pointerEvents=1;fontSize=16;" parent="QaqN5k4PvZ0HnCuxRosK-217" vertex="1">
          <mxGeometry x="60" width="60" height="40" as="geometry">
            <mxRectangle width="60" height="40" as="alternateBounds" />
          </mxGeometry>
        </mxCell>
        <mxCell id="QaqN5k4PvZ0HnCuxRosK-220" value="" style="shape=partialRectangle;html=1;whiteSpace=wrap;connectable=0;strokeColor=inherit;overflow=hidden;fillColor=none;top=0;left=0;bottom=0;right=0;pointerEvents=1;fontSize=16;" parent="QaqN5k4PvZ0HnCuxRosK-217" vertex="1">
          <mxGeometry x="120" width="60" height="40" as="geometry">
            <mxRectangle width="60" height="40" as="alternateBounds" />
          </mxGeometry>
        </mxCell>
        <mxCell id="QaqN5k4PvZ0HnCuxRosK-221" value="" style="shape=tableRow;horizontal=0;startSize=0;swimlaneHead=0;swimlaneBody=0;strokeColor=inherit;top=0;left=0;bottom=0;right=0;collapsible=0;dropTarget=0;fillColor=none;points=[[0,0.5],[1,0.5]];portConstraint=eastwest;fontSize=16;" parent="QaqN5k4PvZ0HnCuxRosK-212" vertex="1">
          <mxGeometry y="80" width="180" height="40" as="geometry" />
        </mxCell>
        <mxCell id="QaqN5k4PvZ0HnCuxRosK-222" value="50" style="shape=partialRectangle;html=1;whiteSpace=wrap;connectable=0;strokeColor=inherit;overflow=hidden;fillColor=none;top=0;left=0;bottom=0;right=0;pointerEvents=1;fontSize=16;" parent="QaqN5k4PvZ0HnCuxRosK-221" vertex="1">
          <mxGeometry width="60" height="40" as="geometry">
            <mxRectangle width="60" height="40" as="alternateBounds" />
          </mxGeometry>
        </mxCell>
        <mxCell id="QaqN5k4PvZ0HnCuxRosK-223" value="" style="shape=partialRectangle;html=1;whiteSpace=wrap;connectable=0;strokeColor=inherit;overflow=hidden;fillColor=none;top=0;left=0;bottom=0;right=0;pointerEvents=1;fontSize=16;" parent="QaqN5k4PvZ0HnCuxRosK-221" vertex="1">
          <mxGeometry x="60" width="60" height="40" as="geometry">
            <mxRectangle width="60" height="40" as="alternateBounds" />
          </mxGeometry>
        </mxCell>
        <mxCell id="QaqN5k4PvZ0HnCuxRosK-224" value="" style="shape=partialRectangle;html=1;whiteSpace=wrap;connectable=0;strokeColor=inherit;overflow=hidden;fillColor=none;top=0;left=0;bottom=0;right=0;pointerEvents=1;fontSize=16;" parent="QaqN5k4PvZ0HnCuxRosK-221" vertex="1">
          <mxGeometry x="120" width="60" height="40" as="geometry">
            <mxRectangle width="60" height="40" as="alternateBounds" />
          </mxGeometry>
        </mxCell>
        <mxCell id="QaqN5k4PvZ0HnCuxRosK-225" style="shape=tableRow;horizontal=0;startSize=0;swimlaneHead=0;swimlaneBody=0;strokeColor=inherit;top=0;left=0;bottom=0;right=0;collapsible=0;dropTarget=0;fillColor=none;points=[[0,0.5],[1,0.5]];portConstraint=eastwest;fontSize=16;" parent="QaqN5k4PvZ0HnCuxRosK-212" vertex="1">
          <mxGeometry y="120" width="180" height="40" as="geometry" />
        </mxCell>
        <mxCell id="QaqN5k4PvZ0HnCuxRosK-226" value="60" style="shape=partialRectangle;html=1;whiteSpace=wrap;connectable=0;strokeColor=inherit;overflow=hidden;fillColor=none;top=0;left=0;bottom=0;right=0;pointerEvents=1;fontSize=16;" parent="QaqN5k4PvZ0HnCuxRosK-225" vertex="1">
          <mxGeometry width="60" height="40" as="geometry">
            <mxRectangle width="60" height="40" as="alternateBounds" />
          </mxGeometry>
        </mxCell>
        <mxCell id="QaqN5k4PvZ0HnCuxRosK-227" value="" style="shape=partialRectangle;html=1;whiteSpace=wrap;connectable=0;strokeColor=inherit;overflow=hidden;fillColor=none;top=0;left=0;bottom=0;right=0;pointerEvents=1;fontSize=16;" parent="QaqN5k4PvZ0HnCuxRosK-225" vertex="1">
          <mxGeometry x="60" width="60" height="40" as="geometry">
            <mxRectangle width="60" height="40" as="alternateBounds" />
          </mxGeometry>
        </mxCell>
        <mxCell id="QaqN5k4PvZ0HnCuxRosK-228" style="shape=partialRectangle;html=1;whiteSpace=wrap;connectable=0;strokeColor=inherit;overflow=hidden;fillColor=none;top=0;left=0;bottom=0;right=0;pointerEvents=1;fontSize=16;" parent="QaqN5k4PvZ0HnCuxRosK-225" vertex="1">
          <mxGeometry x="120" width="60" height="40" as="geometry">
            <mxRectangle width="60" height="40" as="alternateBounds" />
          </mxGeometry>
        </mxCell>
        <mxCell id="QaqN5k4PvZ0HnCuxRosK-229" style="shape=tableRow;horizontal=0;startSize=0;swimlaneHead=0;swimlaneBody=0;strokeColor=inherit;top=0;left=0;bottom=0;right=0;collapsible=0;dropTarget=0;fillColor=none;points=[[0,0.5],[1,0.5]];portConstraint=eastwest;fontSize=16;" parent="QaqN5k4PvZ0HnCuxRosK-212" vertex="1">
          <mxGeometry y="160" width="180" height="40" as="geometry" />
        </mxCell>
        <mxCell id="QaqN5k4PvZ0HnCuxRosK-230" value="120" style="shape=partialRectangle;html=1;whiteSpace=wrap;connectable=0;strokeColor=inherit;overflow=hidden;fillColor=none;top=0;left=0;bottom=0;right=0;pointerEvents=1;fontSize=16;" parent="QaqN5k4PvZ0HnCuxRosK-229" vertex="1">
          <mxGeometry width="60" height="40" as="geometry">
            <mxRectangle width="60" height="40" as="alternateBounds" />
          </mxGeometry>
        </mxCell>
        <mxCell id="QaqN5k4PvZ0HnCuxRosK-231" value="" style="shape=partialRectangle;html=1;whiteSpace=wrap;connectable=0;strokeColor=inherit;overflow=hidden;fillColor=none;top=0;left=0;bottom=0;right=0;pointerEvents=1;fontSize=16;" parent="QaqN5k4PvZ0HnCuxRosK-229" vertex="1">
          <mxGeometry x="60" width="60" height="40" as="geometry">
            <mxRectangle width="60" height="40" as="alternateBounds" />
          </mxGeometry>
        </mxCell>
        <mxCell id="QaqN5k4PvZ0HnCuxRosK-232" style="shape=partialRectangle;html=1;whiteSpace=wrap;connectable=0;strokeColor=inherit;overflow=hidden;fillColor=none;top=0;left=0;bottom=0;right=0;pointerEvents=1;fontSize=16;" parent="QaqN5k4PvZ0HnCuxRosK-229" vertex="1">
          <mxGeometry x="120" width="60" height="40" as="geometry">
            <mxRectangle width="60" height="40" as="alternateBounds" />
          </mxGeometry>
        </mxCell>
        <mxCell id="QaqN5k4PvZ0HnCuxRosK-233" style="shape=tableRow;horizontal=0;startSize=0;swimlaneHead=0;swimlaneBody=0;strokeColor=inherit;top=0;left=0;bottom=0;right=0;collapsible=0;dropTarget=0;fillColor=none;points=[[0,0.5],[1,0.5]];portConstraint=eastwest;fontSize=16;" parent="QaqN5k4PvZ0HnCuxRosK-212" vertex="1">
          <mxGeometry y="200" width="180" height="40" as="geometry" />
        </mxCell>
        <mxCell id="QaqN5k4PvZ0HnCuxRosK-234" value="190" style="shape=partialRectangle;html=1;whiteSpace=wrap;connectable=0;strokeColor=inherit;overflow=hidden;fillColor=none;top=0;left=0;bottom=0;right=0;pointerEvents=1;fontSize=16;" parent="QaqN5k4PvZ0HnCuxRosK-233" vertex="1">
          <mxGeometry width="60" height="40" as="geometry">
            <mxRectangle width="60" height="40" as="alternateBounds" />
          </mxGeometry>
        </mxCell>
        <mxCell id="QaqN5k4PvZ0HnCuxRosK-235" value="" style="shape=partialRectangle;html=1;whiteSpace=wrap;connectable=0;strokeColor=inherit;overflow=hidden;fillColor=none;top=0;left=0;bottom=0;right=0;pointerEvents=1;fontSize=16;" parent="QaqN5k4PvZ0HnCuxRosK-233" vertex="1">
          <mxGeometry x="60" width="60" height="40" as="geometry">
            <mxRectangle width="60" height="40" as="alternateBounds" />
          </mxGeometry>
        </mxCell>
        <mxCell id="QaqN5k4PvZ0HnCuxRosK-236" style="shape=partialRectangle;html=1;whiteSpace=wrap;connectable=0;strokeColor=inherit;overflow=hidden;fillColor=none;top=0;left=0;bottom=0;right=0;pointerEvents=1;fontSize=16;" parent="QaqN5k4PvZ0HnCuxRosK-233" vertex="1">
          <mxGeometry x="120" width="60" height="40" as="geometry">
            <mxRectangle width="60" height="40" as="alternateBounds" />
          </mxGeometry>
        </mxCell>
        <mxCell id="QaqN5k4PvZ0HnCuxRosK-362" value="" style="shape=table;startSize=0;container=1;collapsible=0;childLayout=tableLayout;fontSize=16;" parent="1" vertex="1">
          <mxGeometry x="1061" y="2860" width="180" height="240" as="geometry" />
        </mxCell>
        <mxCell id="QaqN5k4PvZ0HnCuxRosK-363" value="" style="shape=tableRow;horizontal=0;startSize=0;swimlaneHead=0;swimlaneBody=0;strokeColor=inherit;top=0;left=0;bottom=0;right=0;collapsible=0;dropTarget=0;fillColor=none;points=[[0,0.5],[1,0.5]];portConstraint=eastwest;fontSize=16;" parent="QaqN5k4PvZ0HnCuxRosK-362" vertex="1">
          <mxGeometry width="180" height="40" as="geometry" />
        </mxCell>
        <mxCell id="QaqN5k4PvZ0HnCuxRosK-364" value="20" style="shape=partialRectangle;html=1;whiteSpace=wrap;connectable=0;strokeColor=inherit;overflow=hidden;fillColor=none;top=0;left=0;bottom=0;right=0;pointerEvents=1;fontSize=16;" parent="QaqN5k4PvZ0HnCuxRosK-363" vertex="1">
          <mxGeometry width="60" height="40" as="geometry">
            <mxRectangle width="60" height="40" as="alternateBounds" />
          </mxGeometry>
        </mxCell>
        <mxCell id="QaqN5k4PvZ0HnCuxRosK-365" value="4" style="shape=partialRectangle;html=1;whiteSpace=wrap;connectable=0;strokeColor=inherit;overflow=hidden;fillColor=none;top=0;left=0;bottom=0;right=0;pointerEvents=1;fontSize=16;" parent="QaqN5k4PvZ0HnCuxRosK-363" vertex="1">
          <mxGeometry x="60" width="60" height="40" as="geometry">
            <mxRectangle width="60" height="40" as="alternateBounds" />
          </mxGeometry>
        </mxCell>
        <mxCell id="QaqN5k4PvZ0HnCuxRosK-366" value="" style="shape=partialRectangle;html=1;whiteSpace=wrap;connectable=0;strokeColor=inherit;overflow=hidden;fillColor=none;top=0;left=0;bottom=0;right=0;pointerEvents=1;fontSize=16;" parent="QaqN5k4PvZ0HnCuxRosK-363" vertex="1">
          <mxGeometry x="120" width="60" height="40" as="geometry">
            <mxRectangle width="60" height="40" as="alternateBounds" />
          </mxGeometry>
        </mxCell>
        <mxCell id="QaqN5k4PvZ0HnCuxRosK-367" value="" style="shape=tableRow;horizontal=0;startSize=0;swimlaneHead=0;swimlaneBody=0;strokeColor=inherit;top=0;left=0;bottom=0;right=0;collapsible=0;dropTarget=0;fillColor=none;points=[[0,0.5],[1,0.5]];portConstraint=eastwest;fontSize=16;" parent="QaqN5k4PvZ0HnCuxRosK-362" vertex="1">
          <mxGeometry y="40" width="180" height="40" as="geometry" />
        </mxCell>
        <mxCell id="QaqN5k4PvZ0HnCuxRosK-368" value="40" style="shape=partialRectangle;html=1;whiteSpace=wrap;connectable=0;strokeColor=inherit;overflow=hidden;fillColor=none;top=0;left=0;bottom=0;right=0;pointerEvents=1;fontSize=16;" parent="QaqN5k4PvZ0HnCuxRosK-367" vertex="1">
          <mxGeometry width="60" height="40" as="geometry">
            <mxRectangle width="60" height="40" as="alternateBounds" />
          </mxGeometry>
        </mxCell>
        <mxCell id="QaqN5k4PvZ0HnCuxRosK-369" value="" style="shape=partialRectangle;html=1;whiteSpace=wrap;connectable=0;strokeColor=inherit;overflow=hidden;fillColor=none;top=0;left=0;bottom=0;right=0;pointerEvents=1;fontSize=16;" parent="QaqN5k4PvZ0HnCuxRosK-367" vertex="1">
          <mxGeometry x="60" width="60" height="40" as="geometry">
            <mxRectangle width="60" height="40" as="alternateBounds" />
          </mxGeometry>
        </mxCell>
        <mxCell id="QaqN5k4PvZ0HnCuxRosK-370" value="" style="shape=partialRectangle;html=1;whiteSpace=wrap;connectable=0;strokeColor=inherit;overflow=hidden;fillColor=none;top=0;left=0;bottom=0;right=0;pointerEvents=1;fontSize=16;" parent="QaqN5k4PvZ0HnCuxRosK-367" vertex="1">
          <mxGeometry x="120" width="60" height="40" as="geometry">
            <mxRectangle width="60" height="40" as="alternateBounds" />
          </mxGeometry>
        </mxCell>
        <mxCell id="QaqN5k4PvZ0HnCuxRosK-371" value="" style="shape=tableRow;horizontal=0;startSize=0;swimlaneHead=0;swimlaneBody=0;strokeColor=inherit;top=0;left=0;bottom=0;right=0;collapsible=0;dropTarget=0;fillColor=none;points=[[0,0.5],[1,0.5]];portConstraint=eastwest;fontSize=16;" parent="QaqN5k4PvZ0HnCuxRosK-362" vertex="1">
          <mxGeometry y="80" width="180" height="40" as="geometry" />
        </mxCell>
        <mxCell id="QaqN5k4PvZ0HnCuxRosK-372" value="50" style="shape=partialRectangle;html=1;whiteSpace=wrap;connectable=0;strokeColor=inherit;overflow=hidden;fillColor=none;top=0;left=0;bottom=0;right=0;pointerEvents=1;fontSize=16;" parent="QaqN5k4PvZ0HnCuxRosK-371" vertex="1">
          <mxGeometry width="60" height="40" as="geometry">
            <mxRectangle width="60" height="40" as="alternateBounds" />
          </mxGeometry>
        </mxCell>
        <mxCell id="QaqN5k4PvZ0HnCuxRosK-373" value="" style="shape=partialRectangle;html=1;whiteSpace=wrap;connectable=0;strokeColor=inherit;overflow=hidden;fillColor=none;top=0;left=0;bottom=0;right=0;pointerEvents=1;fontSize=16;" parent="QaqN5k4PvZ0HnCuxRosK-371" vertex="1">
          <mxGeometry x="60" width="60" height="40" as="geometry">
            <mxRectangle width="60" height="40" as="alternateBounds" />
          </mxGeometry>
        </mxCell>
        <mxCell id="QaqN5k4PvZ0HnCuxRosK-374" value="" style="shape=partialRectangle;html=1;whiteSpace=wrap;connectable=0;strokeColor=inherit;overflow=hidden;fillColor=none;top=0;left=0;bottom=0;right=0;pointerEvents=1;fontSize=16;" parent="QaqN5k4PvZ0HnCuxRosK-371" vertex="1">
          <mxGeometry x="120" width="60" height="40" as="geometry">
            <mxRectangle width="60" height="40" as="alternateBounds" />
          </mxGeometry>
        </mxCell>
        <mxCell id="QaqN5k4PvZ0HnCuxRosK-375" style="shape=tableRow;horizontal=0;startSize=0;swimlaneHead=0;swimlaneBody=0;strokeColor=inherit;top=0;left=0;bottom=0;right=0;collapsible=0;dropTarget=0;fillColor=none;points=[[0,0.5],[1,0.5]];portConstraint=eastwest;fontSize=16;" parent="QaqN5k4PvZ0HnCuxRosK-362" vertex="1">
          <mxGeometry y="120" width="180" height="40" as="geometry" />
        </mxCell>
        <mxCell id="QaqN5k4PvZ0HnCuxRosK-376" value="60" style="shape=partialRectangle;html=1;whiteSpace=wrap;connectable=0;strokeColor=inherit;overflow=hidden;fillColor=none;top=0;left=0;bottom=0;right=0;pointerEvents=1;fontSize=16;" parent="QaqN5k4PvZ0HnCuxRosK-375" vertex="1">
          <mxGeometry width="60" height="40" as="geometry">
            <mxRectangle width="60" height="40" as="alternateBounds" />
          </mxGeometry>
        </mxCell>
        <mxCell id="QaqN5k4PvZ0HnCuxRosK-377" value="3" style="shape=partialRectangle;html=1;whiteSpace=wrap;connectable=0;strokeColor=inherit;overflow=hidden;fillColor=none;top=0;left=0;bottom=0;right=0;pointerEvents=1;fontSize=16;" parent="QaqN5k4PvZ0HnCuxRosK-375" vertex="1">
          <mxGeometry x="60" width="60" height="40" as="geometry">
            <mxRectangle width="60" height="40" as="alternateBounds" />
          </mxGeometry>
        </mxCell>
        <mxCell id="QaqN5k4PvZ0HnCuxRosK-378" style="shape=partialRectangle;html=1;whiteSpace=wrap;connectable=0;strokeColor=inherit;overflow=hidden;fillColor=none;top=0;left=0;bottom=0;right=0;pointerEvents=1;fontSize=16;" parent="QaqN5k4PvZ0HnCuxRosK-375" vertex="1">
          <mxGeometry x="120" width="60" height="40" as="geometry">
            <mxRectangle width="60" height="40" as="alternateBounds" />
          </mxGeometry>
        </mxCell>
        <mxCell id="QaqN5k4PvZ0HnCuxRosK-379" style="shape=tableRow;horizontal=0;startSize=0;swimlaneHead=0;swimlaneBody=0;strokeColor=inherit;top=0;left=0;bottom=0;right=0;collapsible=0;dropTarget=0;fillColor=none;points=[[0,0.5],[1,0.5]];portConstraint=eastwest;fontSize=16;" parent="QaqN5k4PvZ0HnCuxRosK-362" vertex="1">
          <mxGeometry y="160" width="180" height="40" as="geometry" />
        </mxCell>
        <mxCell id="QaqN5k4PvZ0HnCuxRosK-380" value="120" style="shape=partialRectangle;html=1;whiteSpace=wrap;connectable=0;strokeColor=inherit;overflow=hidden;fillColor=none;top=0;left=0;bottom=0;right=0;pointerEvents=1;fontSize=16;" parent="QaqN5k4PvZ0HnCuxRosK-379" vertex="1">
          <mxGeometry width="60" height="40" as="geometry">
            <mxRectangle width="60" height="40" as="alternateBounds" />
          </mxGeometry>
        </mxCell>
        <mxCell id="QaqN5k4PvZ0HnCuxRosK-381" value="2" style="shape=partialRectangle;html=1;whiteSpace=wrap;connectable=0;strokeColor=inherit;overflow=hidden;fillColor=none;top=0;left=0;bottom=0;right=0;pointerEvents=1;fontSize=16;" parent="QaqN5k4PvZ0HnCuxRosK-379" vertex="1">
          <mxGeometry x="60" width="60" height="40" as="geometry">
            <mxRectangle width="60" height="40" as="alternateBounds" />
          </mxGeometry>
        </mxCell>
        <mxCell id="QaqN5k4PvZ0HnCuxRosK-382" style="shape=partialRectangle;html=1;whiteSpace=wrap;connectable=0;strokeColor=inherit;overflow=hidden;fillColor=none;top=0;left=0;bottom=0;right=0;pointerEvents=1;fontSize=16;" parent="QaqN5k4PvZ0HnCuxRosK-379" vertex="1">
          <mxGeometry x="120" width="60" height="40" as="geometry">
            <mxRectangle width="60" height="40" as="alternateBounds" />
          </mxGeometry>
        </mxCell>
        <mxCell id="QaqN5k4PvZ0HnCuxRosK-383" style="shape=tableRow;horizontal=0;startSize=0;swimlaneHead=0;swimlaneBody=0;strokeColor=inherit;top=0;left=0;bottom=0;right=0;collapsible=0;dropTarget=0;fillColor=none;points=[[0,0.5],[1,0.5]];portConstraint=eastwest;fontSize=16;" parent="QaqN5k4PvZ0HnCuxRosK-362" vertex="1">
          <mxGeometry y="200" width="180" height="40" as="geometry" />
        </mxCell>
        <mxCell id="QaqN5k4PvZ0HnCuxRosK-384" value="190" style="shape=partialRectangle;html=1;whiteSpace=wrap;connectable=0;strokeColor=inherit;overflow=hidden;fillColor=none;top=0;left=0;bottom=0;right=0;pointerEvents=1;fontSize=16;" parent="QaqN5k4PvZ0HnCuxRosK-383" vertex="1">
          <mxGeometry width="60" height="40" as="geometry">
            <mxRectangle width="60" height="40" as="alternateBounds" />
          </mxGeometry>
        </mxCell>
        <mxCell id="QaqN5k4PvZ0HnCuxRosK-385" value="" style="shape=partialRectangle;html=1;whiteSpace=wrap;connectable=0;strokeColor=inherit;overflow=hidden;fillColor=none;top=0;left=0;bottom=0;right=0;pointerEvents=1;fontSize=16;" parent="QaqN5k4PvZ0HnCuxRosK-383" vertex="1">
          <mxGeometry x="60" width="60" height="40" as="geometry">
            <mxRectangle width="60" height="40" as="alternateBounds" />
          </mxGeometry>
        </mxCell>
        <mxCell id="QaqN5k4PvZ0HnCuxRosK-386" style="shape=partialRectangle;html=1;whiteSpace=wrap;connectable=0;strokeColor=inherit;overflow=hidden;fillColor=none;top=0;left=0;bottom=0;right=0;pointerEvents=1;fontSize=16;" parent="QaqN5k4PvZ0HnCuxRosK-383" vertex="1">
          <mxGeometry x="120" width="60" height="40" as="geometry">
            <mxRectangle width="60" height="40" as="alternateBounds" />
          </mxGeometry>
        </mxCell>
        <mxCell id="QaqN5k4PvZ0HnCuxRosK-387" value="" style="shape=table;startSize=0;container=1;collapsible=0;childLayout=tableLayout;fontSize=16;" parent="1" vertex="1">
          <mxGeometry x="1900" y="2870" width="180" height="240" as="geometry" />
        </mxCell>
        <mxCell id="QaqN5k4PvZ0HnCuxRosK-388" value="" style="shape=tableRow;horizontal=0;startSize=0;swimlaneHead=0;swimlaneBody=0;strokeColor=inherit;top=0;left=0;bottom=0;right=0;collapsible=0;dropTarget=0;fillColor=none;points=[[0,0.5],[1,0.5]];portConstraint=eastwest;fontSize=16;" parent="QaqN5k4PvZ0HnCuxRosK-387" vertex="1">
          <mxGeometry width="180" height="40" as="geometry" />
        </mxCell>
        <mxCell id="QaqN5k4PvZ0HnCuxRosK-389" value="20" style="shape=partialRectangle;html=1;whiteSpace=wrap;connectable=0;strokeColor=inherit;overflow=hidden;fillColor=none;top=0;left=0;bottom=0;right=0;pointerEvents=1;fontSize=16;" parent="QaqN5k4PvZ0HnCuxRosK-388" vertex="1">
          <mxGeometry width="60" height="40" as="geometry">
            <mxRectangle width="60" height="40" as="alternateBounds" />
          </mxGeometry>
        </mxCell>
        <mxCell id="QaqN5k4PvZ0HnCuxRosK-390" value="4+2" style="shape=partialRectangle;html=1;whiteSpace=wrap;connectable=0;strokeColor=inherit;overflow=hidden;fillColor=none;top=0;left=0;bottom=0;right=0;pointerEvents=1;fontSize=16;" parent="QaqN5k4PvZ0HnCuxRosK-388" vertex="1">
          <mxGeometry x="60" width="60" height="40" as="geometry">
            <mxRectangle width="60" height="40" as="alternateBounds" />
          </mxGeometry>
        </mxCell>
        <mxCell id="QaqN5k4PvZ0HnCuxRosK-391" value="" style="shape=partialRectangle;html=1;whiteSpace=wrap;connectable=0;strokeColor=inherit;overflow=hidden;fillColor=none;top=0;left=0;bottom=0;right=0;pointerEvents=1;fontSize=16;" parent="QaqN5k4PvZ0HnCuxRosK-388" vertex="1">
          <mxGeometry x="120" width="60" height="40" as="geometry">
            <mxRectangle width="60" height="40" as="alternateBounds" />
          </mxGeometry>
        </mxCell>
        <mxCell id="QaqN5k4PvZ0HnCuxRosK-392" value="" style="shape=tableRow;horizontal=0;startSize=0;swimlaneHead=0;swimlaneBody=0;strokeColor=inherit;top=0;left=0;bottom=0;right=0;collapsible=0;dropTarget=0;fillColor=none;points=[[0,0.5],[1,0.5]];portConstraint=eastwest;fontSize=16;" parent="QaqN5k4PvZ0HnCuxRosK-387" vertex="1">
          <mxGeometry y="40" width="180" height="40" as="geometry" />
        </mxCell>
        <mxCell id="QaqN5k4PvZ0HnCuxRosK-393" value="40" style="shape=partialRectangle;html=1;whiteSpace=wrap;connectable=0;strokeColor=inherit;overflow=hidden;fillColor=none;top=0;left=0;bottom=0;right=0;pointerEvents=1;fontSize=16;" parent="QaqN5k4PvZ0HnCuxRosK-392" vertex="1">
          <mxGeometry width="60" height="40" as="geometry">
            <mxRectangle width="60" height="40" as="alternateBounds" />
          </mxGeometry>
        </mxCell>
        <mxCell id="QaqN5k4PvZ0HnCuxRosK-394" value="" style="shape=partialRectangle;html=1;whiteSpace=wrap;connectable=0;strokeColor=inherit;overflow=hidden;fillColor=none;top=0;left=0;bottom=0;right=0;pointerEvents=1;fontSize=16;" parent="QaqN5k4PvZ0HnCuxRosK-392" vertex="1">
          <mxGeometry x="60" width="60" height="40" as="geometry">
            <mxRectangle width="60" height="40" as="alternateBounds" />
          </mxGeometry>
        </mxCell>
        <mxCell id="QaqN5k4PvZ0HnCuxRosK-395" value="" style="shape=partialRectangle;html=1;whiteSpace=wrap;connectable=0;strokeColor=inherit;overflow=hidden;fillColor=none;top=0;left=0;bottom=0;right=0;pointerEvents=1;fontSize=16;" parent="QaqN5k4PvZ0HnCuxRosK-392" vertex="1">
          <mxGeometry x="120" width="60" height="40" as="geometry">
            <mxRectangle width="60" height="40" as="alternateBounds" />
          </mxGeometry>
        </mxCell>
        <mxCell id="QaqN5k4PvZ0HnCuxRosK-396" value="" style="shape=tableRow;horizontal=0;startSize=0;swimlaneHead=0;swimlaneBody=0;strokeColor=inherit;top=0;left=0;bottom=0;right=0;collapsible=0;dropTarget=0;fillColor=none;points=[[0,0.5],[1,0.5]];portConstraint=eastwest;fontSize=16;" parent="QaqN5k4PvZ0HnCuxRosK-387" vertex="1">
          <mxGeometry y="80" width="180" height="40" as="geometry" />
        </mxCell>
        <mxCell id="QaqN5k4PvZ0HnCuxRosK-397" value="50" style="shape=partialRectangle;html=1;whiteSpace=wrap;connectable=0;strokeColor=inherit;overflow=hidden;fillColor=none;top=0;left=0;bottom=0;right=0;pointerEvents=1;fontSize=16;" parent="QaqN5k4PvZ0HnCuxRosK-396" vertex="1">
          <mxGeometry width="60" height="40" as="geometry">
            <mxRectangle width="60" height="40" as="alternateBounds" />
          </mxGeometry>
        </mxCell>
        <mxCell id="QaqN5k4PvZ0HnCuxRosK-398" value="" style="shape=partialRectangle;html=1;whiteSpace=wrap;connectable=0;strokeColor=inherit;overflow=hidden;fillColor=none;top=0;left=0;bottom=0;right=0;pointerEvents=1;fontSize=16;" parent="QaqN5k4PvZ0HnCuxRosK-396" vertex="1">
          <mxGeometry x="60" width="60" height="40" as="geometry">
            <mxRectangle width="60" height="40" as="alternateBounds" />
          </mxGeometry>
        </mxCell>
        <mxCell id="QaqN5k4PvZ0HnCuxRosK-399" value="" style="shape=partialRectangle;html=1;whiteSpace=wrap;connectable=0;strokeColor=inherit;overflow=hidden;fillColor=none;top=0;left=0;bottom=0;right=0;pointerEvents=1;fontSize=16;" parent="QaqN5k4PvZ0HnCuxRosK-396" vertex="1">
          <mxGeometry x="120" width="60" height="40" as="geometry">
            <mxRectangle width="60" height="40" as="alternateBounds" />
          </mxGeometry>
        </mxCell>
        <mxCell id="QaqN5k4PvZ0HnCuxRosK-400" style="shape=tableRow;horizontal=0;startSize=0;swimlaneHead=0;swimlaneBody=0;strokeColor=inherit;top=0;left=0;bottom=0;right=0;collapsible=0;dropTarget=0;fillColor=none;points=[[0,0.5],[1,0.5]];portConstraint=eastwest;fontSize=16;" parent="QaqN5k4PvZ0HnCuxRosK-387" vertex="1">
          <mxGeometry y="120" width="180" height="40" as="geometry" />
        </mxCell>
        <mxCell id="QaqN5k4PvZ0HnCuxRosK-401" value="60" style="shape=partialRectangle;html=1;whiteSpace=wrap;connectable=0;strokeColor=inherit;overflow=hidden;fillColor=none;top=0;left=0;bottom=0;right=0;pointerEvents=1;fontSize=16;" parent="QaqN5k4PvZ0HnCuxRosK-400" vertex="1">
          <mxGeometry width="60" height="40" as="geometry">
            <mxRectangle width="60" height="40" as="alternateBounds" />
          </mxGeometry>
        </mxCell>
        <mxCell id="QaqN5k4PvZ0HnCuxRosK-402" value="3" style="shape=partialRectangle;html=1;whiteSpace=wrap;connectable=0;strokeColor=inherit;overflow=hidden;fillColor=none;top=0;left=0;bottom=0;right=0;pointerEvents=1;fontSize=16;" parent="QaqN5k4PvZ0HnCuxRosK-400" vertex="1">
          <mxGeometry x="60" width="60" height="40" as="geometry">
            <mxRectangle width="60" height="40" as="alternateBounds" />
          </mxGeometry>
        </mxCell>
        <mxCell id="QaqN5k4PvZ0HnCuxRosK-403" style="shape=partialRectangle;html=1;whiteSpace=wrap;connectable=0;strokeColor=inherit;overflow=hidden;fillColor=none;top=0;left=0;bottom=0;right=0;pointerEvents=1;fontSize=16;" parent="QaqN5k4PvZ0HnCuxRosK-400" vertex="1">
          <mxGeometry x="120" width="60" height="40" as="geometry">
            <mxRectangle width="60" height="40" as="alternateBounds" />
          </mxGeometry>
        </mxCell>
        <mxCell id="QaqN5k4PvZ0HnCuxRosK-404" style="shape=tableRow;horizontal=0;startSize=0;swimlaneHead=0;swimlaneBody=0;strokeColor=inherit;top=0;left=0;bottom=0;right=0;collapsible=0;dropTarget=0;fillColor=none;points=[[0,0.5],[1,0.5]];portConstraint=eastwest;fontSize=16;" parent="QaqN5k4PvZ0HnCuxRosK-387" vertex="1">
          <mxGeometry y="160" width="180" height="40" as="geometry" />
        </mxCell>
        <mxCell id="QaqN5k4PvZ0HnCuxRosK-405" value="120" style="shape=partialRectangle;html=1;whiteSpace=wrap;connectable=0;strokeColor=inherit;overflow=hidden;fillColor=none;top=0;left=0;bottom=0;right=0;pointerEvents=1;fontSize=16;" parent="QaqN5k4PvZ0HnCuxRosK-404" vertex="1">
          <mxGeometry width="60" height="40" as="geometry">
            <mxRectangle width="60" height="40" as="alternateBounds" />
          </mxGeometry>
        </mxCell>
        <mxCell id="QaqN5k4PvZ0HnCuxRosK-406" value="2" style="shape=partialRectangle;html=1;whiteSpace=wrap;connectable=0;strokeColor=inherit;overflow=hidden;fillColor=none;top=0;left=0;bottom=0;right=0;pointerEvents=1;fontSize=16;" parent="QaqN5k4PvZ0HnCuxRosK-404" vertex="1">
          <mxGeometry x="60" width="60" height="40" as="geometry">
            <mxRectangle width="60" height="40" as="alternateBounds" />
          </mxGeometry>
        </mxCell>
        <mxCell id="QaqN5k4PvZ0HnCuxRosK-407" style="shape=partialRectangle;html=1;whiteSpace=wrap;connectable=0;strokeColor=inherit;overflow=hidden;fillColor=none;top=0;left=0;bottom=0;right=0;pointerEvents=1;fontSize=16;" parent="QaqN5k4PvZ0HnCuxRosK-404" vertex="1">
          <mxGeometry x="120" width="60" height="40" as="geometry">
            <mxRectangle width="60" height="40" as="alternateBounds" />
          </mxGeometry>
        </mxCell>
        <mxCell id="QaqN5k4PvZ0HnCuxRosK-408" style="shape=tableRow;horizontal=0;startSize=0;swimlaneHead=0;swimlaneBody=0;strokeColor=inherit;top=0;left=0;bottom=0;right=0;collapsible=0;dropTarget=0;fillColor=none;points=[[0,0.5],[1,0.5]];portConstraint=eastwest;fontSize=16;" parent="QaqN5k4PvZ0HnCuxRosK-387" vertex="1">
          <mxGeometry y="200" width="180" height="40" as="geometry" />
        </mxCell>
        <mxCell id="QaqN5k4PvZ0HnCuxRosK-409" value="190" style="shape=partialRectangle;html=1;whiteSpace=wrap;connectable=0;strokeColor=inherit;overflow=hidden;fillColor=none;top=0;left=0;bottom=0;right=0;pointerEvents=1;fontSize=16;" parent="QaqN5k4PvZ0HnCuxRosK-408" vertex="1">
          <mxGeometry width="60" height="40" as="geometry">
            <mxRectangle width="60" height="40" as="alternateBounds" />
          </mxGeometry>
        </mxCell>
        <mxCell id="QaqN5k4PvZ0HnCuxRosK-410" value="4" style="shape=partialRectangle;html=1;whiteSpace=wrap;connectable=0;strokeColor=inherit;overflow=hidden;fillColor=none;top=0;left=0;bottom=0;right=0;pointerEvents=1;fontSize=16;" parent="QaqN5k4PvZ0HnCuxRosK-408" vertex="1">
          <mxGeometry x="60" width="60" height="40" as="geometry">
            <mxRectangle width="60" height="40" as="alternateBounds" />
          </mxGeometry>
        </mxCell>
        <mxCell id="QaqN5k4PvZ0HnCuxRosK-411" style="shape=partialRectangle;html=1;whiteSpace=wrap;connectable=0;strokeColor=inherit;overflow=hidden;fillColor=none;top=0;left=0;bottom=0;right=0;pointerEvents=1;fontSize=16;" parent="QaqN5k4PvZ0HnCuxRosK-408" vertex="1">
          <mxGeometry x="120" width="60" height="40" as="geometry">
            <mxRectangle width="60" height="40" as="alternateBounds" />
          </mxGeometry>
        </mxCell>
        <mxCell id="QaqN5k4PvZ0HnCuxRosK-412" value="" style="shape=table;startSize=0;container=1;collapsible=0;childLayout=tableLayout;fontSize=16;" parent="1" vertex="1">
          <mxGeometry x="2780" y="2890" width="180" height="240" as="geometry" />
        </mxCell>
        <mxCell id="QaqN5k4PvZ0HnCuxRosK-413" value="" style="shape=tableRow;horizontal=0;startSize=0;swimlaneHead=0;swimlaneBody=0;strokeColor=inherit;top=0;left=0;bottom=0;right=0;collapsible=0;dropTarget=0;fillColor=none;points=[[0,0.5],[1,0.5]];portConstraint=eastwest;fontSize=16;" parent="QaqN5k4PvZ0HnCuxRosK-412" vertex="1">
          <mxGeometry width="180" height="40" as="geometry" />
        </mxCell>
        <mxCell id="QaqN5k4PvZ0HnCuxRosK-414" value="20" style="shape=partialRectangle;html=1;whiteSpace=wrap;connectable=0;strokeColor=inherit;overflow=hidden;fillColor=none;top=0;left=0;bottom=0;right=0;pointerEvents=1;fontSize=16;" parent="QaqN5k4PvZ0HnCuxRosK-413" vertex="1">
          <mxGeometry width="60" height="40" as="geometry">
            <mxRectangle width="60" height="40" as="alternateBounds" />
          </mxGeometry>
        </mxCell>
        <mxCell id="QaqN5k4PvZ0HnCuxRosK-415" value="4+2" style="shape=partialRectangle;html=1;whiteSpace=wrap;connectable=0;strokeColor=inherit;overflow=hidden;fillColor=none;top=0;left=0;bottom=0;right=0;pointerEvents=1;fontSize=16;" parent="QaqN5k4PvZ0HnCuxRosK-413" vertex="1">
          <mxGeometry x="60" width="60" height="40" as="geometry">
            <mxRectangle width="60" height="40" as="alternateBounds" />
          </mxGeometry>
        </mxCell>
        <mxCell id="QaqN5k4PvZ0HnCuxRosK-416" value="" style="shape=partialRectangle;html=1;whiteSpace=wrap;connectable=0;strokeColor=inherit;overflow=hidden;fillColor=none;top=0;left=0;bottom=0;right=0;pointerEvents=1;fontSize=16;" parent="QaqN5k4PvZ0HnCuxRosK-413" vertex="1">
          <mxGeometry x="120" width="60" height="40" as="geometry">
            <mxRectangle width="60" height="40" as="alternateBounds" />
          </mxGeometry>
        </mxCell>
        <mxCell id="QaqN5k4PvZ0HnCuxRosK-417" value="" style="shape=tableRow;horizontal=0;startSize=0;swimlaneHead=0;swimlaneBody=0;strokeColor=inherit;top=0;left=0;bottom=0;right=0;collapsible=0;dropTarget=0;fillColor=none;points=[[0,0.5],[1,0.5]];portConstraint=eastwest;fontSize=16;" parent="QaqN5k4PvZ0HnCuxRosK-412" vertex="1">
          <mxGeometry y="40" width="180" height="40" as="geometry" />
        </mxCell>
        <mxCell id="QaqN5k4PvZ0HnCuxRosK-418" value="40" style="shape=partialRectangle;html=1;whiteSpace=wrap;connectable=0;strokeColor=inherit;overflow=hidden;fillColor=none;top=0;left=0;bottom=0;right=0;pointerEvents=1;fontSize=16;" parent="QaqN5k4PvZ0HnCuxRosK-417" vertex="1">
          <mxGeometry width="60" height="40" as="geometry">
            <mxRectangle width="60" height="40" as="alternateBounds" />
          </mxGeometry>
        </mxCell>
        <mxCell id="QaqN5k4PvZ0HnCuxRosK-419" value="2" style="shape=partialRectangle;html=1;whiteSpace=wrap;connectable=0;strokeColor=inherit;overflow=hidden;fillColor=none;top=0;left=0;bottom=0;right=0;pointerEvents=1;fontSize=16;" parent="QaqN5k4PvZ0HnCuxRosK-417" vertex="1">
          <mxGeometry x="60" width="60" height="40" as="geometry">
            <mxRectangle width="60" height="40" as="alternateBounds" />
          </mxGeometry>
        </mxCell>
        <mxCell id="QaqN5k4PvZ0HnCuxRosK-420" value="" style="shape=partialRectangle;html=1;whiteSpace=wrap;connectable=0;strokeColor=inherit;overflow=hidden;fillColor=none;top=0;left=0;bottom=0;right=0;pointerEvents=1;fontSize=16;" parent="QaqN5k4PvZ0HnCuxRosK-417" vertex="1">
          <mxGeometry x="120" width="60" height="40" as="geometry">
            <mxRectangle width="60" height="40" as="alternateBounds" />
          </mxGeometry>
        </mxCell>
        <mxCell id="QaqN5k4PvZ0HnCuxRosK-421" value="" style="shape=tableRow;horizontal=0;startSize=0;swimlaneHead=0;swimlaneBody=0;strokeColor=inherit;top=0;left=0;bottom=0;right=0;collapsible=0;dropTarget=0;fillColor=none;points=[[0,0.5],[1,0.5]];portConstraint=eastwest;fontSize=16;" parent="QaqN5k4PvZ0HnCuxRosK-412" vertex="1">
          <mxGeometry y="80" width="180" height="40" as="geometry" />
        </mxCell>
        <mxCell id="QaqN5k4PvZ0HnCuxRosK-422" value="50" style="shape=partialRectangle;html=1;whiteSpace=wrap;connectable=0;strokeColor=inherit;overflow=hidden;fillColor=none;top=0;left=0;bottom=0;right=0;pointerEvents=1;fontSize=16;" parent="QaqN5k4PvZ0HnCuxRosK-421" vertex="1">
          <mxGeometry width="60" height="40" as="geometry">
            <mxRectangle width="60" height="40" as="alternateBounds" />
          </mxGeometry>
        </mxCell>
        <mxCell id="QaqN5k4PvZ0HnCuxRosK-423" value="2" style="shape=partialRectangle;html=1;whiteSpace=wrap;connectable=0;strokeColor=inherit;overflow=hidden;fillColor=none;top=0;left=0;bottom=0;right=0;pointerEvents=1;fontSize=16;" parent="QaqN5k4PvZ0HnCuxRosK-421" vertex="1">
          <mxGeometry x="60" width="60" height="40" as="geometry">
            <mxRectangle width="60" height="40" as="alternateBounds" />
          </mxGeometry>
        </mxCell>
        <mxCell id="QaqN5k4PvZ0HnCuxRosK-424" value="" style="shape=partialRectangle;html=1;whiteSpace=wrap;connectable=0;strokeColor=inherit;overflow=hidden;fillColor=none;top=0;left=0;bottom=0;right=0;pointerEvents=1;fontSize=16;" parent="QaqN5k4PvZ0HnCuxRosK-421" vertex="1">
          <mxGeometry x="120" width="60" height="40" as="geometry">
            <mxRectangle width="60" height="40" as="alternateBounds" />
          </mxGeometry>
        </mxCell>
        <mxCell id="QaqN5k4PvZ0HnCuxRosK-425" style="shape=tableRow;horizontal=0;startSize=0;swimlaneHead=0;swimlaneBody=0;strokeColor=inherit;top=0;left=0;bottom=0;right=0;collapsible=0;dropTarget=0;fillColor=none;points=[[0,0.5],[1,0.5]];portConstraint=eastwest;fontSize=16;" parent="QaqN5k4PvZ0HnCuxRosK-412" vertex="1">
          <mxGeometry y="120" width="180" height="40" as="geometry" />
        </mxCell>
        <mxCell id="QaqN5k4PvZ0HnCuxRosK-426" value="60" style="shape=partialRectangle;html=1;whiteSpace=wrap;connectable=0;strokeColor=inherit;overflow=hidden;fillColor=none;top=0;left=0;bottom=0;right=0;pointerEvents=1;fontSize=16;" parent="QaqN5k4PvZ0HnCuxRosK-425" vertex="1">
          <mxGeometry width="60" height="40" as="geometry">
            <mxRectangle width="60" height="40" as="alternateBounds" />
          </mxGeometry>
        </mxCell>
        <mxCell id="QaqN5k4PvZ0HnCuxRosK-427" value="3" style="shape=partialRectangle;html=1;whiteSpace=wrap;connectable=0;strokeColor=inherit;overflow=hidden;fillColor=none;top=0;left=0;bottom=0;right=0;pointerEvents=1;fontSize=16;" parent="QaqN5k4PvZ0HnCuxRosK-425" vertex="1">
          <mxGeometry x="60" width="60" height="40" as="geometry">
            <mxRectangle width="60" height="40" as="alternateBounds" />
          </mxGeometry>
        </mxCell>
        <mxCell id="QaqN5k4PvZ0HnCuxRosK-428" style="shape=partialRectangle;html=1;whiteSpace=wrap;connectable=0;strokeColor=inherit;overflow=hidden;fillColor=none;top=0;left=0;bottom=0;right=0;pointerEvents=1;fontSize=16;" parent="QaqN5k4PvZ0HnCuxRosK-425" vertex="1">
          <mxGeometry x="120" width="60" height="40" as="geometry">
            <mxRectangle width="60" height="40" as="alternateBounds" />
          </mxGeometry>
        </mxCell>
        <mxCell id="QaqN5k4PvZ0HnCuxRosK-429" style="shape=tableRow;horizontal=0;startSize=0;swimlaneHead=0;swimlaneBody=0;strokeColor=inherit;top=0;left=0;bottom=0;right=0;collapsible=0;dropTarget=0;fillColor=none;points=[[0,0.5],[1,0.5]];portConstraint=eastwest;fontSize=16;" parent="QaqN5k4PvZ0HnCuxRosK-412" vertex="1">
          <mxGeometry y="160" width="180" height="40" as="geometry" />
        </mxCell>
        <mxCell id="QaqN5k4PvZ0HnCuxRosK-430" value="120" style="shape=partialRectangle;html=1;whiteSpace=wrap;connectable=0;strokeColor=inherit;overflow=hidden;fillColor=none;top=0;left=0;bottom=0;right=0;pointerEvents=1;fontSize=16;" parent="QaqN5k4PvZ0HnCuxRosK-429" vertex="1">
          <mxGeometry width="60" height="40" as="geometry">
            <mxRectangle width="60" height="40" as="alternateBounds" />
          </mxGeometry>
        </mxCell>
        <mxCell id="QaqN5k4PvZ0HnCuxRosK-431" value="2" style="shape=partialRectangle;html=1;whiteSpace=wrap;connectable=0;strokeColor=inherit;overflow=hidden;fillColor=none;top=0;left=0;bottom=0;right=0;pointerEvents=1;fontSize=16;" parent="QaqN5k4PvZ0HnCuxRosK-429" vertex="1">
          <mxGeometry x="60" width="60" height="40" as="geometry">
            <mxRectangle width="60" height="40" as="alternateBounds" />
          </mxGeometry>
        </mxCell>
        <mxCell id="QaqN5k4PvZ0HnCuxRosK-432" style="shape=partialRectangle;html=1;whiteSpace=wrap;connectable=0;strokeColor=inherit;overflow=hidden;fillColor=none;top=0;left=0;bottom=0;right=0;pointerEvents=1;fontSize=16;" parent="QaqN5k4PvZ0HnCuxRosK-429" vertex="1">
          <mxGeometry x="120" width="60" height="40" as="geometry">
            <mxRectangle width="60" height="40" as="alternateBounds" />
          </mxGeometry>
        </mxCell>
        <mxCell id="QaqN5k4PvZ0HnCuxRosK-433" style="shape=tableRow;horizontal=0;startSize=0;swimlaneHead=0;swimlaneBody=0;strokeColor=inherit;top=0;left=0;bottom=0;right=0;collapsible=0;dropTarget=0;fillColor=none;points=[[0,0.5],[1,0.5]];portConstraint=eastwest;fontSize=16;" parent="QaqN5k4PvZ0HnCuxRosK-412" vertex="1">
          <mxGeometry y="200" width="180" height="40" as="geometry" />
        </mxCell>
        <mxCell id="QaqN5k4PvZ0HnCuxRosK-434" value="190" style="shape=partialRectangle;html=1;whiteSpace=wrap;connectable=0;strokeColor=inherit;overflow=hidden;fillColor=none;top=0;left=0;bottom=0;right=0;pointerEvents=1;fontSize=16;" parent="QaqN5k4PvZ0HnCuxRosK-433" vertex="1">
          <mxGeometry width="60" height="40" as="geometry">
            <mxRectangle width="60" height="40" as="alternateBounds" />
          </mxGeometry>
        </mxCell>
        <mxCell id="QaqN5k4PvZ0HnCuxRosK-435" value="4" style="shape=partialRectangle;html=1;whiteSpace=wrap;connectable=0;strokeColor=inherit;overflow=hidden;fillColor=none;top=0;left=0;bottom=0;right=0;pointerEvents=1;fontSize=16;" parent="QaqN5k4PvZ0HnCuxRosK-433" vertex="1">
          <mxGeometry x="60" width="60" height="40" as="geometry">
            <mxRectangle width="60" height="40" as="alternateBounds" />
          </mxGeometry>
        </mxCell>
        <mxCell id="QaqN5k4PvZ0HnCuxRosK-436" style="shape=partialRectangle;html=1;whiteSpace=wrap;connectable=0;strokeColor=inherit;overflow=hidden;fillColor=none;top=0;left=0;bottom=0;right=0;pointerEvents=1;fontSize=16;" parent="QaqN5k4PvZ0HnCuxRosK-433" vertex="1">
          <mxGeometry x="120" width="60" height="40" as="geometry">
            <mxRectangle width="60" height="40" as="alternateBounds" />
          </mxGeometry>
        </mxCell>
        <mxCell id="QaqN5k4PvZ0HnCuxRosK-437" value="" style="shape=table;startSize=0;container=1;collapsible=0;childLayout=tableLayout;fontSize=16;" parent="1" vertex="1">
          <mxGeometry x="3600" y="2880" width="180" height="240" as="geometry" />
        </mxCell>
        <mxCell id="QaqN5k4PvZ0HnCuxRosK-438" value="" style="shape=tableRow;horizontal=0;startSize=0;swimlaneHead=0;swimlaneBody=0;strokeColor=inherit;top=0;left=0;bottom=0;right=0;collapsible=0;dropTarget=0;fillColor=none;points=[[0,0.5],[1,0.5]];portConstraint=eastwest;fontSize=16;" parent="QaqN5k4PvZ0HnCuxRosK-437" vertex="1">
          <mxGeometry width="180" height="40" as="geometry" />
        </mxCell>
        <mxCell id="QaqN5k4PvZ0HnCuxRosK-439" value="20" style="shape=partialRectangle;html=1;whiteSpace=wrap;connectable=0;strokeColor=inherit;overflow=hidden;fillColor=none;top=0;left=0;bottom=0;right=0;pointerEvents=1;fontSize=16;" parent="QaqN5k4PvZ0HnCuxRosK-438" vertex="1">
          <mxGeometry width="60" height="40" as="geometry">
            <mxRectangle width="60" height="40" as="alternateBounds" />
          </mxGeometry>
        </mxCell>
        <mxCell id="QaqN5k4PvZ0HnCuxRosK-440" value="4+2+2" style="shape=partialRectangle;html=1;whiteSpace=wrap;connectable=0;strokeColor=inherit;overflow=hidden;fillColor=none;top=0;left=0;bottom=0;right=0;pointerEvents=1;fontSize=16;" parent="QaqN5k4PvZ0HnCuxRosK-438" vertex="1">
          <mxGeometry x="60" width="60" height="40" as="geometry">
            <mxRectangle width="60" height="40" as="alternateBounds" />
          </mxGeometry>
        </mxCell>
        <mxCell id="QaqN5k4PvZ0HnCuxRosK-441" value="" style="shape=partialRectangle;html=1;whiteSpace=wrap;connectable=0;strokeColor=inherit;overflow=hidden;fillColor=none;top=0;left=0;bottom=0;right=0;pointerEvents=1;fontSize=16;" parent="QaqN5k4PvZ0HnCuxRosK-438" vertex="1">
          <mxGeometry x="120" width="60" height="40" as="geometry">
            <mxRectangle width="60" height="40" as="alternateBounds" />
          </mxGeometry>
        </mxCell>
        <mxCell id="QaqN5k4PvZ0HnCuxRosK-442" value="" style="shape=tableRow;horizontal=0;startSize=0;swimlaneHead=0;swimlaneBody=0;strokeColor=inherit;top=0;left=0;bottom=0;right=0;collapsible=0;dropTarget=0;fillColor=none;points=[[0,0.5],[1,0.5]];portConstraint=eastwest;fontSize=16;" parent="QaqN5k4PvZ0HnCuxRosK-437" vertex="1">
          <mxGeometry y="40" width="180" height="40" as="geometry" />
        </mxCell>
        <mxCell id="QaqN5k4PvZ0HnCuxRosK-443" value="40" style="shape=partialRectangle;html=1;whiteSpace=wrap;connectable=0;strokeColor=inherit;overflow=hidden;fillColor=none;top=0;left=0;bottom=0;right=0;pointerEvents=1;fontSize=16;" parent="QaqN5k4PvZ0HnCuxRosK-442" vertex="1">
          <mxGeometry width="60" height="40" as="geometry">
            <mxRectangle width="60" height="40" as="alternateBounds" />
          </mxGeometry>
        </mxCell>
        <mxCell id="QaqN5k4PvZ0HnCuxRosK-444" value="2" style="shape=partialRectangle;html=1;whiteSpace=wrap;connectable=0;strokeColor=inherit;overflow=hidden;fillColor=none;top=0;left=0;bottom=0;right=0;pointerEvents=1;fontSize=16;" parent="QaqN5k4PvZ0HnCuxRosK-442" vertex="1">
          <mxGeometry x="60" width="60" height="40" as="geometry">
            <mxRectangle width="60" height="40" as="alternateBounds" />
          </mxGeometry>
        </mxCell>
        <mxCell id="QaqN5k4PvZ0HnCuxRosK-445" value="" style="shape=partialRectangle;html=1;whiteSpace=wrap;connectable=0;strokeColor=inherit;overflow=hidden;fillColor=none;top=0;left=0;bottom=0;right=0;pointerEvents=1;fontSize=16;" parent="QaqN5k4PvZ0HnCuxRosK-442" vertex="1">
          <mxGeometry x="120" width="60" height="40" as="geometry">
            <mxRectangle width="60" height="40" as="alternateBounds" />
          </mxGeometry>
        </mxCell>
        <mxCell id="QaqN5k4PvZ0HnCuxRosK-446" value="" style="shape=tableRow;horizontal=0;startSize=0;swimlaneHead=0;swimlaneBody=0;strokeColor=inherit;top=0;left=0;bottom=0;right=0;collapsible=0;dropTarget=0;fillColor=none;points=[[0,0.5],[1,0.5]];portConstraint=eastwest;fontSize=16;" parent="QaqN5k4PvZ0HnCuxRosK-437" vertex="1">
          <mxGeometry y="80" width="180" height="40" as="geometry" />
        </mxCell>
        <mxCell id="QaqN5k4PvZ0HnCuxRosK-447" value="50" style="shape=partialRectangle;html=1;whiteSpace=wrap;connectable=0;strokeColor=inherit;overflow=hidden;fillColor=none;top=0;left=0;bottom=0;right=0;pointerEvents=1;fontSize=16;" parent="QaqN5k4PvZ0HnCuxRosK-446" vertex="1">
          <mxGeometry width="60" height="40" as="geometry">
            <mxRectangle width="60" height="40" as="alternateBounds" />
          </mxGeometry>
        </mxCell>
        <mxCell id="QaqN5k4PvZ0HnCuxRosK-448" value="2" style="shape=partialRectangle;html=1;whiteSpace=wrap;connectable=0;strokeColor=inherit;overflow=hidden;fillColor=none;top=0;left=0;bottom=0;right=0;pointerEvents=1;fontSize=16;" parent="QaqN5k4PvZ0HnCuxRosK-446" vertex="1">
          <mxGeometry x="60" width="60" height="40" as="geometry">
            <mxRectangle width="60" height="40" as="alternateBounds" />
          </mxGeometry>
        </mxCell>
        <mxCell id="QaqN5k4PvZ0HnCuxRosK-449" value="" style="shape=partialRectangle;html=1;whiteSpace=wrap;connectable=0;strokeColor=inherit;overflow=hidden;fillColor=none;top=0;left=0;bottom=0;right=0;pointerEvents=1;fontSize=16;" parent="QaqN5k4PvZ0HnCuxRosK-446" vertex="1">
          <mxGeometry x="120" width="60" height="40" as="geometry">
            <mxRectangle width="60" height="40" as="alternateBounds" />
          </mxGeometry>
        </mxCell>
        <mxCell id="QaqN5k4PvZ0HnCuxRosK-450" style="shape=tableRow;horizontal=0;startSize=0;swimlaneHead=0;swimlaneBody=0;strokeColor=inherit;top=0;left=0;bottom=0;right=0;collapsible=0;dropTarget=0;fillColor=none;points=[[0,0.5],[1,0.5]];portConstraint=eastwest;fontSize=16;" parent="QaqN5k4PvZ0HnCuxRosK-437" vertex="1">
          <mxGeometry y="120" width="180" height="40" as="geometry" />
        </mxCell>
        <mxCell id="QaqN5k4PvZ0HnCuxRosK-451" value="60" style="shape=partialRectangle;html=1;whiteSpace=wrap;connectable=0;strokeColor=inherit;overflow=hidden;fillColor=none;top=0;left=0;bottom=0;right=0;pointerEvents=1;fontSize=16;" parent="QaqN5k4PvZ0HnCuxRosK-450" vertex="1">
          <mxGeometry width="60" height="40" as="geometry">
            <mxRectangle width="60" height="40" as="alternateBounds" />
          </mxGeometry>
        </mxCell>
        <mxCell id="QaqN5k4PvZ0HnCuxRosK-452" value="3" style="shape=partialRectangle;html=1;whiteSpace=wrap;connectable=0;strokeColor=inherit;overflow=hidden;fillColor=none;top=0;left=0;bottom=0;right=0;pointerEvents=1;fontSize=16;" parent="QaqN5k4PvZ0HnCuxRosK-450" vertex="1">
          <mxGeometry x="60" width="60" height="40" as="geometry">
            <mxRectangle width="60" height="40" as="alternateBounds" />
          </mxGeometry>
        </mxCell>
        <mxCell id="QaqN5k4PvZ0HnCuxRosK-453" style="shape=partialRectangle;html=1;whiteSpace=wrap;connectable=0;strokeColor=inherit;overflow=hidden;fillColor=none;top=0;left=0;bottom=0;right=0;pointerEvents=1;fontSize=16;" parent="QaqN5k4PvZ0HnCuxRosK-450" vertex="1">
          <mxGeometry x="120" width="60" height="40" as="geometry">
            <mxRectangle width="60" height="40" as="alternateBounds" />
          </mxGeometry>
        </mxCell>
        <mxCell id="QaqN5k4PvZ0HnCuxRosK-454" style="shape=tableRow;horizontal=0;startSize=0;swimlaneHead=0;swimlaneBody=0;strokeColor=inherit;top=0;left=0;bottom=0;right=0;collapsible=0;dropTarget=0;fillColor=none;points=[[0,0.5],[1,0.5]];portConstraint=eastwest;fontSize=16;" parent="QaqN5k4PvZ0HnCuxRosK-437" vertex="1">
          <mxGeometry y="160" width="180" height="40" as="geometry" />
        </mxCell>
        <mxCell id="QaqN5k4PvZ0HnCuxRosK-455" value="120" style="shape=partialRectangle;html=1;whiteSpace=wrap;connectable=0;strokeColor=inherit;overflow=hidden;fillColor=none;top=0;left=0;bottom=0;right=0;pointerEvents=1;fontSize=16;" parent="QaqN5k4PvZ0HnCuxRosK-454" vertex="1">
          <mxGeometry width="60" height="40" as="geometry">
            <mxRectangle width="60" height="40" as="alternateBounds" />
          </mxGeometry>
        </mxCell>
        <mxCell id="QaqN5k4PvZ0HnCuxRosK-456" value="2" style="shape=partialRectangle;html=1;whiteSpace=wrap;connectable=0;strokeColor=inherit;overflow=hidden;fillColor=none;top=0;left=0;bottom=0;right=0;pointerEvents=1;fontSize=16;" parent="QaqN5k4PvZ0HnCuxRosK-454" vertex="1">
          <mxGeometry x="60" width="60" height="40" as="geometry">
            <mxRectangle width="60" height="40" as="alternateBounds" />
          </mxGeometry>
        </mxCell>
        <mxCell id="QaqN5k4PvZ0HnCuxRosK-457" style="shape=partialRectangle;html=1;whiteSpace=wrap;connectable=0;strokeColor=inherit;overflow=hidden;fillColor=none;top=0;left=0;bottom=0;right=0;pointerEvents=1;fontSize=16;" parent="QaqN5k4PvZ0HnCuxRosK-454" vertex="1">
          <mxGeometry x="120" width="60" height="40" as="geometry">
            <mxRectangle width="60" height="40" as="alternateBounds" />
          </mxGeometry>
        </mxCell>
        <mxCell id="QaqN5k4PvZ0HnCuxRosK-458" style="shape=tableRow;horizontal=0;startSize=0;swimlaneHead=0;swimlaneBody=0;strokeColor=inherit;top=0;left=0;bottom=0;right=0;collapsible=0;dropTarget=0;fillColor=none;points=[[0,0.5],[1,0.5]];portConstraint=eastwest;fontSize=16;" parent="QaqN5k4PvZ0HnCuxRosK-437" vertex="1">
          <mxGeometry y="200" width="180" height="40" as="geometry" />
        </mxCell>
        <mxCell id="QaqN5k4PvZ0HnCuxRosK-459" value="190" style="shape=partialRectangle;html=1;whiteSpace=wrap;connectable=0;strokeColor=inherit;overflow=hidden;fillColor=none;top=0;left=0;bottom=0;right=0;pointerEvents=1;fontSize=16;" parent="QaqN5k4PvZ0HnCuxRosK-458" vertex="1">
          <mxGeometry width="60" height="40" as="geometry">
            <mxRectangle width="60" height="40" as="alternateBounds" />
          </mxGeometry>
        </mxCell>
        <mxCell id="QaqN5k4PvZ0HnCuxRosK-460" value="4" style="shape=partialRectangle;html=1;whiteSpace=wrap;connectable=0;strokeColor=inherit;overflow=hidden;fillColor=none;top=0;left=0;bottom=0;right=0;pointerEvents=1;fontSize=16;" parent="QaqN5k4PvZ0HnCuxRosK-458" vertex="1">
          <mxGeometry x="60" width="60" height="40" as="geometry">
            <mxRectangle width="60" height="40" as="alternateBounds" />
          </mxGeometry>
        </mxCell>
        <mxCell id="QaqN5k4PvZ0HnCuxRosK-461" style="shape=partialRectangle;html=1;whiteSpace=wrap;connectable=0;strokeColor=inherit;overflow=hidden;fillColor=none;top=0;left=0;bottom=0;right=0;pointerEvents=1;fontSize=16;" parent="QaqN5k4PvZ0HnCuxRosK-458" vertex="1">
          <mxGeometry x="120" width="60" height="40" as="geometry">
            <mxRectangle width="60" height="40" as="alternateBounds" />
          </mxGeometry>
        </mxCell>
        <mxCell id="QaqN5k4PvZ0HnCuxRosK-462" value="" style="shape=table;startSize=0;container=1;collapsible=0;childLayout=tableLayout;fontSize=16;" parent="1" vertex="1">
          <mxGeometry x="4420" y="2870" width="180" height="240" as="geometry" />
        </mxCell>
        <mxCell id="QaqN5k4PvZ0HnCuxRosK-463" value="" style="shape=tableRow;horizontal=0;startSize=0;swimlaneHead=0;swimlaneBody=0;strokeColor=inherit;top=0;left=0;bottom=0;right=0;collapsible=0;dropTarget=0;fillColor=none;points=[[0,0.5],[1,0.5]];portConstraint=eastwest;fontSize=16;" parent="QaqN5k4PvZ0HnCuxRosK-462" vertex="1">
          <mxGeometry width="180" height="40" as="geometry" />
        </mxCell>
        <mxCell id="QaqN5k4PvZ0HnCuxRosK-464" value="20" style="shape=partialRectangle;html=1;whiteSpace=wrap;connectable=0;strokeColor=inherit;overflow=hidden;fillColor=none;top=0;left=0;bottom=0;right=0;pointerEvents=1;fontSize=16;" parent="QaqN5k4PvZ0HnCuxRosK-463" vertex="1">
          <mxGeometry width="60" height="40" as="geometry">
            <mxRectangle width="60" height="40" as="alternateBounds" />
          </mxGeometry>
        </mxCell>
        <mxCell id="QaqN5k4PvZ0HnCuxRosK-465" value="4+2+2" style="shape=partialRectangle;html=1;whiteSpace=wrap;connectable=0;strokeColor=inherit;overflow=hidden;fillColor=none;top=0;left=0;bottom=0;right=0;pointerEvents=1;fontSize=16;" parent="QaqN5k4PvZ0HnCuxRosK-463" vertex="1">
          <mxGeometry x="60" width="60" height="40" as="geometry">
            <mxRectangle width="60" height="40" as="alternateBounds" />
          </mxGeometry>
        </mxCell>
        <mxCell id="QaqN5k4PvZ0HnCuxRosK-466" value="" style="shape=partialRectangle;html=1;whiteSpace=wrap;connectable=0;strokeColor=inherit;overflow=hidden;fillColor=none;top=0;left=0;bottom=0;right=0;pointerEvents=1;fontSize=16;" parent="QaqN5k4PvZ0HnCuxRosK-463" vertex="1">
          <mxGeometry x="120" width="60" height="40" as="geometry">
            <mxRectangle width="60" height="40" as="alternateBounds" />
          </mxGeometry>
        </mxCell>
        <mxCell id="QaqN5k4PvZ0HnCuxRosK-467" value="" style="shape=tableRow;horizontal=0;startSize=0;swimlaneHead=0;swimlaneBody=0;strokeColor=inherit;top=0;left=0;bottom=0;right=0;collapsible=0;dropTarget=0;fillColor=none;points=[[0,0.5],[1,0.5]];portConstraint=eastwest;fontSize=16;" parent="QaqN5k4PvZ0HnCuxRosK-462" vertex="1">
          <mxGeometry y="40" width="180" height="40" as="geometry" />
        </mxCell>
        <mxCell id="QaqN5k4PvZ0HnCuxRosK-468" value="40" style="shape=partialRectangle;html=1;whiteSpace=wrap;connectable=0;strokeColor=inherit;overflow=hidden;fillColor=none;top=0;left=0;bottom=0;right=0;pointerEvents=1;fontSize=16;" parent="QaqN5k4PvZ0HnCuxRosK-467" vertex="1">
          <mxGeometry width="60" height="40" as="geometry">
            <mxRectangle width="60" height="40" as="alternateBounds" />
          </mxGeometry>
        </mxCell>
        <mxCell id="QaqN5k4PvZ0HnCuxRosK-469" value="2+2" style="shape=partialRectangle;html=1;whiteSpace=wrap;connectable=0;strokeColor=inherit;overflow=hidden;fillColor=none;top=0;left=0;bottom=0;right=0;pointerEvents=1;fontSize=16;" parent="QaqN5k4PvZ0HnCuxRosK-467" vertex="1">
          <mxGeometry x="60" width="60" height="40" as="geometry">
            <mxRectangle width="60" height="40" as="alternateBounds" />
          </mxGeometry>
        </mxCell>
        <mxCell id="QaqN5k4PvZ0HnCuxRosK-470" value="" style="shape=partialRectangle;html=1;whiteSpace=wrap;connectable=0;strokeColor=inherit;overflow=hidden;fillColor=none;top=0;left=0;bottom=0;right=0;pointerEvents=1;fontSize=16;" parent="QaqN5k4PvZ0HnCuxRosK-467" vertex="1">
          <mxGeometry x="120" width="60" height="40" as="geometry">
            <mxRectangle width="60" height="40" as="alternateBounds" />
          </mxGeometry>
        </mxCell>
        <mxCell id="QaqN5k4PvZ0HnCuxRosK-471" value="" style="shape=tableRow;horizontal=0;startSize=0;swimlaneHead=0;swimlaneBody=0;strokeColor=inherit;top=0;left=0;bottom=0;right=0;collapsible=0;dropTarget=0;fillColor=none;points=[[0,0.5],[1,0.5]];portConstraint=eastwest;fontSize=16;" parent="QaqN5k4PvZ0HnCuxRosK-462" vertex="1">
          <mxGeometry y="80" width="180" height="40" as="geometry" />
        </mxCell>
        <mxCell id="QaqN5k4PvZ0HnCuxRosK-472" value="50" style="shape=partialRectangle;html=1;whiteSpace=wrap;connectable=0;strokeColor=inherit;overflow=hidden;fillColor=none;top=0;left=0;bottom=0;right=0;pointerEvents=1;fontSize=16;" parent="QaqN5k4PvZ0HnCuxRosK-471" vertex="1">
          <mxGeometry width="60" height="40" as="geometry">
            <mxRectangle width="60" height="40" as="alternateBounds" />
          </mxGeometry>
        </mxCell>
        <mxCell id="QaqN5k4PvZ0HnCuxRosK-473" value="2+2" style="shape=partialRectangle;html=1;whiteSpace=wrap;connectable=0;strokeColor=inherit;overflow=hidden;fillColor=none;top=0;left=0;bottom=0;right=0;pointerEvents=1;fontSize=16;" parent="QaqN5k4PvZ0HnCuxRosK-471" vertex="1">
          <mxGeometry x="60" width="60" height="40" as="geometry">
            <mxRectangle width="60" height="40" as="alternateBounds" />
          </mxGeometry>
        </mxCell>
        <mxCell id="QaqN5k4PvZ0HnCuxRosK-474" value="" style="shape=partialRectangle;html=1;whiteSpace=wrap;connectable=0;strokeColor=inherit;overflow=hidden;fillColor=none;top=0;left=0;bottom=0;right=0;pointerEvents=1;fontSize=16;" parent="QaqN5k4PvZ0HnCuxRosK-471" vertex="1">
          <mxGeometry x="120" width="60" height="40" as="geometry">
            <mxRectangle width="60" height="40" as="alternateBounds" />
          </mxGeometry>
        </mxCell>
        <mxCell id="QaqN5k4PvZ0HnCuxRosK-475" style="shape=tableRow;horizontal=0;startSize=0;swimlaneHead=0;swimlaneBody=0;strokeColor=inherit;top=0;left=0;bottom=0;right=0;collapsible=0;dropTarget=0;fillColor=none;points=[[0,0.5],[1,0.5]];portConstraint=eastwest;fontSize=16;" parent="QaqN5k4PvZ0HnCuxRosK-462" vertex="1">
          <mxGeometry y="120" width="180" height="40" as="geometry" />
        </mxCell>
        <mxCell id="QaqN5k4PvZ0HnCuxRosK-476" value="60" style="shape=partialRectangle;html=1;whiteSpace=wrap;connectable=0;strokeColor=inherit;overflow=hidden;fillColor=none;top=0;left=0;bottom=0;right=0;pointerEvents=1;fontSize=16;" parent="QaqN5k4PvZ0HnCuxRosK-475" vertex="1">
          <mxGeometry width="60" height="40" as="geometry">
            <mxRectangle width="60" height="40" as="alternateBounds" />
          </mxGeometry>
        </mxCell>
        <mxCell id="QaqN5k4PvZ0HnCuxRosK-477" value="3" style="shape=partialRectangle;html=1;whiteSpace=wrap;connectable=0;strokeColor=inherit;overflow=hidden;fillColor=none;top=0;left=0;bottom=0;right=0;pointerEvents=1;fontSize=16;" parent="QaqN5k4PvZ0HnCuxRosK-475" vertex="1">
          <mxGeometry x="60" width="60" height="40" as="geometry">
            <mxRectangle width="60" height="40" as="alternateBounds" />
          </mxGeometry>
        </mxCell>
        <mxCell id="QaqN5k4PvZ0HnCuxRosK-478" style="shape=partialRectangle;html=1;whiteSpace=wrap;connectable=0;strokeColor=inherit;overflow=hidden;fillColor=none;top=0;left=0;bottom=0;right=0;pointerEvents=1;fontSize=16;" parent="QaqN5k4PvZ0HnCuxRosK-475" vertex="1">
          <mxGeometry x="120" width="60" height="40" as="geometry">
            <mxRectangle width="60" height="40" as="alternateBounds" />
          </mxGeometry>
        </mxCell>
        <mxCell id="QaqN5k4PvZ0HnCuxRosK-479" style="shape=tableRow;horizontal=0;startSize=0;swimlaneHead=0;swimlaneBody=0;strokeColor=inherit;top=0;left=0;bottom=0;right=0;collapsible=0;dropTarget=0;fillColor=none;points=[[0,0.5],[1,0.5]];portConstraint=eastwest;fontSize=16;" parent="QaqN5k4PvZ0HnCuxRosK-462" vertex="1">
          <mxGeometry y="160" width="180" height="40" as="geometry" />
        </mxCell>
        <mxCell id="QaqN5k4PvZ0HnCuxRosK-480" value="120" style="shape=partialRectangle;html=1;whiteSpace=wrap;connectable=0;strokeColor=inherit;overflow=hidden;fillColor=none;top=0;left=0;bottom=0;right=0;pointerEvents=1;fontSize=16;" parent="QaqN5k4PvZ0HnCuxRosK-479" vertex="1">
          <mxGeometry width="60" height="40" as="geometry">
            <mxRectangle width="60" height="40" as="alternateBounds" />
          </mxGeometry>
        </mxCell>
        <mxCell id="QaqN5k4PvZ0HnCuxRosK-481" value="2" style="shape=partialRectangle;html=1;whiteSpace=wrap;connectable=0;strokeColor=inherit;overflow=hidden;fillColor=none;top=0;left=0;bottom=0;right=0;pointerEvents=1;fontSize=16;" parent="QaqN5k4PvZ0HnCuxRosK-479" vertex="1">
          <mxGeometry x="60" width="60" height="40" as="geometry">
            <mxRectangle width="60" height="40" as="alternateBounds" />
          </mxGeometry>
        </mxCell>
        <mxCell id="QaqN5k4PvZ0HnCuxRosK-482" style="shape=partialRectangle;html=1;whiteSpace=wrap;connectable=0;strokeColor=inherit;overflow=hidden;fillColor=none;top=0;left=0;bottom=0;right=0;pointerEvents=1;fontSize=16;" parent="QaqN5k4PvZ0HnCuxRosK-479" vertex="1">
          <mxGeometry x="120" width="60" height="40" as="geometry">
            <mxRectangle width="60" height="40" as="alternateBounds" />
          </mxGeometry>
        </mxCell>
        <mxCell id="QaqN5k4PvZ0HnCuxRosK-483" style="shape=tableRow;horizontal=0;startSize=0;swimlaneHead=0;swimlaneBody=0;strokeColor=inherit;top=0;left=0;bottom=0;right=0;collapsible=0;dropTarget=0;fillColor=none;points=[[0,0.5],[1,0.5]];portConstraint=eastwest;fontSize=16;" parent="QaqN5k4PvZ0HnCuxRosK-462" vertex="1">
          <mxGeometry y="200" width="180" height="40" as="geometry" />
        </mxCell>
        <mxCell id="QaqN5k4PvZ0HnCuxRosK-484" value="190" style="shape=partialRectangle;html=1;whiteSpace=wrap;connectable=0;strokeColor=inherit;overflow=hidden;fillColor=none;top=0;left=0;bottom=0;right=0;pointerEvents=1;fontSize=16;" parent="QaqN5k4PvZ0HnCuxRosK-483" vertex="1">
          <mxGeometry width="60" height="40" as="geometry">
            <mxRectangle width="60" height="40" as="alternateBounds" />
          </mxGeometry>
        </mxCell>
        <mxCell id="QaqN5k4PvZ0HnCuxRosK-485" value="4" style="shape=partialRectangle;html=1;whiteSpace=wrap;connectable=0;strokeColor=inherit;overflow=hidden;fillColor=none;top=0;left=0;bottom=0;right=0;pointerEvents=1;fontSize=16;" parent="QaqN5k4PvZ0HnCuxRosK-483" vertex="1">
          <mxGeometry x="60" width="60" height="40" as="geometry">
            <mxRectangle width="60" height="40" as="alternateBounds" />
          </mxGeometry>
        </mxCell>
        <mxCell id="QaqN5k4PvZ0HnCuxRosK-486" style="shape=partialRectangle;html=1;whiteSpace=wrap;connectable=0;strokeColor=inherit;overflow=hidden;fillColor=none;top=0;left=0;bottom=0;right=0;pointerEvents=1;fontSize=16;" parent="QaqN5k4PvZ0HnCuxRosK-483" vertex="1">
          <mxGeometry x="120" width="60" height="40" as="geometry">
            <mxRectangle width="60" height="40" as="alternateBounds" />
          </mxGeometry>
        </mxCell>
        <mxCell id="QaqN5k4PvZ0HnCuxRosK-487" value="" style="shape=table;startSize=0;container=1;collapsible=0;childLayout=tableLayout;fontSize=16;" parent="1" vertex="1">
          <mxGeometry x="5286" y="2860" width="180" height="240" as="geometry" />
        </mxCell>
        <mxCell id="QaqN5k4PvZ0HnCuxRosK-488" value="" style="shape=tableRow;horizontal=0;startSize=0;swimlaneHead=0;swimlaneBody=0;strokeColor=inherit;top=0;left=0;bottom=0;right=0;collapsible=0;dropTarget=0;fillColor=none;points=[[0,0.5],[1,0.5]];portConstraint=eastwest;fontSize=16;" parent="QaqN5k4PvZ0HnCuxRosK-487" vertex="1">
          <mxGeometry width="180" height="40" as="geometry" />
        </mxCell>
        <mxCell id="QaqN5k4PvZ0HnCuxRosK-489" value="20" style="shape=partialRectangle;html=1;whiteSpace=wrap;connectable=0;strokeColor=inherit;overflow=hidden;fillColor=none;top=0;left=0;bottom=0;right=0;pointerEvents=1;fontSize=16;" parent="QaqN5k4PvZ0HnCuxRosK-488" vertex="1">
          <mxGeometry width="60" height="40" as="geometry">
            <mxRectangle width="60" height="40" as="alternateBounds" />
          </mxGeometry>
        </mxCell>
        <mxCell id="QaqN5k4PvZ0HnCuxRosK-490" value="4+2+2" style="shape=partialRectangle;html=1;whiteSpace=wrap;connectable=0;strokeColor=inherit;overflow=hidden;fillColor=none;top=0;left=0;bottom=0;right=0;pointerEvents=1;fontSize=16;" parent="QaqN5k4PvZ0HnCuxRosK-488" vertex="1">
          <mxGeometry x="60" width="60" height="40" as="geometry">
            <mxRectangle width="60" height="40" as="alternateBounds" />
          </mxGeometry>
        </mxCell>
        <mxCell id="QaqN5k4PvZ0HnCuxRosK-491" value="8" style="shape=partialRectangle;html=1;whiteSpace=wrap;connectable=0;strokeColor=inherit;overflow=hidden;fillColor=none;top=0;left=0;bottom=0;right=0;pointerEvents=1;fontSize=16;" parent="QaqN5k4PvZ0HnCuxRosK-488" vertex="1">
          <mxGeometry x="120" width="60" height="40" as="geometry">
            <mxRectangle width="60" height="40" as="alternateBounds" />
          </mxGeometry>
        </mxCell>
        <mxCell id="QaqN5k4PvZ0HnCuxRosK-492" value="" style="shape=tableRow;horizontal=0;startSize=0;swimlaneHead=0;swimlaneBody=0;strokeColor=inherit;top=0;left=0;bottom=0;right=0;collapsible=0;dropTarget=0;fillColor=none;points=[[0,0.5],[1,0.5]];portConstraint=eastwest;fontSize=16;" parent="QaqN5k4PvZ0HnCuxRosK-487" vertex="1">
          <mxGeometry y="40" width="180" height="40" as="geometry" />
        </mxCell>
        <mxCell id="QaqN5k4PvZ0HnCuxRosK-493" value="40" style="shape=partialRectangle;html=1;whiteSpace=wrap;connectable=0;strokeColor=inherit;overflow=hidden;fillColor=none;top=0;left=0;bottom=0;right=0;pointerEvents=1;fontSize=16;" parent="QaqN5k4PvZ0HnCuxRosK-492" vertex="1">
          <mxGeometry width="60" height="40" as="geometry">
            <mxRectangle width="60" height="40" as="alternateBounds" />
          </mxGeometry>
        </mxCell>
        <mxCell id="QaqN5k4PvZ0HnCuxRosK-494" value="2+2" style="shape=partialRectangle;html=1;whiteSpace=wrap;connectable=0;strokeColor=inherit;overflow=hidden;fillColor=none;top=0;left=0;bottom=0;right=0;pointerEvents=1;fontSize=16;" parent="QaqN5k4PvZ0HnCuxRosK-492" vertex="1">
          <mxGeometry x="60" width="60" height="40" as="geometry">
            <mxRectangle width="60" height="40" as="alternateBounds" />
          </mxGeometry>
        </mxCell>
        <mxCell id="QaqN5k4PvZ0HnCuxRosK-495" value="4" style="shape=partialRectangle;html=1;whiteSpace=wrap;connectable=0;strokeColor=inherit;overflow=hidden;fillColor=none;top=0;left=0;bottom=0;right=0;pointerEvents=1;fontSize=16;" parent="QaqN5k4PvZ0HnCuxRosK-492" vertex="1">
          <mxGeometry x="120" width="60" height="40" as="geometry">
            <mxRectangle width="60" height="40" as="alternateBounds" />
          </mxGeometry>
        </mxCell>
        <mxCell id="QaqN5k4PvZ0HnCuxRosK-496" value="" style="shape=tableRow;horizontal=0;startSize=0;swimlaneHead=0;swimlaneBody=0;strokeColor=inherit;top=0;left=0;bottom=0;right=0;collapsible=0;dropTarget=0;fillColor=none;points=[[0,0.5],[1,0.5]];portConstraint=eastwest;fontSize=16;" parent="QaqN5k4PvZ0HnCuxRosK-487" vertex="1">
          <mxGeometry y="80" width="180" height="40" as="geometry" />
        </mxCell>
        <mxCell id="QaqN5k4PvZ0HnCuxRosK-497" value="50" style="shape=partialRectangle;html=1;whiteSpace=wrap;connectable=0;strokeColor=inherit;overflow=hidden;fillColor=none;top=0;left=0;bottom=0;right=0;pointerEvents=1;fontSize=16;" parent="QaqN5k4PvZ0HnCuxRosK-496" vertex="1">
          <mxGeometry width="60" height="40" as="geometry">
            <mxRectangle width="60" height="40" as="alternateBounds" />
          </mxGeometry>
        </mxCell>
        <mxCell id="QaqN5k4PvZ0HnCuxRosK-498" value="2+2+2" style="shape=partialRectangle;html=1;whiteSpace=wrap;connectable=0;strokeColor=inherit;overflow=hidden;fillColor=none;top=0;left=0;bottom=0;right=0;pointerEvents=1;fontSize=16;" parent="QaqN5k4PvZ0HnCuxRosK-496" vertex="1">
          <mxGeometry x="60" width="60" height="40" as="geometry">
            <mxRectangle width="60" height="40" as="alternateBounds" />
          </mxGeometry>
        </mxCell>
        <mxCell id="QaqN5k4PvZ0HnCuxRosK-499" value="6" style="shape=partialRectangle;html=1;whiteSpace=wrap;connectable=0;strokeColor=inherit;overflow=hidden;fillColor=none;top=0;left=0;bottom=0;right=0;pointerEvents=1;fontSize=16;" parent="QaqN5k4PvZ0HnCuxRosK-496" vertex="1">
          <mxGeometry x="120" width="60" height="40" as="geometry">
            <mxRectangle width="60" height="40" as="alternateBounds" />
          </mxGeometry>
        </mxCell>
        <mxCell id="QaqN5k4PvZ0HnCuxRosK-500" style="shape=tableRow;horizontal=0;startSize=0;swimlaneHead=0;swimlaneBody=0;strokeColor=inherit;top=0;left=0;bottom=0;right=0;collapsible=0;dropTarget=0;fillColor=none;points=[[0,0.5],[1,0.5]];portConstraint=eastwest;fontSize=16;" parent="QaqN5k4PvZ0HnCuxRosK-487" vertex="1">
          <mxGeometry y="120" width="180" height="40" as="geometry" />
        </mxCell>
        <mxCell id="QaqN5k4PvZ0HnCuxRosK-501" value="60" style="shape=partialRectangle;html=1;whiteSpace=wrap;connectable=0;strokeColor=inherit;overflow=hidden;fillColor=none;top=0;left=0;bottom=0;right=0;pointerEvents=1;fontSize=16;" parent="QaqN5k4PvZ0HnCuxRosK-500" vertex="1">
          <mxGeometry width="60" height="40" as="geometry">
            <mxRectangle width="60" height="40" as="alternateBounds" />
          </mxGeometry>
        </mxCell>
        <mxCell id="QaqN5k4PvZ0HnCuxRosK-502" value="3" style="shape=partialRectangle;html=1;whiteSpace=wrap;connectable=0;strokeColor=inherit;overflow=hidden;fillColor=none;top=0;left=0;bottom=0;right=0;pointerEvents=1;fontSize=16;" parent="QaqN5k4PvZ0HnCuxRosK-500" vertex="1">
          <mxGeometry x="60" width="60" height="40" as="geometry">
            <mxRectangle width="60" height="40" as="alternateBounds" />
          </mxGeometry>
        </mxCell>
        <mxCell id="QaqN5k4PvZ0HnCuxRosK-503" value="3" style="shape=partialRectangle;html=1;whiteSpace=wrap;connectable=0;strokeColor=inherit;overflow=hidden;fillColor=none;top=0;left=0;bottom=0;right=0;pointerEvents=1;fontSize=16;" parent="QaqN5k4PvZ0HnCuxRosK-500" vertex="1">
          <mxGeometry x="120" width="60" height="40" as="geometry">
            <mxRectangle width="60" height="40" as="alternateBounds" />
          </mxGeometry>
        </mxCell>
        <mxCell id="QaqN5k4PvZ0HnCuxRosK-504" style="shape=tableRow;horizontal=0;startSize=0;swimlaneHead=0;swimlaneBody=0;strokeColor=inherit;top=0;left=0;bottom=0;right=0;collapsible=0;dropTarget=0;fillColor=none;points=[[0,0.5],[1,0.5]];portConstraint=eastwest;fontSize=16;" parent="QaqN5k4PvZ0HnCuxRosK-487" vertex="1">
          <mxGeometry y="160" width="180" height="40" as="geometry" />
        </mxCell>
        <mxCell id="QaqN5k4PvZ0HnCuxRosK-505" value="120" style="shape=partialRectangle;html=1;whiteSpace=wrap;connectable=0;strokeColor=inherit;overflow=hidden;fillColor=none;top=0;left=0;bottom=0;right=0;pointerEvents=1;fontSize=16;" parent="QaqN5k4PvZ0HnCuxRosK-504" vertex="1">
          <mxGeometry width="60" height="40" as="geometry">
            <mxRectangle width="60" height="40" as="alternateBounds" />
          </mxGeometry>
        </mxCell>
        <mxCell id="QaqN5k4PvZ0HnCuxRosK-506" value="2+2" style="shape=partialRectangle;html=1;whiteSpace=wrap;connectable=0;strokeColor=inherit;overflow=hidden;fillColor=none;top=0;left=0;bottom=0;right=0;pointerEvents=1;fontSize=16;" parent="QaqN5k4PvZ0HnCuxRosK-504" vertex="1">
          <mxGeometry x="60" width="60" height="40" as="geometry">
            <mxRectangle width="60" height="40" as="alternateBounds" />
          </mxGeometry>
        </mxCell>
        <mxCell id="QaqN5k4PvZ0HnCuxRosK-507" value="4" style="shape=partialRectangle;html=1;whiteSpace=wrap;connectable=0;strokeColor=inherit;overflow=hidden;fillColor=none;top=0;left=0;bottom=0;right=0;pointerEvents=1;fontSize=16;" parent="QaqN5k4PvZ0HnCuxRosK-504" vertex="1">
          <mxGeometry x="120" width="60" height="40" as="geometry">
            <mxRectangle width="60" height="40" as="alternateBounds" />
          </mxGeometry>
        </mxCell>
        <mxCell id="QaqN5k4PvZ0HnCuxRosK-508" style="shape=tableRow;horizontal=0;startSize=0;swimlaneHead=0;swimlaneBody=0;strokeColor=inherit;top=0;left=0;bottom=0;right=0;collapsible=0;dropTarget=0;fillColor=none;points=[[0,0.5],[1,0.5]];portConstraint=eastwest;fontSize=16;" parent="QaqN5k4PvZ0HnCuxRosK-487" vertex="1">
          <mxGeometry y="200" width="180" height="40" as="geometry" />
        </mxCell>
        <mxCell id="QaqN5k4PvZ0HnCuxRosK-509" value="190" style="shape=partialRectangle;html=1;whiteSpace=wrap;connectable=0;strokeColor=inherit;overflow=hidden;fillColor=none;top=0;left=0;bottom=0;right=0;pointerEvents=1;fontSize=16;" parent="QaqN5k4PvZ0HnCuxRosK-508" vertex="1">
          <mxGeometry width="60" height="40" as="geometry">
            <mxRectangle width="60" height="40" as="alternateBounds" />
          </mxGeometry>
        </mxCell>
        <mxCell id="QaqN5k4PvZ0HnCuxRosK-510" value="4" style="shape=partialRectangle;html=1;whiteSpace=wrap;connectable=0;strokeColor=inherit;overflow=hidden;fillColor=none;top=0;left=0;bottom=0;right=0;pointerEvents=1;fontSize=16;" parent="QaqN5k4PvZ0HnCuxRosK-508" vertex="1">
          <mxGeometry x="60" width="60" height="40" as="geometry">
            <mxRectangle width="60" height="40" as="alternateBounds" />
          </mxGeometry>
        </mxCell>
        <mxCell id="QaqN5k4PvZ0HnCuxRosK-511" value="4" style="shape=partialRectangle;html=1;whiteSpace=wrap;connectable=0;strokeColor=inherit;overflow=hidden;fillColor=none;top=0;left=0;bottom=0;right=0;pointerEvents=1;fontSize=16;" parent="QaqN5k4PvZ0HnCuxRosK-508" vertex="1">
          <mxGeometry x="120" width="60" height="40" as="geometry">
            <mxRectangle width="60" height="40" as="alternateBounds" />
          </mxGeometry>
        </mxCell>
        <mxCell id="QaqN5k4PvZ0HnCuxRosK-532" value="80X60" style="verticalLabelPosition=bottom;verticalAlign=top;html=1;shape=mxgraph.basic.patternFillRect;fillStyle=diagGrid;step=5;fillStrokeWidth=0.2;fillStrokeColor=#dddddd;fillColor=#f5f5f5;strokeColor=#666666;fontColor=#333333;" parent="1" vertex="1">
          <mxGeometry x="6035.75" y="2483.0699999999997" width="314.96" height="236.22" as="geometry" />
        </mxCell>
        <mxCell id="QaqN5k4PvZ0HnCuxRosK-533" value="2-1" style="rounded=0;whiteSpace=wrap;html=1;fillColor=#f5f5f5;strokeColor=#666666;shadow=0;fontColor=#333333;" parent="1" vertex="1">
          <mxGeometry x="5878.27" y="2699.5999999999995" width="472.44" height="19.685" as="geometry" />
        </mxCell>
        <mxCell id="QaqN5k4PvZ0HnCuxRosK-534" value="2-2" style="rounded=0;whiteSpace=wrap;html=1;fillColor=#f5f5f5;strokeColor=#666666;shadow=0;fontColor=#333333;" parent="1" vertex="1">
          <mxGeometry x="5878.27" y="2482.5999999999995" width="472.44" height="19.685" as="geometry" />
        </mxCell>
        <mxCell id="QaqN5k4PvZ0HnCuxRosK-535" value="2-3" style="rounded=0;whiteSpace=wrap;html=1;fillColor=#f5f5f5;strokeColor=#666666;shadow=0;rotation=90;fontColor=#333333;" parent="1" vertex="1">
          <mxGeometry x="5770" y="2591.082999999999" width="236.22" height="19.685" as="geometry" />
        </mxCell>
        <mxCell id="QaqN5k4PvZ0HnCuxRosK-536" value="2-4" style="rounded=0;whiteSpace=wrap;html=1;fillColor=#f5f5f5;strokeColor=#666666;shadow=0;rotation=90;fontColor=#333333;" parent="1" vertex="1">
          <mxGeometry x="6222.76" y="2591.0799999999995" width="236.22" height="19.685" as="geometry" />
        </mxCell>
        <mxCell id="QaqN5k4PvZ0HnCuxRosK-537" value="2-5" style="rounded=0;whiteSpace=wrap;html=1;fillColor=#f5f5f5;strokeColor=#666666;shadow=0;rotation=90;fontColor=#333333;" parent="1" vertex="1">
          <mxGeometry x="5927.43" y="2591.0799999999995" width="236.22" height="19.685" as="geometry" />
        </mxCell>
        <mxCell id="QaqN5k4PvZ0HnCuxRosK-538" value="3-1" style="rounded=0;whiteSpace=wrap;html=1;fillColor=#f5f5f5;strokeColor=#666666;shadow=0;fontColor=#333333;" parent="1" vertex="1">
          <mxGeometry x="5878.97" y="2699.5999999999995" width="19.685" height="19.685" as="geometry" />
        </mxCell>
        <mxCell id="QaqN5k4PvZ0HnCuxRosK-539" value="3-2" style="rounded=0;whiteSpace=wrap;html=1;fillColor=#f5f5f5;strokeColor=#666666;shadow=0;fontColor=#333333;" parent="1" vertex="1">
          <mxGeometry x="5878.97" y="2483.0699999999993" width="19.685" height="19.685" as="geometry" />
        </mxCell>
        <mxCell id="QaqN5k4PvZ0HnCuxRosK-540" value="3-3" style="rounded=0;whiteSpace=wrap;html=1;fillColor=#f5f5f5;strokeColor=#666666;shadow=0;fontColor=#333333;" parent="1" vertex="1">
          <mxGeometry x="6331.73" y="2699.5999999999995" width="19.685" height="19.685" as="geometry" />
        </mxCell>
        <mxCell id="QaqN5k4PvZ0HnCuxRosK-541" value="3-4" style="rounded=0;whiteSpace=wrap;html=1;fillColor=#f5f5f5;strokeColor=#666666;shadow=0;fontColor=#333333;" parent="1" vertex="1">
          <mxGeometry x="6331.73" y="2483.0699999999993" width="19.685" height="19.685" as="geometry" />
        </mxCell>
        <mxCell id="QaqN5k4PvZ0HnCuxRosK-542" value="3-5" style="rounded=0;whiteSpace=wrap;html=1;fillColor=#f5f5f5;strokeColor=#666666;shadow=0;fontColor=#333333;" parent="1" vertex="1">
          <mxGeometry x="6035.7" y="2699.6099999999997" width="19.685" height="19.685" as="geometry" />
        </mxCell>
        <mxCell id="QaqN5k4PvZ0HnCuxRosK-543" value="3-6" style="rounded=0;whiteSpace=wrap;html=1;fillColor=#f5f5f5;strokeColor=#666666;shadow=0;fontColor=#333333;" parent="1" vertex="1">
          <mxGeometry x="6035.75" y="2483.0699999999997" width="19.685" height="19.685" as="geometry" />
        </mxCell>
        <mxCell id="QaqN5k4PvZ0HnCuxRosK-544" value="4-2" style="rounded=0;whiteSpace=wrap;html=1;fillColor=#f5f5f5;strokeColor=#666666;shadow=0;fontColor=#333333;" parent="1" vertex="1">
          <mxGeometry x="5898.66" y="2483.0699999999997" width="157.48" height="19.68" as="geometry" />
        </mxCell>
        <mxCell id="QaqN5k4PvZ0HnCuxRosK-545" value="4-1" style="rounded=0;whiteSpace=wrap;html=1;fillColor=#f5f5f5;strokeColor=#666666;shadow=0;fontColor=#333333;" parent="1" vertex="1">
          <mxGeometry x="5898.66" y="2699.6099999999997" width="157.48" height="19.68" as="geometry" />
        </mxCell>
        <mxCell id="QaqN5k4PvZ0HnCuxRosK-546" value="4-3" style="rounded=0;whiteSpace=wrap;html=1;fillColor=#f5f5f5;strokeColor=#666666;shadow=0;rotation=90;fontColor=#333333;" parent="1" vertex="1">
          <mxGeometry x="5790.389999999999" y="2590.6" width="196.85" height="19.685" as="geometry" />
        </mxCell>
        <mxCell id="QaqN5k4PvZ0HnCuxRosK-549" value="5-2" style="rounded=0;whiteSpace=wrap;html=1;fillColor=#f5f5f5;strokeColor=#666666;shadow=0;fontColor=#333333;" parent="1" vertex="1">
          <mxGeometry x="6035.75" y="2483.0699999999993" width="19.685" height="19.685" as="geometry" />
        </mxCell>
        <mxCell id="QaqN5k4PvZ0HnCuxRosK-550" value="5-1" style="rounded=0;whiteSpace=wrap;html=1;fillColor=#f5f5f5;strokeColor=#666666;shadow=0;fontColor=#333333;" parent="1" vertex="1">
          <mxGeometry x="6035.700000000001" y="2699.129999999999" width="19.685" height="19.685" as="geometry" />
        </mxCell>
        <mxCell id="QaqN5k4PvZ0HnCuxRosK-554" value="6-2" style="rounded=0;whiteSpace=wrap;html=1;fillColor=#f5f5f5;strokeColor=#666666;shadow=0;fontColor=#333333;" parent="1" vertex="1">
          <mxGeometry x="5897.95" y="2482.6099999999997" width="157.48" height="19.68" as="geometry" />
        </mxCell>
        <mxCell id="QaqN5k4PvZ0HnCuxRosK-555" value="6-1" style="rounded=0;whiteSpace=wrap;html=1;fillColor=#f5f5f5;strokeColor=#666666;shadow=0;fontColor=#333333;" parent="1" vertex="1">
          <mxGeometry x="5899.12" y="2698.68" width="157.48" height="19.68" as="geometry" />
        </mxCell>
        <mxCell id="QaqN5k4PvZ0HnCuxRosK-556" value="6-3" style="rounded=0;whiteSpace=wrap;html=1;fillColor=#f5f5f5;strokeColor=#666666;shadow=0;rotation=90;fontColor=#333333;" parent="1" vertex="1">
          <mxGeometry x="5946.41" y="2590.62" width="196.85" height="19.685" as="geometry" />
        </mxCell>
        <mxCell id="QaqN5k4PvZ0HnCuxRosK-561" value="7-1" style="rounded=0;whiteSpace=wrap;html=1;fillColor=#f5f5f5;strokeColor=#666666;shadow=0;fontColor=#333333;" parent="1" vertex="1">
          <mxGeometry x="5878.27" y="2699.6200000000003" width="472.44" height="19.685" as="geometry" />
        </mxCell>
        <mxCell id="QaqN5k4PvZ0HnCuxRosK-562" value="7-2" style="rounded=0;whiteSpace=wrap;html=1;fillColor=#f5f5f5;strokeColor=#666666;shadow=0;fontColor=#333333;" parent="1" vertex="1">
          <mxGeometry x="5878.97" y="2483.09" width="472.44" height="19.685" as="geometry" />
        </mxCell>
        <mxCell id="QaqN5k4PvZ0HnCuxRosK-563" value="7-3" style="rounded=0;whiteSpace=wrap;html=1;fillColor=#f5f5f5;strokeColor=#666666;shadow=0;rotation=90;fontColor=#333333;" parent="1" vertex="1">
          <mxGeometry x="5790.39" y="2590.88" width="196.85" height="19.685" as="geometry" />
        </mxCell>
        <mxCell id="QaqN5k4PvZ0HnCuxRosK-564" value="7-4" style="rounded=0;whiteSpace=wrap;html=1;fillColor=#f5f5f5;strokeColor=#666666;shadow=0;rotation=90;fontColor=#333333;" parent="1" vertex="1">
          <mxGeometry x="6242.450000000001" y="2591.34" width="196.85" height="19.685" as="geometry" />
        </mxCell>
        <mxCell id="QaqN5k4PvZ0HnCuxRosK-595" value="" style="shape=cube;whiteSpace=wrap;html=1;boundedLbl=1;backgroundOutline=1;darkOpacity=0.05;darkOpacity2=0.1;size=128;rotation=90;fillColor=#fff2cc;strokeColor=#d6b656;" parent="1" vertex="1">
          <mxGeometry x="4303.970000000001" y="1894.6899999999996" width="146.32" height="147.11" as="geometry" />
        </mxCell>
        <mxCell id="QaqN5k4PvZ0HnCuxRosK-77" value="3-1" style="rounded=0;whiteSpace=wrap;html=1;fillColor=#f5f5f5;strokeColor=#666666;shadow=0;fontColor=#333333;" parent="1" vertex="1">
          <mxGeometry x="4302.2699999999995" y="1433.4499999999998" width="19.685" height="779.526" as="geometry" />
        </mxCell>
        <mxCell id="QaqN5k4PvZ0HnCuxRosK-101" value="6-1" style="rounded=0;whiteSpace=wrap;html=1;fillColor=#fff2cc;strokeColor=#d6b656;shadow=0;" parent="1" vertex="1">
          <mxGeometry x="4323.650000000001" y="2022.1200000000003" width="229" height="19.68" as="geometry" />
        </mxCell>
        <mxCell id="QaqN5k4PvZ0HnCuxRosK-596" value="4-2&amp;nbsp; &amp;nbsp; &amp;nbsp; &amp;nbsp; &amp;nbsp; &amp;nbsp; &amp;nbsp; &amp;nbsp; &amp;nbsp; &amp;nbsp; &amp;nbsp; &amp;nbsp; &amp;nbsp; &amp;nbsp; &amp;nbsp;" style="rounded=0;whiteSpace=wrap;html=1;fillColor=#f5f5f5;strokeColor=#666666;shadow=0;fontColor=#333333;" parent="1" vertex="1">
          <mxGeometry x="5223.66" y="1970.0000000000002" width="222.36" height="19.69" as="geometry" />
        </mxCell>
        <mxCell id="QaqN5k4PvZ0HnCuxRosK-597" value="3-4" style="rounded=0;whiteSpace=wrap;html=1;fillColor=#f5f5f5;strokeColor=#666666;shadow=0;fontColor=#333333;" parent="1" vertex="1">
          <mxGeometry x="5656.73" y="1282.1599999999999" width="19.685" height="779.526" as="geometry" />
        </mxCell>
        <mxCell id="QaqN5k4PvZ0HnCuxRosK-598" value="3-6" style="rounded=0;whiteSpace=wrap;html=1;fillColor=#f5f5f5;strokeColor=#666666;shadow=0;fontColor=#333333;" parent="1" vertex="1">
          <mxGeometry x="5429.96" y="1981.2" width="19.685" height="78.74" as="geometry" />
        </mxCell>
        <mxCell id="QaqN5k4PvZ0HnCuxRosK-599" value="1-2" style="rounded=0;whiteSpace=wrap;html=1;fillColor=#f5f5f5;shadow=0;strokeColor=#666666;fontColor=#333333;" parent="1" vertex="1">
          <mxGeometry x="5203.969999999999" y="2099.4400000000005" width="19.685" height="78.74" as="geometry" />
        </mxCell>
        <mxCell id="QaqN5k4PvZ0HnCuxRosK-600" value="2-1" style="rounded=0;whiteSpace=wrap;html=1;fillColor=#f5f5f5;strokeColor=#666666;shadow=0;fontColor=#333333;" parent="1" vertex="1">
          <mxGeometry x="5076.02" y="2209.1200000000003" width="472.44" height="19.685" as="geometry" />
        </mxCell>
        <mxCell id="QaqN5k4PvZ0HnCuxRosK-601" value="1-3" style="rounded=0;whiteSpace=wrap;html=1;fillColor=#f5f5f5;shadow=0;strokeColor=#666666;fontColor=#333333;" parent="1" vertex="1">
          <mxGeometry x="5528.78" y="2228.81" width="19.685" height="78.74" as="geometry" />
        </mxCell>
        <mxCell id="QaqN5k4PvZ0HnCuxRosK-602" value="1-1" style="rounded=0;whiteSpace=wrap;html=1;fillColor=#f5f5f5;shadow=0;strokeColor=#666666;fontColor=#333333;" parent="1" vertex="1">
          <mxGeometry x="5076.02" y="2228.81" width="19.685" height="78.74" as="geometry" />
        </mxCell>
        <mxCell id="QaqN5k4PvZ0HnCuxRosK-603" value="1-4" style="rounded=0;whiteSpace=wrap;html=1;fillColor=#f5f5f5;shadow=0;strokeColor=#666666;fontColor=#333333;" parent="1" vertex="1">
          <mxGeometry x="5656.719999999999" y="2099.44" width="19.685" height="78.74" as="geometry" />
        </mxCell>
        <mxCell id="QaqN5k4PvZ0HnCuxRosK-604" value="2-2" style="rounded=0;whiteSpace=wrap;html=1;fillColor=#f5f5f5;strokeColor=#666666;shadow=0;fontColor=#333333;" parent="1" vertex="1">
          <mxGeometry x="5203.969999999999" y="2080.06" width="472.44" height="19.685" as="geometry" />
        </mxCell>
        <mxCell id="QaqN5k4PvZ0HnCuxRosK-605" value="" style="shape=parallelogram;perimeter=parallelogramPerimeter;whiteSpace=wrap;html=1;fixedSize=1;size=123.77999999999975;fillStyle=cross-hatch;fillColor=#f5f5f5;fontColor=#333333;strokeColor=#666666;" parent="1" vertex="1">
          <mxGeometry x="5298.4" y="2089.11" width="373.78" height="119.7" as="geometry" />
        </mxCell>
        <mxCell id="QaqN5k4PvZ0HnCuxRosK-606" value="" style="shape=cube;whiteSpace=wrap;html=1;boundedLbl=1;backgroundOutline=1;darkOpacity=0.05;darkOpacity2=0.1;size=128;rotation=90;fillColor=#f5f5f5;strokeColor=#666666;fontColor=#333333;" parent="1" vertex="1">
          <mxGeometry x="5076.02" y="2061.69" width="146.32" height="147.11" as="geometry" />
        </mxCell>
        <mxCell id="QaqN5k4PvZ0HnCuxRosK-607" value="" style="shape=cube;whiteSpace=wrap;html=1;boundedLbl=1;backgroundOutline=1;darkOpacity=0.05;darkOpacity2=0.1;size=128;rotation=90;fillColor=#f5f5f5;strokeColor=#666666;fontColor=#333333;" parent="1" vertex="1">
          <mxGeometry x="5302.4" y="2065.2500000000005" width="146.32" height="147.11" as="geometry" />
        </mxCell>
        <mxCell id="QaqN5k4PvZ0HnCuxRosK-608" value="" style="shape=cube;whiteSpace=wrap;html=1;boundedLbl=1;backgroundOutline=1;darkOpacity=0.05;darkOpacity2=0.1;size=128;rotation=90;fillColor=#f5f5f5;strokeColor=#666666;fontColor=#333333;" parent="1" vertex="1">
          <mxGeometry x="5530.09" y="2062.0100000000007" width="146.32" height="147.11" as="geometry" />
        </mxCell>
        <mxCell id="QaqN5k4PvZ0HnCuxRosK-609" value="3-5" style="rounded=0;whiteSpace=wrap;html=1;fillColor=#f5f5f5;strokeColor=#666666;shadow=0;fontColor=#333333;" parent="1" vertex="1">
          <mxGeometry x="5302.4" y="2114.11" width="19.685" height="78.74" as="geometry" />
        </mxCell>
        <mxCell id="QaqN5k4PvZ0HnCuxRosK-610" value="3-2" style="rounded=0;whiteSpace=wrap;html=1;fillColor=#f5f5f5;strokeColor=#666666;shadow=0;fontColor=#333333;" parent="1" vertex="1">
          <mxGeometry x="5202.65" y="1285.7299999999998" width="19.685" height="779.526" as="geometry" />
        </mxCell>
        <mxCell id="QaqN5k4PvZ0HnCuxRosK-611" value="" style="shape=cube;whiteSpace=wrap;html=1;boundedLbl=1;backgroundOutline=1;darkOpacity=0.05;darkOpacity2=0.1;size=128;rotation=90;fillColor=#f5f5f5;strokeColor=#666666;fontColor=#333333;" parent="1" vertex="1">
          <mxGeometry x="5303.33" y="1969.9999999999998" width="146.32" height="147.11" as="geometry" />
        </mxCell>
        <mxCell id="QaqN5k4PvZ0HnCuxRosK-612" value="" style="shape=cube;whiteSpace=wrap;html=1;boundedLbl=1;backgroundOutline=1;darkOpacity=0.05;darkOpacity2=0.1;size=128;rotation=90;fillColor=#f5f5f5;strokeColor=#666666;fontColor=#333333;" parent="1" vertex="1">
          <mxGeometry x="5076.02" y="1969.9999999999998" width="146.32" height="147.11" as="geometry" />
        </mxCell>
        <mxCell id="QaqN5k4PvZ0HnCuxRosK-613" value="4-1" style="rounded=0;whiteSpace=wrap;html=1;fillColor=#f5f5f5;strokeColor=#666666;shadow=0;fontColor=#333333;" parent="1" vertex="1">
          <mxGeometry x="5097.02" y="2095.9700000000003" width="229" height="19.68" as="geometry" />
        </mxCell>
        <mxCell id="QaqN5k4PvZ0HnCuxRosK-614" value="3-3" style="rounded=0;whiteSpace=wrap;html=1;fillColor=#f5f5f5;strokeColor=#666666;shadow=0;fontColor=#333333;" parent="1" vertex="1">
          <mxGeometry x="5530.09" y="1409.11" width="19.685" height="779.526" as="geometry" />
        </mxCell>
        <mxCell id="QaqN5k4PvZ0HnCuxRosK-615" value="5-1" style="rounded=0;whiteSpace=wrap;html=1;fillColor=#f5f5f5;strokeColor=#666666;shadow=0;fontColor=#333333;" parent="1" vertex="1">
          <mxGeometry x="5306.33" y="2018.9199999999998" width="19.685" height="78.74" as="geometry" />
        </mxCell>
        <mxCell id="QaqN5k4PvZ0HnCuxRosK-616" value="5-2" style="rounded=0;whiteSpace=wrap;html=1;fillColor=#f5f5f5;strokeColor=#666666;shadow=0;fontColor=#333333;" parent="1" vertex="1">
          <mxGeometry x="5430.35" y="1892.9499999999998" width="19.685" height="78.74" as="geometry" />
        </mxCell>
        <mxCell id="QaqN5k4PvZ0HnCuxRosK-617" value="6-2" style="rounded=0;whiteSpace=wrap;html=1;fillColor=#f5f5f5;strokeColor=#666666;shadow=0;fontColor=#333333;" parent="1" vertex="1">
          <mxGeometry x="5224.040000000001" y="1871.8100000000002" width="222.36" height="19.69" as="geometry" />
        </mxCell>
        <mxCell id="QaqN5k4PvZ0HnCuxRosK-618" value="" style="shape=cube;whiteSpace=wrap;html=1;boundedLbl=1;backgroundOutline=1;darkOpacity=0.05;darkOpacity2=0.1;size=128;rotation=90;fillColor=#f5f5f5;strokeColor=#666666;fontColor=#333333;" parent="1" vertex="1">
          <mxGeometry x="5303.710000000001" y="1871.8099999999997" width="146.32" height="147.11" as="geometry" />
        </mxCell>
        <mxCell id="QaqN5k4PvZ0HnCuxRosK-619" value="" style="shape=cube;whiteSpace=wrap;html=1;boundedLbl=1;backgroundOutline=1;darkOpacity=0.05;darkOpacity2=0.1;size=128;rotation=90;fillColor=#f5f5f5;strokeColor=#666666;fontColor=#333333;" parent="1" vertex="1">
          <mxGeometry x="5077.720000000001" y="1870.3499999999997" width="146.32" height="147.11" as="geometry" />
        </mxCell>
        <mxCell id="QaqN5k4PvZ0HnCuxRosK-620" value="3-1" style="rounded=0;whiteSpace=wrap;html=1;fillColor=#f5f5f5;strokeColor=#666666;shadow=0;fontColor=#333333;" parent="1" vertex="1">
          <mxGeometry x="5076.0199999999995" y="1409.11" width="19.685" height="779.526" as="geometry" />
        </mxCell>
        <mxCell id="QaqN5k4PvZ0HnCuxRosK-621" value="6-1" style="rounded=0;whiteSpace=wrap;html=1;fillColor=#f5f5f5;strokeColor=#666666;shadow=0;fontColor=#333333;" parent="1" vertex="1">
          <mxGeometry x="5097.400000000001" y="1997.7800000000004" width="229" height="19.68" as="geometry" />
        </mxCell>
        <mxCell id="QaqN5k4PvZ0HnCuxRosK-151" value="7-1" style="rounded=0;whiteSpace=wrap;html=1;fillColor=#fff2cc;strokeColor=#d6b656;shadow=0;" parent="1" vertex="1">
          <mxGeometry x="5077.72" y="1389.42" width="472.44" height="19.685" as="geometry" />
        </mxCell>
        <mxCell id="QaqN5k4PvZ0HnCuxRosK-154" value="" style="shape=cube;whiteSpace=wrap;html=1;boundedLbl=1;backgroundOutline=1;darkOpacity=0.05;darkOpacity2=0.1;size=128;rotation=90;fillColor=#fff2cc;strokeColor=#d6b656;" parent="1" vertex="1">
          <mxGeometry x="5531.1" y="1262.0000000000005" width="146.32" height="147.11" as="geometry" />
        </mxCell>
        <mxCell id="QaqN5k4PvZ0HnCuxRosK-622" value="7-2" style="rounded=0;whiteSpace=wrap;html=1;fillColor=#f5f5f5;strokeColor=#666666;shadow=0;fontColor=#333333;" parent="1" vertex="1">
          <mxGeometry x="6007.2300000000005" y="1282" width="472.44" height="19.685" as="geometry" />
        </mxCell>
        <mxCell id="QaqN5k4PvZ0HnCuxRosK-623" value="" style="shape=cube;whiteSpace=wrap;html=1;boundedLbl=1;backgroundOutline=1;darkOpacity=0.05;darkOpacity2=0.1;size=128;rotation=90;fillColor=#f5f5f5;strokeColor=#666666;fontColor=#333333;" parent="1" vertex="1">
          <mxGeometry x="5879.97" y="1282.0000000000005" width="146.32" height="147.11" as="geometry" />
        </mxCell>
        <mxCell id="QaqN5k4PvZ0HnCuxRosK-624" value="4-2&amp;nbsp; &amp;nbsp; &amp;nbsp; &amp;nbsp; &amp;nbsp; &amp;nbsp; &amp;nbsp; &amp;nbsp; &amp;nbsp; &amp;nbsp; &amp;nbsp; &amp;nbsp; &amp;nbsp; &amp;nbsp; &amp;nbsp;" style="rounded=0;whiteSpace=wrap;html=1;fillColor=#f5f5f5;strokeColor=#666666;shadow=0;fontColor=#333333;" parent="1" vertex="1">
          <mxGeometry x="6025.91" y="1958.0000000000002" width="222.36" height="19.69" as="geometry" />
        </mxCell>
        <mxCell id="QaqN5k4PvZ0HnCuxRosK-625" value="3-4" style="rounded=0;whiteSpace=wrap;html=1;fillColor=#f5f5f5;strokeColor=#666666;shadow=0;fontColor=#333333;" parent="1" vertex="1">
          <mxGeometry x="6458.98" y="1302.1599999999999" width="19.685" height="748.03" as="geometry" />
        </mxCell>
        <mxCell id="QaqN5k4PvZ0HnCuxRosK-626" value="3-6" style="rounded=0;whiteSpace=wrap;html=1;fillColor=#f5f5f5;strokeColor=#666666;shadow=0;fontColor=#333333;" parent="1" vertex="1">
          <mxGeometry x="6232.21" y="1969.2" width="19.685" height="78.74" as="geometry" />
        </mxCell>
        <mxCell id="QaqN5k4PvZ0HnCuxRosK-627" value="1-2" style="rounded=0;whiteSpace=wrap;html=1;fillColor=#f5f5f5;shadow=0;strokeColor=#666666;fontColor=#333333;" parent="1" vertex="1">
          <mxGeometry x="6006.219999999999" y="2087.4400000000005" width="19.685" height="78.74" as="geometry" />
        </mxCell>
        <mxCell id="QaqN5k4PvZ0HnCuxRosK-628" value="2-1" style="rounded=0;whiteSpace=wrap;html=1;fillColor=#f5f5f5;strokeColor=#666666;shadow=0;fontColor=#333333;" parent="1" vertex="1">
          <mxGeometry x="5878.27" y="2197.1200000000003" width="472.44" height="19.685" as="geometry" />
        </mxCell>
        <mxCell id="QaqN5k4PvZ0HnCuxRosK-629" value="1-3" style="rounded=0;whiteSpace=wrap;html=1;fillColor=#f5f5f5;shadow=0;strokeColor=#666666;fontColor=#333333;" parent="1" vertex="1">
          <mxGeometry x="6331.03" y="2216.81" width="19.685" height="78.74" as="geometry" />
        </mxCell>
        <mxCell id="QaqN5k4PvZ0HnCuxRosK-630" value="1-1" style="rounded=0;whiteSpace=wrap;html=1;fillColor=#f5f5f5;shadow=0;strokeColor=#666666;fontColor=#333333;" parent="1" vertex="1">
          <mxGeometry x="5878.27" y="2216.81" width="19.685" height="78.74" as="geometry" />
        </mxCell>
        <mxCell id="QaqN5k4PvZ0HnCuxRosK-631" value="1-4" style="rounded=0;whiteSpace=wrap;html=1;fillColor=#f5f5f5;shadow=0;strokeColor=#666666;fontColor=#333333;" parent="1" vertex="1">
          <mxGeometry x="6458.969999999999" y="2087.44" width="19.685" height="78.74" as="geometry" />
        </mxCell>
        <mxCell id="QaqN5k4PvZ0HnCuxRosK-632" value="2-2" style="rounded=0;whiteSpace=wrap;html=1;fillColor=#f5f5f5;strokeColor=#666666;shadow=0;fontColor=#333333;" parent="1" vertex="1">
          <mxGeometry x="6006.219999999999" y="2068.06" width="472.44" height="19.685" as="geometry" />
        </mxCell>
        <mxCell id="QaqN5k4PvZ0HnCuxRosK-633" value="" style="shape=parallelogram;perimeter=parallelogramPerimeter;whiteSpace=wrap;html=1;fixedSize=1;size=123.77999999999975;fillStyle=cross-hatch;fillColor=#f5f5f5;fontColor=#333333;strokeColor=#666666;" parent="1" vertex="1">
          <mxGeometry x="6100.65" y="2077.11" width="373.78" height="119.7" as="geometry" />
        </mxCell>
        <mxCell id="QaqN5k4PvZ0HnCuxRosK-634" value="" style="shape=cube;whiteSpace=wrap;html=1;boundedLbl=1;backgroundOutline=1;darkOpacity=0.05;darkOpacity2=0.1;size=128;rotation=90;fillColor=#f5f5f5;strokeColor=#666666;fontColor=#333333;" parent="1" vertex="1">
          <mxGeometry x="5878.27" y="2049.69" width="146.32" height="147.11" as="geometry" />
        </mxCell>
        <mxCell id="QaqN5k4PvZ0HnCuxRosK-635" value="" style="shape=cube;whiteSpace=wrap;html=1;boundedLbl=1;backgroundOutline=1;darkOpacity=0.05;darkOpacity2=0.1;size=128;rotation=90;fillColor=#f5f5f5;strokeColor=#666666;fontColor=#333333;" parent="1" vertex="1">
          <mxGeometry x="6104.65" y="2053.2500000000005" width="146.32" height="147.11" as="geometry" />
        </mxCell>
        <mxCell id="QaqN5k4PvZ0HnCuxRosK-636" value="" style="shape=cube;whiteSpace=wrap;html=1;boundedLbl=1;backgroundOutline=1;darkOpacity=0.05;darkOpacity2=0.1;size=128;rotation=90;fillColor=#f5f5f5;strokeColor=#666666;fontColor=#333333;" parent="1" vertex="1">
          <mxGeometry x="6332.34" y="2050.0100000000007" width="146.32" height="147.11" as="geometry" />
        </mxCell>
        <mxCell id="QaqN5k4PvZ0HnCuxRosK-637" value="3-5" style="rounded=0;whiteSpace=wrap;html=1;fillColor=#f5f5f5;strokeColor=#666666;shadow=0;fontColor=#333333;" parent="1" vertex="1">
          <mxGeometry x="6104.65" y="2102.11" width="19.685" height="78.74" as="geometry" />
        </mxCell>
        <mxCell id="QaqN5k4PvZ0HnCuxRosK-638" value="3-2" style="rounded=0;whiteSpace=wrap;html=1;fillColor=#f5f5f5;strokeColor=#666666;shadow=0;fontColor=#333333;" parent="1" vertex="1">
          <mxGeometry x="6004.9" y="1301.7299999999998" width="19.685" height="748.03" as="geometry" />
        </mxCell>
        <mxCell id="QaqN5k4PvZ0HnCuxRosK-639" value="" style="shape=cube;whiteSpace=wrap;html=1;boundedLbl=1;backgroundOutline=1;darkOpacity=0.05;darkOpacity2=0.1;size=128;rotation=90;fillColor=#f5f5f5;strokeColor=#666666;fontColor=#333333;" parent="1" vertex="1">
          <mxGeometry x="6105.58" y="1957.9999999999998" width="146.32" height="147.11" as="geometry" />
        </mxCell>
        <mxCell id="QaqN5k4PvZ0HnCuxRosK-640" value="" style="shape=cube;whiteSpace=wrap;html=1;boundedLbl=1;backgroundOutline=1;darkOpacity=0.05;darkOpacity2=0.1;size=128;rotation=90;fillColor=#f5f5f5;strokeColor=#666666;fontColor=#333333;" parent="1" vertex="1">
          <mxGeometry x="5878.27" y="1957.9999999999998" width="146.32" height="147.11" as="geometry" />
        </mxCell>
        <mxCell id="QaqN5k4PvZ0HnCuxRosK-641" value="4-1" style="rounded=0;whiteSpace=wrap;html=1;fillColor=#f5f5f5;strokeColor=#666666;shadow=0;fontColor=#333333;" parent="1" vertex="1">
          <mxGeometry x="5899.27" y="2083.9700000000003" width="229" height="19.68" as="geometry" />
        </mxCell>
        <mxCell id="QaqN5k4PvZ0HnCuxRosK-642" value="3-3" style="rounded=0;whiteSpace=wrap;html=1;fillColor=#f5f5f5;strokeColor=#666666;shadow=0;fontColor=#333333;" parent="1" vertex="1">
          <mxGeometry x="6332.34" y="1430.11" width="19.685" height="748.03" as="geometry" />
        </mxCell>
        <mxCell id="QaqN5k4PvZ0HnCuxRosK-643" value="5-1" style="rounded=0;whiteSpace=wrap;html=1;fillColor=#f5f5f5;strokeColor=#666666;shadow=0;fontColor=#333333;" parent="1" vertex="1">
          <mxGeometry x="6108.58" y="2006.9199999999998" width="19.685" height="78.74" as="geometry" />
        </mxCell>
        <mxCell id="QaqN5k4PvZ0HnCuxRosK-644" value="5-2" style="rounded=0;whiteSpace=wrap;html=1;fillColor=#f5f5f5;strokeColor=#666666;shadow=0;fontColor=#333333;" parent="1" vertex="1">
          <mxGeometry x="6232.6" y="1880.9499999999998" width="19.685" height="78.74" as="geometry" />
        </mxCell>
        <mxCell id="QaqN5k4PvZ0HnCuxRosK-645" value="6-2" style="rounded=0;whiteSpace=wrap;html=1;fillColor=#f5f5f5;strokeColor=#666666;shadow=0;fontColor=#333333;" parent="1" vertex="1">
          <mxGeometry x="6026.290000000001" y="1859.8100000000002" width="222.36" height="19.69" as="geometry" />
        </mxCell>
        <mxCell id="QaqN5k4PvZ0HnCuxRosK-646" value="" style="shape=cube;whiteSpace=wrap;html=1;boundedLbl=1;backgroundOutline=1;darkOpacity=0.05;darkOpacity2=0.1;size=128;rotation=90;fillColor=#f5f5f5;strokeColor=#666666;fontColor=#333333;" parent="1" vertex="1">
          <mxGeometry x="6105.960000000001" y="1859.8099999999997" width="146.32" height="147.11" as="geometry" />
        </mxCell>
        <mxCell id="QaqN5k4PvZ0HnCuxRosK-647" value="" style="shape=cube;whiteSpace=wrap;html=1;boundedLbl=1;backgroundOutline=1;darkOpacity=0.05;darkOpacity2=0.1;size=128;rotation=90;fillColor=#f5f5f5;strokeColor=#666666;fontColor=#333333;" parent="1" vertex="1">
          <mxGeometry x="5879.970000000001" y="1858.3499999999997" width="146.32" height="147.11" as="geometry" />
        </mxCell>
        <mxCell id="QaqN5k4PvZ0HnCuxRosK-648" value="3-1" style="rounded=0;whiteSpace=wrap;html=1;fillColor=#f5f5f5;strokeColor=#666666;shadow=0;fontColor=#333333;" parent="1" vertex="1">
          <mxGeometry x="5878.2699999999995" y="1429.11" width="19.685" height="748.03" as="geometry" />
        </mxCell>
        <mxCell id="QaqN5k4PvZ0HnCuxRosK-649" value="6-1" style="rounded=0;whiteSpace=wrap;html=1;fillColor=#f5f5f5;strokeColor=#666666;shadow=0;fontColor=#333333;" parent="1" vertex="1">
          <mxGeometry x="5899.650000000001" y="1985.7800000000004" width="229" height="19.68" as="geometry" />
        </mxCell>
        <mxCell id="QaqN5k4PvZ0HnCuxRosK-650" value="7-1" style="rounded=0;whiteSpace=wrap;html=1;fillColor=#f5f5f5;strokeColor=#666666;shadow=0;fontColor=#333333;" parent="1" vertex="1">
          <mxGeometry x="5879.97" y="1409.42" width="472.44" height="19.685" as="geometry" />
        </mxCell>
        <mxCell id="QaqN5k4PvZ0HnCuxRosK-651" value="" style="shape=cube;whiteSpace=wrap;html=1;boundedLbl=1;backgroundOutline=1;darkOpacity=0.05;darkOpacity2=0.1;size=128;rotation=90;fillColor=#f5f5f5;strokeColor=#666666;fontColor=#333333;" parent="1" vertex="1">
          <mxGeometry x="6333.35" y="1282.0000000000005" width="146.32" height="147.11" as="geometry" />
        </mxCell>
        <mxCell id="QaqN5k4PvZ0HnCuxRosK-652" value="8-1" style="rounded=0;whiteSpace=wrap;html=1;fillColor=#fff2cc;strokeColor=#d6b656;shadow=0;" parent="1" vertex="1">
          <mxGeometry x="6108.97" y="1434" width="19.69" height="551.18" as="geometry" />
        </mxCell>
        <mxCell id="QaqN5k4PvZ0HnCuxRosK-654" value="8-3" style="rounded=0;whiteSpace=wrap;html=1;fillColor=#fff2cc;strokeColor=#d6b656;shadow=0;" parent="1" vertex="1">
          <mxGeometry x="6125.33" y="2179.38" width="196.85" height="19.68" as="geometry" />
        </mxCell>
        <mxCell id="QaqN5k4PvZ0HnCuxRosK-655" value="8-4" style="rounded=0;whiteSpace=wrap;html=1;fillColor=#fff2cc;strokeColor=#d6b656;shadow=0;" parent="1" vertex="1">
          <mxGeometry x="6147.66" y="1430.11" width="157.48" height="19.68" as="geometry" />
        </mxCell>
        <mxCell id="QaqN5k4PvZ0HnCuxRosK-656" value="8-5" style="rounded=0;whiteSpace=wrap;html=1;fillColor=#fff2cc;strokeColor=#d6b656;shadow=0;" parent="1" vertex="1">
          <mxGeometry x="6310.31" y="1428.52" width="19.69" height="748.03" as="geometry" />
        </mxCell>
        <mxCell id="QaqN5k4PvZ0HnCuxRosK-657" value="8-6" style="rounded=0;whiteSpace=wrap;html=1;fillColor=#fff2cc;strokeColor=#d6b656;shadow=0;" parent="1" vertex="1">
          <mxGeometry x="6126.660000000001" y="1429.04" width="19.69" height="748.03" as="geometry" />
        </mxCell>
        <mxCell id="QaqN5k4PvZ0HnCuxRosK-662" value="8-2" style="rounded=0;whiteSpace=wrap;html=1;fillColor=#fff2cc;strokeColor=#d6b656;shadow=0;" parent="1" vertex="1">
          <mxGeometry x="6036.91" y="2483.4699999999993" width="19.685" height="19.685" as="geometry" />
        </mxCell>
        <mxCell id="QaqN5k4PvZ0HnCuxRosK-663" value="8-1" style="rounded=0;whiteSpace=wrap;html=1;fillColor=#fff2cc;strokeColor=#d6b656;shadow=0;" parent="1" vertex="1">
          <mxGeometry x="6034.99" y="2699.9999999999995" width="19.685" height="19.685" as="geometry" />
        </mxCell>
        <mxCell id="QaqN5k4PvZ0HnCuxRosK-665" value="8-3" style="rounded=0;whiteSpace=wrap;html=1;fillColor=#fff2cc;strokeColor=#d6b656;shadow=0;" parent="1" vertex="1">
          <mxGeometry x="6055.6" y="2699.29" width="275.59" height="19.68" as="geometry" />
        </mxCell>
        <mxCell id="QaqN5k4PvZ0HnCuxRosK-666" value="" style="shape=table;startSize=0;container=1;collapsible=0;childLayout=tableLayout;fontSize=16;" parent="1" vertex="1">
          <mxGeometry x="6050" y="2850" width="180" height="320" as="geometry" />
        </mxCell>
        <mxCell id="QaqN5k4PvZ0HnCuxRosK-667" value="" style="shape=tableRow;horizontal=0;startSize=0;swimlaneHead=0;swimlaneBody=0;strokeColor=inherit;top=0;left=0;bottom=0;right=0;collapsible=0;dropTarget=0;fillColor=none;points=[[0,0.5],[1,0.5]];portConstraint=eastwest;fontSize=16;" parent="QaqN5k4PvZ0HnCuxRosK-666" vertex="1">
          <mxGeometry width="180" height="40" as="geometry" />
        </mxCell>
        <mxCell id="QaqN5k4PvZ0HnCuxRosK-668" value="20" style="shape=partialRectangle;html=1;whiteSpace=wrap;connectable=0;strokeColor=inherit;overflow=hidden;fillColor=none;top=0;left=0;bottom=0;right=0;pointerEvents=1;fontSize=16;" parent="QaqN5k4PvZ0HnCuxRosK-667" vertex="1">
          <mxGeometry width="60" height="40" as="geometry">
            <mxRectangle width="60" height="40" as="alternateBounds" />
          </mxGeometry>
        </mxCell>
        <mxCell id="QaqN5k4PvZ0HnCuxRosK-669" value="4+2+2" style="shape=partialRectangle;html=1;whiteSpace=wrap;connectable=0;strokeColor=inherit;overflow=hidden;fillColor=none;top=0;left=0;bottom=0;right=0;pointerEvents=1;fontSize=16;" parent="QaqN5k4PvZ0HnCuxRosK-667" vertex="1">
          <mxGeometry x="60" width="60" height="40" as="geometry">
            <mxRectangle width="60" height="40" as="alternateBounds" />
          </mxGeometry>
        </mxCell>
        <mxCell id="QaqN5k4PvZ0HnCuxRosK-670" value="8" style="shape=partialRectangle;html=1;whiteSpace=wrap;connectable=0;strokeColor=inherit;overflow=hidden;fillColor=none;top=0;left=0;bottom=0;right=0;pointerEvents=1;fontSize=16;" parent="QaqN5k4PvZ0HnCuxRosK-667" vertex="1">
          <mxGeometry x="120" width="60" height="40" as="geometry">
            <mxRectangle width="60" height="40" as="alternateBounds" />
          </mxGeometry>
        </mxCell>
        <mxCell id="QaqN5k4PvZ0HnCuxRosK-671" value="" style="shape=tableRow;horizontal=0;startSize=0;swimlaneHead=0;swimlaneBody=0;strokeColor=inherit;top=0;left=0;bottom=0;right=0;collapsible=0;dropTarget=0;fillColor=none;points=[[0,0.5],[1,0.5]];portConstraint=eastwest;fontSize=16;" parent="QaqN5k4PvZ0HnCuxRosK-666" vertex="1">
          <mxGeometry y="40" width="180" height="40" as="geometry" />
        </mxCell>
        <mxCell id="QaqN5k4PvZ0HnCuxRosK-672" value="40" style="shape=partialRectangle;html=1;whiteSpace=wrap;connectable=0;strokeColor=inherit;overflow=hidden;fillColor=none;top=0;left=0;bottom=0;right=0;pointerEvents=1;fontSize=16;" parent="QaqN5k4PvZ0HnCuxRosK-671" vertex="1">
          <mxGeometry width="60" height="40" as="geometry">
            <mxRectangle width="60" height="40" as="alternateBounds" />
          </mxGeometry>
        </mxCell>
        <mxCell id="QaqN5k4PvZ0HnCuxRosK-673" value="2+2" style="shape=partialRectangle;html=1;whiteSpace=wrap;connectable=0;strokeColor=inherit;overflow=hidden;fillColor=none;top=0;left=0;bottom=0;right=0;pointerEvents=1;fontSize=16;" parent="QaqN5k4PvZ0HnCuxRosK-671" vertex="1">
          <mxGeometry x="60" width="60" height="40" as="geometry">
            <mxRectangle width="60" height="40" as="alternateBounds" />
          </mxGeometry>
        </mxCell>
        <mxCell id="QaqN5k4PvZ0HnCuxRosK-674" value="4" style="shape=partialRectangle;html=1;whiteSpace=wrap;connectable=0;strokeColor=inherit;overflow=hidden;fillColor=none;top=0;left=0;bottom=0;right=0;pointerEvents=1;fontSize=16;" parent="QaqN5k4PvZ0HnCuxRosK-671" vertex="1">
          <mxGeometry x="120" width="60" height="40" as="geometry">
            <mxRectangle width="60" height="40" as="alternateBounds" />
          </mxGeometry>
        </mxCell>
        <mxCell id="QaqN5k4PvZ0HnCuxRosK-675" value="" style="shape=tableRow;horizontal=0;startSize=0;swimlaneHead=0;swimlaneBody=0;strokeColor=inherit;top=0;left=0;bottom=0;right=0;collapsible=0;dropTarget=0;fillColor=none;points=[[0,0.5],[1,0.5]];portConstraint=eastwest;fontSize=16;" parent="QaqN5k4PvZ0HnCuxRosK-666" vertex="1">
          <mxGeometry y="80" width="180" height="40" as="geometry" />
        </mxCell>
        <mxCell id="QaqN5k4PvZ0HnCuxRosK-676" value="50" style="shape=partialRectangle;html=1;whiteSpace=wrap;connectable=0;strokeColor=inherit;overflow=hidden;fillColor=none;top=0;left=0;bottom=0;right=0;pointerEvents=1;fontSize=16;" parent="QaqN5k4PvZ0HnCuxRosK-675" vertex="1">
          <mxGeometry width="60" height="40" as="geometry">
            <mxRectangle width="60" height="40" as="alternateBounds" />
          </mxGeometry>
        </mxCell>
        <mxCell id="QaqN5k4PvZ0HnCuxRosK-677" value="2+2+2" style="shape=partialRectangle;html=1;whiteSpace=wrap;connectable=0;strokeColor=inherit;overflow=hidden;fillColor=none;top=0;left=0;bottom=0;right=0;pointerEvents=1;fontSize=16;" parent="QaqN5k4PvZ0HnCuxRosK-675" vertex="1">
          <mxGeometry x="60" width="60" height="40" as="geometry">
            <mxRectangle width="60" height="40" as="alternateBounds" />
          </mxGeometry>
        </mxCell>
        <mxCell id="QaqN5k4PvZ0HnCuxRosK-678" value="6" style="shape=partialRectangle;html=1;whiteSpace=wrap;connectable=0;strokeColor=inherit;overflow=hidden;fillColor=none;top=0;left=0;bottom=0;right=0;pointerEvents=1;fontSize=16;" parent="QaqN5k4PvZ0HnCuxRosK-675" vertex="1">
          <mxGeometry x="120" width="60" height="40" as="geometry">
            <mxRectangle width="60" height="40" as="alternateBounds" />
          </mxGeometry>
        </mxCell>
        <mxCell id="QaqN5k4PvZ0HnCuxRosK-679" style="shape=tableRow;horizontal=0;startSize=0;swimlaneHead=0;swimlaneBody=0;strokeColor=inherit;top=0;left=0;bottom=0;right=0;collapsible=0;dropTarget=0;fillColor=none;points=[[0,0.5],[1,0.5]];portConstraint=eastwest;fontSize=16;" parent="QaqN5k4PvZ0HnCuxRosK-666" vertex="1">
          <mxGeometry y="120" width="180" height="40" as="geometry" />
        </mxCell>
        <mxCell id="QaqN5k4PvZ0HnCuxRosK-680" value="60" style="shape=partialRectangle;html=1;whiteSpace=wrap;connectable=0;strokeColor=inherit;overflow=hidden;fillColor=none;top=0;left=0;bottom=0;right=0;pointerEvents=1;fontSize=16;" parent="QaqN5k4PvZ0HnCuxRosK-679" vertex="1">
          <mxGeometry width="60" height="40" as="geometry">
            <mxRectangle width="60" height="40" as="alternateBounds" />
          </mxGeometry>
        </mxCell>
        <mxCell id="QaqN5k4PvZ0HnCuxRosK-681" value="3+1" style="shape=partialRectangle;html=1;whiteSpace=wrap;connectable=0;strokeColor=inherit;overflow=hidden;fillColor=none;top=0;left=0;bottom=0;right=0;pointerEvents=1;fontSize=16;" parent="QaqN5k4PvZ0HnCuxRosK-679" vertex="1">
          <mxGeometry x="60" width="60" height="40" as="geometry">
            <mxRectangle width="60" height="40" as="alternateBounds" />
          </mxGeometry>
        </mxCell>
        <mxCell id="QaqN5k4PvZ0HnCuxRosK-682" value="4" style="shape=partialRectangle;html=1;whiteSpace=wrap;connectable=0;strokeColor=inherit;overflow=hidden;fillColor=none;top=0;left=0;bottom=0;right=0;pointerEvents=1;fontSize=16;" parent="QaqN5k4PvZ0HnCuxRosK-679" vertex="1">
          <mxGeometry x="120" width="60" height="40" as="geometry">
            <mxRectangle width="60" height="40" as="alternateBounds" />
          </mxGeometry>
        </mxCell>
        <mxCell id="QaqN5k4PvZ0HnCuxRosK-683" style="shape=tableRow;horizontal=0;startSize=0;swimlaneHead=0;swimlaneBody=0;strokeColor=inherit;top=0;left=0;bottom=0;right=0;collapsible=0;dropTarget=0;fillColor=none;points=[[0,0.5],[1,0.5]];portConstraint=eastwest;fontSize=16;" parent="QaqN5k4PvZ0HnCuxRosK-666" vertex="1">
          <mxGeometry y="160" width="180" height="40" as="geometry" />
        </mxCell>
        <mxCell id="QaqN5k4PvZ0HnCuxRosK-684" value="120" style="shape=partialRectangle;html=1;whiteSpace=wrap;connectable=0;strokeColor=inherit;overflow=hidden;fillColor=none;top=0;left=0;bottom=0;right=0;pointerEvents=1;fontSize=16;" parent="QaqN5k4PvZ0HnCuxRosK-683" vertex="1">
          <mxGeometry width="60" height="40" as="geometry">
            <mxRectangle width="60" height="40" as="alternateBounds" />
          </mxGeometry>
        </mxCell>
        <mxCell id="QaqN5k4PvZ0HnCuxRosK-685" value="2+2" style="shape=partialRectangle;html=1;whiteSpace=wrap;connectable=0;strokeColor=inherit;overflow=hidden;fillColor=none;top=0;left=0;bottom=0;right=0;pointerEvents=1;fontSize=16;" parent="QaqN5k4PvZ0HnCuxRosK-683" vertex="1">
          <mxGeometry x="60" width="60" height="40" as="geometry">
            <mxRectangle width="60" height="40" as="alternateBounds" />
          </mxGeometry>
        </mxCell>
        <mxCell id="QaqN5k4PvZ0HnCuxRosK-686" value="4" style="shape=partialRectangle;html=1;whiteSpace=wrap;connectable=0;strokeColor=inherit;overflow=hidden;fillColor=none;top=0;left=0;bottom=0;right=0;pointerEvents=1;fontSize=16;" parent="QaqN5k4PvZ0HnCuxRosK-683" vertex="1">
          <mxGeometry x="120" width="60" height="40" as="geometry">
            <mxRectangle width="60" height="40" as="alternateBounds" />
          </mxGeometry>
        </mxCell>
        <mxCell id="QaqN5k4PvZ0HnCuxRosK-687" style="shape=tableRow;horizontal=0;startSize=0;swimlaneHead=0;swimlaneBody=0;strokeColor=inherit;top=0;left=0;bottom=0;right=0;collapsible=0;dropTarget=0;fillColor=none;points=[[0,0.5],[1,0.5]];portConstraint=eastwest;fontSize=16;" parent="QaqN5k4PvZ0HnCuxRosK-666" vertex="1">
          <mxGeometry y="200" width="180" height="40" as="geometry" />
        </mxCell>
        <mxCell id="QaqN5k4PvZ0HnCuxRosK-688" value="190" style="shape=partialRectangle;html=1;whiteSpace=wrap;connectable=0;strokeColor=inherit;overflow=hidden;fillColor=none;top=0;left=0;bottom=0;right=0;pointerEvents=1;fontSize=16;" parent="QaqN5k4PvZ0HnCuxRosK-687" vertex="1">
          <mxGeometry width="60" height="40" as="geometry">
            <mxRectangle width="60" height="40" as="alternateBounds" />
          </mxGeometry>
        </mxCell>
        <mxCell id="QaqN5k4PvZ0HnCuxRosK-689" value="4+2" style="shape=partialRectangle;html=1;whiteSpace=wrap;connectable=0;strokeColor=inherit;overflow=hidden;fillColor=none;top=0;left=0;bottom=0;right=0;pointerEvents=1;fontSize=16;" parent="QaqN5k4PvZ0HnCuxRosK-687" vertex="1">
          <mxGeometry x="60" width="60" height="40" as="geometry">
            <mxRectangle width="60" height="40" as="alternateBounds" />
          </mxGeometry>
        </mxCell>
        <mxCell id="QaqN5k4PvZ0HnCuxRosK-690" value="6" style="shape=partialRectangle;html=1;whiteSpace=wrap;connectable=0;strokeColor=inherit;overflow=hidden;fillColor=none;top=0;left=0;bottom=0;right=0;pointerEvents=1;fontSize=16;" parent="QaqN5k4PvZ0HnCuxRosK-687" vertex="1">
          <mxGeometry x="120" width="60" height="40" as="geometry">
            <mxRectangle width="60" height="40" as="alternateBounds" />
          </mxGeometry>
        </mxCell>
        <mxCell id="QaqN5k4PvZ0HnCuxRosK-691" style="shape=tableRow;horizontal=0;startSize=0;swimlaneHead=0;swimlaneBody=0;strokeColor=inherit;top=0;left=0;bottom=0;right=0;collapsible=0;dropTarget=0;fillColor=none;points=[[0,0.5],[1,0.5]];portConstraint=eastwest;fontSize=16;" parent="QaqN5k4PvZ0HnCuxRosK-666" vertex="1">
          <mxGeometry y="240" width="180" height="40" as="geometry" />
        </mxCell>
        <mxCell id="QaqN5k4PvZ0HnCuxRosK-692" value="140" style="shape=partialRectangle;html=1;whiteSpace=wrap;connectable=0;strokeColor=inherit;overflow=hidden;fillColor=none;top=0;left=0;bottom=0;right=0;pointerEvents=1;fontSize=16;" parent="QaqN5k4PvZ0HnCuxRosK-691" vertex="1">
          <mxGeometry width="60" height="40" as="geometry">
            <mxRectangle width="60" height="40" as="alternateBounds" />
          </mxGeometry>
        </mxCell>
        <mxCell id="QaqN5k4PvZ0HnCuxRosK-693" value="2" style="shape=partialRectangle;html=1;whiteSpace=wrap;connectable=0;strokeColor=inherit;overflow=hidden;fillColor=none;top=0;left=0;bottom=0;right=0;pointerEvents=1;fontSize=16;" parent="QaqN5k4PvZ0HnCuxRosK-691" vertex="1">
          <mxGeometry x="60" width="60" height="40" as="geometry">
            <mxRectangle width="60" height="40" as="alternateBounds" />
          </mxGeometry>
        </mxCell>
        <mxCell id="QaqN5k4PvZ0HnCuxRosK-694" value="2" style="shape=partialRectangle;html=1;whiteSpace=wrap;connectable=0;strokeColor=inherit;overflow=hidden;fillColor=none;top=0;left=0;bottom=0;right=0;pointerEvents=1;fontSize=16;" parent="QaqN5k4PvZ0HnCuxRosK-691" vertex="1">
          <mxGeometry x="120" width="60" height="40" as="geometry">
            <mxRectangle width="60" height="40" as="alternateBounds" />
          </mxGeometry>
        </mxCell>
        <mxCell id="QaqN5k4PvZ0HnCuxRosK-696" style="shape=tableRow;horizontal=0;startSize=0;swimlaneHead=0;swimlaneBody=0;strokeColor=inherit;top=0;left=0;bottom=0;right=0;collapsible=0;dropTarget=0;fillColor=none;points=[[0,0.5],[1,0.5]];portConstraint=eastwest;fontSize=16;" parent="QaqN5k4PvZ0HnCuxRosK-666" vertex="1">
          <mxGeometry y="280" width="180" height="40" as="geometry" />
        </mxCell>
        <mxCell id="QaqN5k4PvZ0HnCuxRosK-697" value="70" style="shape=partialRectangle;html=1;whiteSpace=wrap;connectable=0;strokeColor=inherit;overflow=hidden;fillColor=none;top=0;left=0;bottom=0;right=0;pointerEvents=1;fontSize=16;" parent="QaqN5k4PvZ0HnCuxRosK-696" vertex="1">
          <mxGeometry width="60" height="40" as="geometry">
            <mxRectangle width="60" height="40" as="alternateBounds" />
          </mxGeometry>
        </mxCell>
        <mxCell id="QaqN5k4PvZ0HnCuxRosK-698" value="1" style="shape=partialRectangle;html=1;whiteSpace=wrap;connectable=0;strokeColor=inherit;overflow=hidden;fillColor=none;top=0;left=0;bottom=0;right=0;pointerEvents=1;fontSize=16;" parent="QaqN5k4PvZ0HnCuxRosK-696" vertex="1">
          <mxGeometry x="60" width="60" height="40" as="geometry">
            <mxRectangle width="60" height="40" as="alternateBounds" />
          </mxGeometry>
        </mxCell>
        <mxCell id="QaqN5k4PvZ0HnCuxRosK-699" value="1" style="shape=partialRectangle;html=1;whiteSpace=wrap;connectable=0;strokeColor=inherit;overflow=hidden;fillColor=none;top=0;left=0;bottom=0;right=0;pointerEvents=1;fontSize=16;" parent="QaqN5k4PvZ0HnCuxRosK-696" vertex="1">
          <mxGeometry x="120" width="60" height="40" as="geometry">
            <mxRectangle width="60" height="40" as="alternateBounds" />
          </mxGeometry>
        </mxCell>
        <mxCell id="QaqN5k4PvZ0HnCuxRosK-700" value="8-5" style="rounded=0;whiteSpace=wrap;html=1;fillColor=#fff2cc;strokeColor=#d6b656;shadow=0;" parent="1" vertex="1">
          <mxGeometry x="6054.599999999999" y="2678.9899999999993" width="19.685" height="19.685" as="geometry" />
        </mxCell>
        <mxCell id="QaqN5k4PvZ0HnCuxRosK-701" value="8-6" style="rounded=0;whiteSpace=wrap;html=1;fillColor=#fff2cc;strokeColor=#d6b656;shadow=0;" parent="1" vertex="1">
          <mxGeometry x="6311.509999999999" y="2678.9899999999993" width="19.685" height="19.685" as="geometry" />
        </mxCell>
        <mxCell id="QaqN5k4PvZ0HnCuxRosK-702" value="8-4" style="rounded=0;whiteSpace=wrap;html=1;fillColor=#fff2cc;strokeColor=#d6b656;shadow=0;" parent="1" vertex="1">
          <mxGeometry x="6074.82" y="2678.99" width="236.22" height="19.68" as="geometry" />
        </mxCell>
      </root>
    </mxGraphModel>
  </diagram>
</mxfile>
